<svg width="160" height="36" viewBox="0 0 160 36" fill="none" xmlns="http://www.w3.org/2000/svg">
<rect width="160" height="36" rx="2" fill="black"/>
<path d="M44.769 17.3008C44.7797 16.4662 45.0014 15.6478 45.4135 14.9218C45.8255 14.1959 46.4145 13.5859 47.1256 13.1488C46.6738 12.5036 46.0779 11.9727 45.385 11.5981C44.6922 11.2236 43.9216 11.0157 43.1344 10.9911C41.4552 10.8148 39.8272 11.9959 38.9715 11.9959C38.0992 11.9959 36.7817 11.0086 35.363 11.0378C34.4453 11.0674 33.551 11.3343 32.7671 11.8123C31.9832 12.2904 31.3365 12.9633 30.8901 13.7656C28.9561 17.1141 30.3987 22.0351 32.2513 24.7417C33.1782 26.0671 34.2615 27.5475 35.6789 27.495C37.066 27.4375 37.584 26.6105 39.2583 26.6105C40.9171 26.6105 41.4031 27.495 42.8493 27.4616C44.3377 27.4375 45.2754 26.1304 46.1698 24.7925C46.8358 23.8481 47.3483 22.8044 47.6882 21.7C46.8235 21.3343 46.0856 20.7221 45.5665 19.9398C45.0474 19.1575 44.77 18.2397 44.769 17.3008Z" fill="white"/>
<path d="M42.0373 9.21132C42.8489 8.23711 43.2487 6.98494 43.1518 5.7207C41.912 5.85092 40.7668 6.44348 39.9443 7.38031C39.5421 7.83798 39.2341 8.37041 39.0379 8.94718C38.8416 9.52395 38.761 10.1337 38.8006 10.7417C39.4207 10.7481 40.0342 10.6137 40.5949 10.3486C41.1555 10.0835 41.6487 9.69465 42.0373 9.21132Z" fill="white"/>
<path d="M62.3022 24.1397H57.5688L56.4321 27.4961H54.4272L58.9106 15.0781H60.9936L65.477 27.4961H63.438L62.3022 24.1397ZM58.0591 22.5908H61.8111L59.9615 17.1436H59.9097L58.0591 22.5908Z" fill="white"/>
<path d="M75.1597 22.9699C75.1597 25.7834 73.6538 27.591 71.3814 27.591C70.8057 27.6211 70.2332 27.4885 69.7294 27.2084C69.2256 26.9283 68.8109 26.5119 68.5327 26.007H68.4897V30.4914H66.6313V18.4426H68.4302V19.9485H68.4644C68.7553 19.446 69.1771 19.0318 69.6847 18.7499C70.1923 18.4681 70.7669 18.3291 71.3472 18.3479C73.645 18.3479 75.1597 20.1643 75.1597 22.9699ZM73.2495 22.9699C73.2495 21.1369 72.3023 19.9319 70.857 19.9319C69.437 19.9319 68.482 21.1623 68.482 22.9699C68.482 24.7942 69.437 26.0158 70.857 26.0158C72.3023 26.0158 73.2495 24.8196 73.2495 22.9699Z" fill="white"/>
<path d="M85.1245 22.9699C85.1245 25.7834 83.6187 27.591 81.3462 27.591C80.7706 27.6211 80.1981 27.4885 79.6943 27.2084C79.1905 26.9283 78.7758 26.5119 78.4976 26.007H78.4546V30.4914H76.5962V18.4426H78.395V19.9484H78.4292C78.7201 19.446 79.1419 19.0318 79.6495 18.7499C80.1571 18.4681 80.7317 18.3291 81.312 18.3479C83.6099 18.3479 85.1245 20.1643 85.1245 22.9699ZM83.2144 22.9699C83.2144 21.1369 82.2671 19.9318 80.8218 19.9318C79.4019 19.9318 78.4468 21.1623 78.4468 22.9699C78.4468 24.7942 79.4019 26.0158 80.8218 26.0158C82.2671 26.0158 83.2144 24.8195 83.2144 22.9699H83.2144Z" fill="white"/>
<path d="M91.7105 24.0362C91.8482 25.2676 93.0445 26.0762 94.6792 26.0762C96.2456 26.0762 97.3726 25.2676 97.3726 24.1572C97.3726 23.1934 96.6929 22.6162 95.0835 22.2207L93.4742 21.833C91.1939 21.2822 90.1353 20.2158 90.1353 18.4854C90.1353 16.3428 92.0025 14.8711 94.6538 14.8711C97.2778 14.8711 99.0767 16.3428 99.1372 18.4854H97.2612C97.1489 17.2461 96.1245 16.4981 94.6274 16.4981C93.1304 16.4981 92.106 17.2549 92.106 18.3565C92.106 19.2344 92.7603 19.751 94.3608 20.1465L95.729 20.4824C98.2769 21.0849 99.3355 22.1084 99.3355 23.9248C99.3355 26.248 97.4849 27.7031 94.5415 27.7031C91.7876 27.7031 89.9282 26.2822 89.8081 24.0361L91.7105 24.0362Z" fill="white"/>
<path d="M103.346 16.2998V18.4424H105.068V19.9141H103.346V24.9053C103.346 25.6807 103.691 26.042 104.448 26.042C104.652 26.0384 104.856 26.0241 105.059 25.999V27.4619C104.719 27.5255 104.373 27.5543 104.027 27.5478C102.194 27.5478 101.479 26.8593 101.479 25.1035V19.9141H100.163V18.4424H101.479V16.2998H103.346Z" fill="white"/>
<path d="M106.065 22.9697C106.065 20.1211 107.743 18.3311 110.359 18.3311C112.984 18.3311 114.654 20.1211 114.654 22.9697C114.654 25.8262 112.993 27.6084 110.359 27.6084C107.726 27.6084 106.065 25.8262 106.065 22.9697ZM112.76 22.9697C112.76 21.0156 111.865 19.8623 110.359 19.8623C108.853 19.8623 107.958 21.0244 107.958 22.9697C107.958 24.9316 108.853 26.0762 110.359 26.0762C111.865 26.0762 112.76 24.9316 112.76 22.9697H112.76Z" fill="white"/>
<path d="M116.186 18.4425H117.959V19.9835H118.002C118.121 19.5022 118.403 19.0769 118.8 18.779C119.197 18.4811 119.684 18.3288 120.179 18.3478C120.393 18.347 120.607 18.3703 120.816 18.4171V20.1554C120.546 20.0728 120.264 20.0348 119.981 20.0431C119.711 20.0321 119.442 20.0797 119.192 20.1826C118.942 20.2855 118.718 20.4412 118.534 20.6391C118.35 20.837 118.211 21.0724 118.126 21.3291C118.042 21.5857 118.014 21.8576 118.044 22.1261V27.4962H116.186L116.186 18.4425Z" fill="white"/>
<path d="M129.384 24.8369C129.134 26.4805 127.534 27.6084 125.486 27.6084C122.852 27.6084 121.217 25.8437 121.217 23.0127C121.217 20.1729 122.861 18.3311 125.408 18.3311C127.913 18.3311 129.488 20.0518 129.488 22.7969V23.4336H123.093V23.5459C123.064 23.8791 123.105 24.2148 123.216 24.5306C123.326 24.8464 123.502 25.1352 123.732 25.3778C123.963 25.6203 124.242 25.8111 124.552 25.9374C124.861 26.0637 125.195 26.1226 125.529 26.1103C125.968 26.1515 126.409 26.0498 126.785 25.8203C127.162 25.5909 127.455 25.246 127.62 24.8369L129.384 24.8369ZM123.102 22.1348H127.628C127.645 21.8352 127.6 21.5354 127.495 21.2541C127.39 20.9729 127.229 20.7164 127.02 20.5006C126.812 20.2849 126.561 20.1145 126.283 20.0003C126.006 19.8861 125.708 19.8305 125.408 19.8369C125.105 19.8351 124.805 19.8933 124.525 20.008C124.245 20.1227 123.99 20.2918 123.776 20.5054C123.562 20.7191 123.392 20.973 123.276 21.2527C123.16 21.5323 123.101 21.8321 123.102 22.1348V22.1348Z" fill="white"/>
<path d="M57.8262 5.73089C58.2158 5.70293 58.6067 5.76179 58.9709 5.90323C59.335 6.04466 59.6632 6.26514 59.9317 6.54876C60.2003 6.83239 60.4026 7.17209 60.524 7.54336C60.6454 7.91463 60.6829 8.30822 60.6338 8.69573C60.6338 10.602 59.6035 11.6977 57.8262 11.6977H55.6709V5.73089H57.8262ZM56.5976 10.8539H57.7226C58.0011 10.8705 58.2797 10.8249 58.5382 10.7203C58.7967 10.6157 59.0287 10.4547 59.2172 10.2491C59.4057 10.0436 59.546 9.79857 59.6278 9.53195C59.7097 9.26533 59.7311 8.98382 59.6904 8.70789C59.7281 8.43306 59.7046 8.15329 59.6215 7.88862C59.5383 7.62396 59.3977 7.38096 59.2096 7.17703C59.0216 6.9731 58.7907 6.81329 58.5337 6.70905C58.2766 6.60481 57.9996 6.55873 57.7226 6.5741H56.5976V10.8539Z" fill="white"/>
<path d="M61.6807 9.44429C61.6524 9.14837 61.6862 8.8498 61.7801 8.56773C61.8739 8.28566 62.0257 8.02632 62.2256 7.80634C62.4256 7.58636 62.6693 7.41059 62.9411 7.29032C63.213 7.17004 63.507 7.10791 63.8042 7.10791C64.1015 7.10791 64.3955 7.17004 64.6673 7.29032C64.9392 7.41059 65.1829 7.58636 65.3828 7.80634C65.5828 8.02632 65.7345 8.28566 65.8284 8.56773C65.9222 8.8498 65.9561 9.14837 65.9278 9.44429C65.9566 9.74051 65.9232 10.0395 65.8296 10.322C65.736 10.6045 65.5843 10.8644 65.3843 11.0848C65.1843 11.3052 64.9404 11.4813 64.6683 11.6019C64.3962 11.7224 64.1019 11.7847 63.8042 11.7847C63.5066 11.7847 63.2123 11.7224 62.9402 11.6019C62.668 11.4813 62.4241 11.3052 62.2241 11.0848C62.0242 10.8644 61.8725 10.6045 61.7789 10.322C61.6853 10.0395 61.6519 9.74051 61.6807 9.44429ZM65.0137 9.44429C65.0137 8.46822 64.5752 7.89742 63.8057 7.89742C63.0332 7.89742 62.5987 8.46822 62.5987 9.4443C62.5987 10.4282 63.0333 10.9946 63.8057 10.9946C64.5752 10.9946 65.0137 10.4243 65.0137 9.44429H65.0137Z" fill="white"/>
<path d="M71.5732 11.6978H70.6514L69.7207 8.38134H69.6504L68.7236 11.6978H67.8105L66.5693 7.19482H67.4707L68.2773 10.6308H68.3438L69.2695 7.19482H70.1221L71.0479 10.6308H71.1182L71.9209 7.19482H72.8096L71.5732 11.6978Z" fill="white"/>
<path d="M73.8535 7.19487H74.709V7.9102H74.7754C74.888 7.65328 75.0781 7.43791 75.3189 7.2941C75.5598 7.15029 75.8395 7.08522 76.1191 7.10795C76.3382 7.09148 76.5582 7.12451 76.7628 7.20461C76.9674 7.2847 77.1514 7.40981 77.3011 7.57065C77.4508 7.73149 77.5623 7.92396 77.6275 8.13378C77.6927 8.3436 77.7099 8.5654 77.6777 8.78275V11.6977H76.7891V9.00591C76.7891 8.28228 76.4746 7.92241 75.8174 7.92241C75.6686 7.91548 75.5201 7.9408 75.3821 7.99663C75.244 8.05246 75.1197 8.13748 75.0175 8.24587C74.9154 8.35425 74.8379 8.48344 74.7904 8.62457C74.7429 8.7657 74.7264 8.91544 74.7422 9.06352V11.6978H73.8535L73.8535 7.19487Z" fill="white"/>
<path d="M79.0938 5.43701H79.9824V11.6978H79.0938V5.43701Z" fill="white"/>
<path d="M81.2178 9.44437C81.1895 9.14843 81.2234 8.84985 81.3172 8.56777C81.4111 8.28569 81.5629 8.02634 81.7628 7.80635C81.9628 7.58636 82.2065 7.4106 82.4784 7.29032C82.7503 7.17004 83.0443 7.10791 83.3416 7.10791C83.6389 7.10791 83.9329 7.17004 84.2047 7.29032C84.4766 7.4106 84.7203 7.58636 84.9203 7.80635C85.1203 8.02634 85.272 8.28569 85.3659 8.56777C85.4598 8.84985 85.4936 9.14843 85.4653 9.44437C85.4942 9.74061 85.4607 10.0396 85.3671 10.3221C85.2734 10.6046 85.1217 10.8645 84.9217 11.0849C84.7217 11.3053 84.4778 11.4814 84.2057 11.6019C83.9335 11.7225 83.6392 11.7847 83.3416 11.7847C83.0439 11.7847 82.7496 11.7225 82.4775 11.6019C82.2053 11.4814 81.9614 11.3053 81.7614 11.0849C81.5614 10.8645 81.4097 10.6046 81.3161 10.3221C81.2225 10.0396 81.189 9.74061 81.2178 9.44437ZM84.5508 9.44437C84.5508 8.4683 84.1123 7.8975 83.3428 7.8975C82.5703 7.8975 82.1358 8.4683 82.1358 9.44438C82.1358 10.4283 82.5704 10.9947 83.3428 10.9947C84.1123 10.9947 84.5508 10.4244 84.5508 9.44437H84.5508Z" fill="white"/>
<path d="M86.4009 10.4243C86.4009 9.61376 87.0044 9.14648 88.0757 9.08007L89.2954 9.00976V8.62109C89.2954 8.1455 88.981 7.87695 88.3735 7.87695C87.8774 7.87695 87.5337 8.05908 87.4351 8.37744H86.5747C86.6655 7.604 87.3931 7.10791 88.4146 7.10791C89.5435 7.10791 90.1802 7.66991 90.1802 8.62109V11.6978H89.3247V11.0649H89.2544C89.1117 11.2919 88.9113 11.477 88.6737 11.6012C88.436 11.7254 88.1697 11.7843 87.9019 11.7719C87.7128 11.7916 87.5218 11.7714 87.341 11.7127C87.1602 11.654 86.9938 11.5581 86.8524 11.4311C86.711 11.3042 86.5977 11.149 86.52 10.9756C86.4422 10.8021 86.4016 10.6144 86.4009 10.4243ZM89.2954 10.0395V9.66308L88.1958 9.73339C87.5757 9.77489 87.2944 9.98583 87.2944 10.3828C87.2944 10.7881 87.646 11.0239 88.1294 11.0239C88.2711 11.0382 88.4142 11.0239 88.5502 10.9819C88.6862 10.9398 88.8123 10.8707 88.9211 10.7789C89.0299 10.6871 89.1191 10.5743 89.1834 10.4473C89.2477 10.3202 89.2858 10.1816 89.2954 10.0395Z" fill="white"/>
<path d="M91.3481 9.44435C91.3481 8.0215 92.0796 7.12013 93.2173 7.12013C93.4987 7.10716 93.778 7.17457 94.0225 7.31446C94.267 7.45436 94.4667 7.66096 94.5981 7.91013H94.6646V5.43701H95.5532V11.6978H94.7017V10.9863H94.6314C94.4897 11.2338 94.2831 11.4378 94.0339 11.5763C93.7846 11.7148 93.5022 11.7825 93.2173 11.772C92.0718 11.772 91.3481 10.8706 91.3481 9.44435ZM92.2661 9.44435C92.2661 10.3994 92.7163 10.9741 93.4693 10.9741C94.2183 10.9741 94.6812 10.3911 94.6812 9.44826C94.6812 8.50978 94.2134 7.91847 93.4693 7.91847C92.7212 7.91847 92.2661 8.49708 92.2661 9.44435H92.2661Z" fill="white"/>
<path d="M99.23 9.44429C99.2017 9.14837 99.2356 8.8498 99.3294 8.56773C99.4232 8.28566 99.575 8.02632 99.7749 7.80634C99.9749 7.58636 100.219 7.41059 100.49 7.29032C100.762 7.17004 101.056 7.10791 101.354 7.10791C101.651 7.10791 101.945 7.17004 102.217 7.29032C102.489 7.41059 102.732 7.58636 102.932 7.80634C103.132 8.02632 103.284 8.28566 103.378 8.56773C103.472 8.8498 103.505 9.14837 103.477 9.44429C103.506 9.74051 103.472 10.0395 103.379 10.322C103.285 10.6045 103.134 10.8644 102.934 11.0848C102.734 11.3052 102.49 11.4813 102.218 11.6019C101.946 11.7224 101.651 11.7847 101.354 11.7847C101.056 11.7847 100.762 11.7224 100.489 11.6019C100.217 11.4813 99.9735 11.3052 99.7735 11.0848C99.5735 10.8644 99.4218 10.6045 99.3282 10.322C99.2346 10.0395 99.2012 9.74051 99.23 9.44429ZM102.563 9.44429C102.563 8.46822 102.125 7.89742 101.355 7.89742C100.583 7.89742 100.148 8.46822 100.148 9.4443C100.148 10.4282 100.583 10.9946 101.355 10.9946C102.125 10.9946 102.563 10.4243 102.563 9.44429Z" fill="white"/>
<path d="M104.669 7.19487H105.525V7.9102H105.591C105.704 7.65328 105.894 7.43791 106.135 7.2941C106.376 7.15029 106.655 7.08522 106.935 7.10795C107.154 7.09148 107.374 7.12451 107.579 7.20461C107.783 7.2847 107.967 7.40981 108.117 7.57065C108.267 7.73149 108.378 7.92396 108.443 8.13378C108.509 8.3436 108.526 8.5654 108.494 8.78275V11.6977H107.605V9.00591C107.605 8.28228 107.291 7.92241 106.633 7.92241C106.485 7.91548 106.336 7.9408 106.198 7.99663C106.06 8.05246 105.936 8.13748 105.833 8.24587C105.731 8.35425 105.654 8.48344 105.606 8.62457C105.559 8.7657 105.542 8.91544 105.558 9.06352V11.6978H104.669V7.19487Z" fill="white"/>
<path d="M113.515 6.07373V7.21533H114.491V7.96387H113.515V10.2793C113.515 10.751 113.709 10.9575 114.152 10.9575C114.265 10.9572 114.378 10.9503 114.491 10.937V11.6772C114.331 11.7058 114.169 11.721 114.007 11.7226C113.019 11.7226 112.625 11.375 112.625 10.5068V7.96383H111.911V7.21529H112.625V6.07373H113.515Z" fill="white"/>
<path d="M115.705 5.43701H116.585V7.91846H116.656C116.774 7.65914 116.969 7.44255 117.215 7.2982C117.461 7.15386 117.745 7.08877 118.029 7.11182C118.247 7.09996 118.465 7.13635 118.667 7.21839C118.869 7.30043 119.051 7.42611 119.199 7.58644C119.347 7.74678 119.458 7.93783 119.524 8.14597C119.59 8.3541 119.609 8.57419 119.58 8.79053V11.6978H118.69V9.00976C118.69 8.29052 118.355 7.92626 117.727 7.92626C117.574 7.91374 117.421 7.93473 117.277 7.98779C117.133 8.04084 117.003 8.12467 116.895 8.23341C116.787 8.34214 116.704 8.47316 116.652 8.6173C116.6 8.76144 116.58 8.91521 116.593 9.06786V11.6977H115.705L115.705 5.43701Z" fill="white"/>
<path d="M124.761 10.482C124.64 10.8935 124.379 11.2495 124.022 11.4877C123.665 11.7258 123.236 11.831 122.81 11.7847C122.513 11.7926 122.218 11.7357 121.946 11.6182C121.673 11.5007 121.43 11.3253 121.232 11.1041C121.034 10.883 120.887 10.6214 120.8 10.3376C120.713 10.0538 120.689 9.75451 120.73 9.46053C120.69 9.16564 120.715 8.86571 120.801 8.58104C120.888 8.29636 121.034 8.0336 121.231 7.81052C121.428 7.58745 121.671 7.40928 121.942 7.28807C122.214 7.16686 122.509 7.10545 122.806 7.10799C124.059 7.10799 124.815 7.96399 124.815 9.37799V9.68808H121.635V9.73788C121.621 9.90312 121.642 10.0695 121.696 10.2262C121.75 10.383 121.837 10.5267 121.949 10.6481C122.062 10.7696 122.199 10.8661 122.352 10.9315C122.504 10.9969 122.669 11.0297 122.834 11.0279C123.047 11.0534 123.262 11.0151 123.453 10.9179C123.644 10.8207 123.801 10.669 123.906 10.482L124.761 10.482ZM121.635 9.03084H123.91C123.921 8.87971 123.9 8.72791 123.849 8.58519C123.798 8.44247 123.718 8.31199 123.614 8.20213C123.509 8.09228 123.383 8.00547 123.243 7.9473C123.103 7.88912 122.953 7.86086 122.801 7.86434C122.647 7.8624 122.495 7.89126 122.353 7.94921C122.21 8.00715 122.081 8.09301 121.972 8.20172C121.864 8.31044 121.778 8.4398 121.72 8.5822C121.662 8.7246 121.633 8.87714 121.635 9.03084H121.635Z" fill="white"/>
</svg>
