<svg width="120" height="36" viewBox="0 0 120 36" fill="none" xmlns="http://www.w3.org/2000/svg">
<rect width="120" height="36" rx="2" fill="black"/>
<path d="M24.769 17.3008C24.7797 16.4662 25.0014 15.6478 25.4135 14.9218C25.8255 14.1959 26.4145 13.5859 27.1256 13.1488C26.6738 12.5036 26.0779 11.9727 25.385 11.5981C24.6922 11.2236 23.9216 11.0157 23.1344 10.9911C21.4552 10.8148 19.8272 11.9959 18.9715 11.9959C18.0992 11.9959 16.7817 11.0086 15.363 11.0378C14.4453 11.0674 13.551 11.3343 12.7671 11.8123C11.9832 12.2904 11.3365 12.9633 10.8901 13.7656C8.95607 17.1141 10.3987 22.0351 12.2513 24.7417C13.1782 26.0671 14.2615 27.5475 15.6789 27.495C17.066 27.4375 17.584 26.6105 19.2583 26.6105C20.9171 26.6105 21.4031 27.495 22.8493 27.4616C24.3377 27.4375 25.2754 26.1304 26.1698 24.7925C26.8358 23.8481 27.3483 22.8044 27.6882 21.7C26.8235 21.3343 26.0856 20.7221 25.5665 19.9398C25.0474 19.1575 24.77 18.2397 24.769 17.3008Z" fill="white"/>
<path d="M22.0376 9.21132C22.8491 8.23711 23.2489 6.98494 23.1521 5.7207C21.9123 5.85092 20.767 6.44348 19.9445 7.38031C19.5424 7.83798 19.2344 8.37041 19.0381 8.94718C18.8419 9.52395 18.7612 10.1337 18.8008 10.7417C19.4209 10.7481 20.0344 10.6137 20.5951 10.3486C21.1558 10.0835 21.649 9.69465 22.0376 9.21132Z" fill="white"/>
<path d="M42.3022 24.1397H37.5688L36.4321 27.4961H34.4272L38.9106 15.0781H40.9936L45.477 27.4961H43.438L42.3022 24.1397ZM38.0591 22.5908H41.8111L39.9615 17.1436H39.9097L38.0591 22.5908Z" fill="white"/>
<path d="M55.1597 22.9699C55.1597 25.7834 53.6538 27.591 51.3814 27.591C50.8057 27.6211 50.2332 27.4885 49.7294 27.2084C49.2256 26.9283 48.8109 26.5119 48.5327 26.007H48.4897V30.4914H46.6313V18.4426H48.4302V19.9485H48.4644C48.7553 19.446 49.1771 19.0318 49.6847 18.7499C50.1923 18.4681 50.7669 18.3291 51.3472 18.3479C53.645 18.3479 55.1597 20.1643 55.1597 22.9699ZM53.2495 22.9699C53.2495 21.1369 52.3023 19.9319 50.857 19.9319C49.437 19.9319 48.482 21.1623 48.482 22.9699C48.482 24.7942 49.437 26.0158 50.857 26.0158C52.3023 26.0158 53.2495 24.8196 53.2495 22.9699Z" fill="white"/>
<path d="M65.1245 22.9699C65.1245 25.7834 63.6187 27.591 61.3462 27.591C60.7706 27.6211 60.1981 27.4885 59.6943 27.2084C59.1905 26.9283 58.7758 26.5119 58.4976 26.007H58.4546V30.4914H56.5962V18.4426H58.395V19.9484H58.4292C58.7201 19.446 59.1419 19.0318 59.6495 18.7499C60.1571 18.4681 60.7317 18.3291 61.312 18.3479C63.6099 18.3479 65.1245 20.1643 65.1245 22.9699ZM63.2144 22.9699C63.2144 21.1369 62.2671 19.9318 60.8218 19.9318C59.4019 19.9318 58.4468 21.1623 58.4468 22.9699C58.4468 24.7942 59.4019 26.0158 60.8218 26.0158C62.2671 26.0158 63.2144 24.8195 63.2144 22.9699H63.2144Z" fill="white"/>
<path d="M71.7105 24.0362C71.8482 25.2676 73.0445 26.0762 74.6792 26.0762C76.2456 26.0762 77.3726 25.2676 77.3726 24.1572C77.3726 23.1934 76.6929 22.6162 75.0835 22.2207L73.4742 21.833C71.1939 21.2822 70.1353 20.2158 70.1353 18.4854C70.1353 16.3428 72.0025 14.8711 74.6538 14.8711C77.2778 14.8711 79.0767 16.3428 79.1372 18.4854H77.2612C77.1489 17.2461 76.1245 16.4981 74.6274 16.4981C73.1304 16.4981 72.106 17.2549 72.106 18.3565C72.106 19.2344 72.7603 19.751 74.3608 20.1465L75.729 20.4824C78.2769 21.0849 79.3355 22.1084 79.3355 23.9248C79.3355 26.248 77.4849 27.7031 74.5415 27.7031C71.7876 27.7031 69.9282 26.2822 69.8081 24.0361L71.7105 24.0362Z" fill="white"/>
<path d="M83.3462 16.2998V18.4424H85.0679V19.9141H83.3462V24.9053C83.3462 25.6807 83.6909 26.042 84.4477 26.042C84.6521 26.0384 84.8562 26.0241 85.0591 25.999V27.4619C84.7188 27.5255 84.3729 27.5543 84.0268 27.5478C82.1938 27.5478 81.479 26.8593 81.479 25.1035V19.9141H80.1626V18.4424H81.479V16.2998H83.3462Z" fill="white"/>
<path d="M86.0649 22.9697C86.0649 20.1211 87.7427 18.3311 90.3589 18.3311C92.9839 18.3311 94.6538 20.1211 94.6538 22.9697C94.6538 25.8262 92.9927 27.6084 90.3589 27.6084C87.726 27.6084 86.0649 25.8262 86.0649 22.9697ZM92.7602 22.9697C92.7602 21.0156 91.8647 19.8623 90.3589 19.8623C88.853 19.8623 87.9585 21.0244 87.9585 22.9697C87.9585 24.9316 88.853 26.0762 90.3589 26.0762C91.8647 26.0762 92.7602 24.9316 92.7602 22.9697H92.7602Z" fill="white"/>
<path d="M96.186 18.4425H97.9585V19.9835H98.0015C98.1214 19.5022 98.4034 19.0769 98.8 18.779C99.1966 18.4811 99.6836 18.3288 100.179 18.3478C100.393 18.347 100.607 18.3703 100.816 18.4171V20.1554C100.546 20.0728 100.264 20.0348 99.981 20.0431C99.711 20.0321 99.4418 20.0797 99.192 20.1826C98.9421 20.2855 98.7175 20.4412 98.5335 20.6391C98.3496 20.837 98.2106 21.0724 98.1262 21.3291C98.0417 21.5857 98.0139 21.8576 98.0444 22.1261V27.4962H96.186L96.186 18.4425Z" fill="white"/>
<path d="M109.384 24.8369C109.134 26.4805 107.534 27.6084 105.486 27.6084C102.852 27.6084 101.217 25.8437 101.217 23.0127C101.217 20.1729 102.861 18.3311 105.408 18.3311C107.913 18.3311 109.488 20.0518 109.488 22.7969V23.4336H103.093V23.5459C103.064 23.8791 103.105 24.2148 103.216 24.5306C103.326 24.8464 103.502 25.1352 103.732 25.3778C103.963 25.6203 104.242 25.8111 104.552 25.9374C104.861 26.0637 105.195 26.1226 105.529 26.1103C105.968 26.1515 106.409 26.0498 106.785 25.8203C107.162 25.5909 107.455 25.246 107.62 24.8369L109.384 24.8369ZM103.102 22.1348H107.628C107.645 21.8352 107.6 21.5354 107.495 21.2541C107.39 20.9729 107.229 20.7164 107.02 20.5006C106.812 20.2849 106.561 20.1145 106.283 20.0003C106.006 19.8861 105.708 19.8305 105.408 19.8369C105.105 19.8351 104.805 19.8933 104.525 20.008C104.245 20.1227 103.99 20.2918 103.776 20.5054C103.562 20.7191 103.392 20.973 103.276 21.2527C103.16 21.5323 103.101 21.8321 103.102 22.1348V22.1348Z" fill="white"/>
<path d="M37.8262 5.73089C38.2158 5.70293 38.6067 5.76179 38.9709 5.90323C39.335 6.04466 39.6632 6.26514 39.9317 6.54876C40.2003 6.83239 40.4026 7.17209 40.524 7.54336C40.6454 7.91463 40.6829 8.30822 40.6338 8.69573C40.6338 10.602 39.6035 11.6977 37.8262 11.6977H35.6709V5.73089H37.8262ZM36.5976 10.8539H37.7226C38.0011 10.8705 38.2797 10.8249 38.5382 10.7203C38.7967 10.6157 39.0287 10.4547 39.2172 10.2491C39.4057 10.0436 39.546 9.79857 39.6278 9.53195C39.7097 9.26533 39.7311 8.98382 39.6904 8.70789C39.7281 8.43306 39.7046 8.15329 39.6215 7.88862C39.5383 7.62396 39.3977 7.38096 39.2096 7.17703C39.0216 6.9731 38.7907 6.81329 38.5337 6.70905C38.2766 6.60481 37.9996 6.55873 37.7226 6.5741H36.5976V10.8539Z" fill="white"/>
<path d="M41.6805 9.44429C41.6521 9.14837 41.686 8.8498 41.7798 8.56773C41.8737 8.28566 42.0254 8.02632 42.2254 7.80634C42.4253 7.58636 42.669 7.41059 42.9409 7.29032C43.2127 7.17004 43.5067 7.10791 43.804 7.10791C44.1013 7.10791 44.3952 7.17004 44.6671 7.29032C44.939 7.41059 45.1827 7.58636 45.3826 7.80634C45.5825 8.02632 45.7343 8.28566 45.8281 8.56773C45.922 8.8498 45.9558 9.14837 45.9275 9.44429C45.9564 9.74051 45.9229 10.0395 45.8293 10.322C45.7357 10.6045 45.5841 10.8644 45.3841 11.0848C45.1841 11.3052 44.9402 11.4813 44.6681 11.6019C44.3959 11.7224 44.1016 11.7847 43.804 11.7847C43.5064 11.7847 43.212 11.7224 42.9399 11.6019C42.6678 11.4813 42.4239 11.3052 42.2239 11.0848C42.0239 10.8644 41.8722 10.6045 41.7786 10.322C41.6851 10.0395 41.6516 9.74051 41.6805 9.44429ZM45.0135 9.44429C45.0135 8.46822 44.575 7.89742 43.8055 7.89742C43.033 7.89742 42.5985 8.46822 42.5985 9.4443C42.5985 10.4282 43.033 10.9946 43.8055 10.9946C44.575 10.9946 45.0135 10.4243 45.0135 9.44429H45.0135Z" fill="white"/>
<path d="M51.5732 11.6978H50.6514L49.7207 8.38134H49.6504L48.7236 11.6978H47.8105L46.5693 7.19482H47.4707L48.2773 10.6308H48.3438L49.2695 7.19482H50.1221L51.0479 10.6308H51.1182L51.9209 7.19482H52.8096L51.5732 11.6978Z" fill="white"/>
<path d="M53.8535 7.19487H54.709V7.9102H54.7754C54.888 7.65328 55.0781 7.43791 55.3189 7.2941C55.5598 7.15029 55.8395 7.08522 56.1191 7.10795C56.3382 7.09148 56.5582 7.12451 56.7628 7.20461C56.9674 7.2847 57.1514 7.40981 57.3011 7.57065C57.4508 7.73149 57.5623 7.92396 57.6275 8.13378C57.6927 8.3436 57.7099 8.5654 57.6777 8.78275V11.6977H56.7891V9.00591C56.7891 8.28228 56.4746 7.92241 55.8174 7.92241C55.6686 7.91548 55.5201 7.9408 55.3821 7.99663C55.244 8.05246 55.1197 8.13748 55.0175 8.24587C54.9154 8.35425 54.8379 8.48344 54.7904 8.62457C54.7429 8.7657 54.7264 8.91544 54.7422 9.06352V11.6978H53.8535L53.8535 7.19487Z" fill="white"/>
<path d="M59.0938 5.43701H59.9824V11.6978H59.0938V5.43701Z" fill="white"/>
<path d="M61.218 9.44437C61.1897 9.14843 61.2236 8.84985 61.3175 8.56777C61.4113 8.28569 61.5631 8.02634 61.7631 7.80635C61.963 7.58636 62.2068 7.4106 62.4786 7.29032C62.7505 7.17004 63.0445 7.10791 63.3418 7.10791C63.6391 7.10791 63.9331 7.17004 64.205 7.29032C64.4768 7.4106 64.7206 7.58636 64.9205 7.80635C65.1205 8.02634 65.2723 8.28569 65.3661 8.56777C65.46 8.84985 65.4939 9.14843 65.4656 9.44437C65.4944 9.74061 65.4609 10.0396 65.3673 10.3221C65.2737 10.6046 65.122 10.8645 64.922 11.0849C64.722 11.3053 64.478 11.4814 64.2059 11.6019C63.9338 11.7225 63.6394 11.7847 63.3418 11.7847C63.0442 11.7847 62.7498 11.7225 62.4777 11.6019C62.2056 11.4814 61.9617 11.3053 61.7616 11.0849C61.5616 10.8645 61.4099 10.6046 61.3163 10.3221C61.2227 10.0396 61.1892 9.74061 61.218 9.44437ZM64.551 9.44437C64.551 8.4683 64.1125 7.8975 63.343 7.8975C62.5706 7.8975 62.136 8.4683 62.136 9.44438C62.136 10.4283 62.5706 10.9947 63.343 10.9947C64.1126 10.9947 64.551 10.4244 64.551 9.44437H64.551Z" fill="white"/>
<path d="M66.4009 10.4243C66.4009 9.61376 67.0044 9.14648 68.0757 9.08007L69.2954 9.00976V8.62109C69.2954 8.1455 68.981 7.87695 68.3735 7.87695C67.8774 7.87695 67.5337 8.05908 67.4351 8.37744H66.5747C66.6655 7.604 67.3931 7.10791 68.4146 7.10791C69.5435 7.10791 70.1802 7.66991 70.1802 8.62109V11.6978H69.3247V11.0649H69.2544C69.1117 11.2919 68.9113 11.477 68.6737 11.6012C68.436 11.7254 68.1697 11.7843 67.9019 11.7719C67.7128 11.7916 67.5218 11.7714 67.341 11.7127C67.1602 11.654 66.9938 11.5581 66.8524 11.4311C66.711 11.3042 66.5977 11.149 66.52 10.9756C66.4422 10.8021 66.4016 10.6144 66.4009 10.4243ZM69.2954 10.0395V9.66308L68.1958 9.73339C67.5757 9.77489 67.2944 9.98583 67.2944 10.3828C67.2944 10.7881 67.646 11.0239 68.1294 11.0239C68.2711 11.0382 68.4142 11.0239 68.5502 10.9819C68.6862 10.9398 68.8123 10.8707 68.9211 10.7789C69.0299 10.6871 69.1191 10.5743 69.1834 10.4473C69.2477 10.3202 69.2858 10.1816 69.2954 10.0395Z" fill="white"/>
<path d="M71.3481 9.44435C71.3481 8.0215 72.0796 7.12013 73.2173 7.12013C73.4987 7.10716 73.778 7.17457 74.0225 7.31446C74.267 7.45436 74.4667 7.66096 74.5981 7.91013H74.6646V5.43701H75.5532V11.6978H74.7017V10.9863H74.6314C74.4897 11.2338 74.2831 11.4378 74.0339 11.5763C73.7846 11.7148 73.5022 11.7825 73.2173 11.772C72.0718 11.772 71.3481 10.8706 71.3481 9.44435ZM72.2661 9.44435C72.2661 10.3994 72.7163 10.9741 73.4693 10.9741C74.2183 10.9741 74.6812 10.3911 74.6812 9.44826C74.6812 8.50978 74.2134 7.91847 73.4693 7.91847C72.7212 7.91847 72.2661 8.49708 72.2661 9.44435H72.2661Z" fill="white"/>
<path d="M79.2298 9.44429C79.2015 9.14837 79.2353 8.8498 79.3292 8.56773C79.423 8.28566 79.5748 8.02632 79.7747 7.80634C79.9746 7.58636 80.2183 7.41059 80.4902 7.29032C80.762 7.17004 81.056 7.10791 81.3533 7.10791C81.6506 7.10791 81.9446 7.17004 82.2164 7.29032C82.4883 7.41059 82.732 7.58636 82.9319 7.80634C83.1319 8.02632 83.2836 8.28566 83.3775 8.56773C83.4713 8.8498 83.5052 9.14837 83.4768 9.44429C83.5057 9.74051 83.4722 10.0395 83.3786 10.322C83.2851 10.6045 83.1334 10.8644 82.9334 11.0848C82.7334 11.3052 82.4895 11.4813 82.2174 11.6019C81.9453 11.7224 81.6509 11.7847 81.3533 11.7847C81.0557 11.7847 80.7613 11.7224 80.4892 11.6019C80.2171 11.4813 79.9732 11.3052 79.7732 11.0848C79.5732 10.8644 79.4216 10.6045 79.328 10.322C79.2344 10.0395 79.2009 9.74051 79.2298 9.44429ZM82.5628 9.44429C82.5628 8.46822 82.1243 7.89742 81.3548 7.89742C80.5823 7.89742 80.1478 8.46822 80.1478 9.4443C80.1478 10.4282 80.5823 10.9946 81.3548 10.9946C82.1243 10.9946 82.5628 10.4243 82.5628 9.44429Z" fill="white"/>
<path d="M84.6694 7.19487H85.5249V7.9102H85.5913C85.704 7.65328 85.894 7.43791 86.1348 7.2941C86.3757 7.15029 86.6555 7.08522 86.9351 7.10795C87.1542 7.09148 87.3742 7.12451 87.5788 7.20461C87.7834 7.2847 87.9673 7.40981 88.117 7.57065C88.2667 7.73149 88.3783 7.92396 88.4435 8.13378C88.5087 8.3436 88.5258 8.5654 88.4937 8.78275V11.6977H87.605V9.00591C87.605 8.28228 87.2905 7.92241 86.6333 7.92241C86.4846 7.91548 86.336 7.9408 86.198 7.99663C86.0599 8.05246 85.9356 8.13748 85.8335 8.24587C85.7313 8.35425 85.6539 8.48344 85.6063 8.62457C85.5588 8.7657 85.5423 8.91544 85.5581 9.06352V11.6978H84.6694V7.19487Z" fill="white"/>
<path d="M93.5151 6.07373V7.21533H94.4907V7.96387H93.5151V10.2793C93.5151 10.751 93.7095 10.9575 94.1519 10.9575C94.2651 10.9572 94.3783 10.9503 94.4907 10.937V11.6772C94.3311 11.7058 94.1694 11.721 94.0073 11.7226C93.019 11.7226 92.6255 11.375 92.6255 10.5068V7.96383H91.9106V7.21529H92.6255V6.07373H93.5151Z" fill="white"/>
<path d="M95.7046 5.43701H96.5854V7.91846H96.6558C96.7739 7.65914 96.9691 7.44255 97.2148 7.2982C97.4605 7.15386 97.7447 7.08877 98.0288 7.11182C98.2467 7.09996 98.4646 7.13635 98.6669 7.21839C98.8692 7.30043 99.0508 7.42611 99.199 7.58644C99.3471 7.74678 99.458 7.93783 99.5238 8.14597C99.5896 8.3541 99.6086 8.57419 99.5795 8.79053V11.6978H98.69V9.00976C98.69 8.29052 98.355 7.92626 97.7271 7.92626C97.5743 7.91374 97.4207 7.93473 97.2769 7.98779C97.1332 8.04084 97.0027 8.12467 96.8947 8.23341C96.7867 8.34214 96.7038 8.47316 96.6517 8.6173C96.5997 8.76144 96.5797 8.91521 96.5933 9.06786V11.6977H95.7046L95.7046 5.43701Z" fill="white"/>
<path d="M104.761 10.482C104.641 10.8935 104.379 11.2495 104.022 11.4877C103.666 11.7258 103.237 11.831 102.81 11.7847C102.514 11.7926 102.219 11.7357 101.946 11.6182C101.674 11.5007 101.43 11.3253 101.232 11.1041C101.034 10.883 100.887 10.6214 100.8 10.3376C100.713 10.0538 100.69 9.75451 100.73 9.46053C100.691 9.16564 100.715 8.86571 100.801 8.58104C100.888 8.29636 101.035 8.0336 101.231 7.81052C101.428 7.58745 101.671 7.40928 101.943 7.28807C102.214 7.16686 102.509 7.10545 102.806 7.10799C104.059 7.10799 104.815 7.96399 104.815 9.37799V9.68808H101.635V9.73788C101.621 9.90312 101.642 10.0695 101.696 10.2262C101.751 10.383 101.837 10.5267 101.95 10.6481C102.063 10.7696 102.2 10.8661 102.352 10.9315C102.504 10.9969 102.669 11.0297 102.835 11.0279C103.047 11.0534 103.263 11.0151 103.453 10.9179C103.644 10.8207 103.802 10.669 103.906 10.482L104.761 10.482ZM101.635 9.03084H103.91C103.921 8.87971 103.9 8.72791 103.85 8.58519C103.799 8.44247 103.718 8.31199 103.614 8.20213C103.51 8.09228 103.383 8.00547 103.243 7.9473C103.103 7.88912 102.953 7.86086 102.801 7.86434C102.648 7.8624 102.495 7.89126 102.353 7.94921C102.21 8.00715 102.081 8.09301 101.972 8.20172C101.864 8.31044 101.778 8.4398 101.72 8.5822C101.662 8.7246 101.633 8.87714 101.635 9.03084H101.635Z" fill="white"/>
</svg>
