<svg width="48" height="48" viewBox="0 0 48 48" fill="none" xmlns="http://www.w3.org/2000/svg">
<circle cx="24" cy="24" r="24" fill="white"/>
<path d="M28.5 31H18.82V30.06C18.82 29.26 18.96 28.5667 19.24 27.98C19.52 27.3933 19.88 26.8733 20.32 26.42C20.7733 25.9533 21.2667 25.5333 21.8 25.16C22.3467 24.7733 22.88 24.3933 23.4 24.02C23.7067 23.8067 23.9933 23.5867 24.26 23.36C24.54 23.1333 24.78 22.9 24.98 22.66C25.18 22.42 25.34 22.1733 25.46 21.92C25.58 21.6667 25.64 21.3933 25.64 21.1C25.64 20.58 25.48 20.1467 25.16 19.8C24.84 19.44 24.3733 19.26 23.76 19.26C23.1333 19.26 22.6133 19.4533 22.2 19.84C21.8 20.2133 21.6067 20.6867 21.62 21.26H18.86C18.86 20.5667 18.9867 19.9333 19.24 19.36C19.4933 18.7733 19.84 18.2733 20.28 17.86C20.72 17.4467 21.24 17.1267 21.84 16.9C22.4533 16.6733 23.1133 16.56 23.82 16.56C24.42 16.56 24.9933 16.6533 25.54 16.84C26.0867 17.0267 26.5667 17.3067 26.98 17.68C27.4067 18.04 27.7467 18.4933 28 19.04C28.2533 19.5867 28.38 20.22 28.38 20.94C28.38 21.5533 28.3067 22.1 28.16 22.58C28.0133 23.0467 27.8067 23.4733 27.54 23.86C27.2867 24.2467 26.9733 24.6067 26.6 24.94C26.24 25.2733 25.8333 25.6067 25.38 25.94C25.1533 26.1 24.9 26.2733 24.62 26.46C24.3533 26.6333 24.0867 26.82 23.82 27.02C23.5533 27.22 23.3067 27.4267 23.08 27.64C22.8667 27.8533 22.7133 28.0733 22.62 28.3H28.5V31Z" fill="black"/>
</svg>
