<svg width="48" height="48" viewBox="0 0 48 48" fill="none" xmlns="http://www.w3.org/2000/svg">
<circle cx="24" cy="24" r="24" fill="white"/>
<path d="M23.98 31.22C23.3 31.22 22.6467 31.12 22.02 30.92C21.4067 30.7067 20.8533 30.3933 20.36 29.98C19.88 29.5667 19.4867 29.0667 19.18 28.48C18.8867 27.88 18.7267 27.1867 18.7 26.4H21.42C21.4867 27.0933 21.7533 27.62 22.22 27.98C22.6867 28.34 23.2733 28.52 23.98 28.52C24.6067 28.52 25.12 28.36 25.52 28.04C25.92 27.72 26.1267 27.2867 26.14 26.74C26.14 26.14 25.9267 25.6733 25.5 25.34C25.0867 25.0067 24.5267 24.84 23.82 24.84H22.62V22.6H23.7C24.3667 22.6 24.8667 22.4467 25.2 22.14C25.5467 21.82 25.7267 21.4067 25.74 20.9C25.7533 20.4067 25.58 20.0133 25.22 19.72C24.86 19.4133 24.42 19.26 23.9 19.26C23.26 19.26 22.7333 19.4467 22.32 19.82C21.9067 20.1933 21.7067 20.6733 21.72 21.26H18.96C18.96 20.5267 19.1 19.8667 19.38 19.28C19.66 18.6933 20.0267 18.2 20.48 17.8C20.9467 17.4 21.4733 17.0933 22.06 16.88C22.66 16.6667 23.2733 16.56 23.9 16.56C24.6333 16.56 25.28 16.6733 25.84 16.9C26.4133 17.1133 26.8933 17.4067 27.28 17.78C27.68 18.1533 27.98 18.5933 28.18 19.1C28.3933 19.5933 28.5 20.12 28.5 20.68C28.5 21.3733 28.34 21.9867 28.02 22.52C27.7 23.0533 27.3333 23.46 26.92 23.74C27.4533 23.9933 27.9133 24.3933 28.3 24.94C28.7 25.4867 28.9 26.16 28.9 26.96C28.9 27.5867 28.78 28.16 28.54 28.68C28.3 29.2 27.9667 29.6533 27.54 30.04C27.1133 30.4133 26.5933 30.7067 25.98 30.92C25.38 31.12 24.7133 31.22 23.98 31.22Z" fill="black"/>
</svg>
