<svg width="104" height="50" viewBox="0 0 104 50" fill="none" xmlns="http://www.w3.org/2000/svg">
<path fill-rule="evenodd" clip-rule="evenodd" d="M104 3.27078V0H87.1158V3.27078H93.9518L93.9525 24H97.163L97.1623 3.27078H104ZM51.7276 14.0559V0.125977H48.517V14.0559L48.5195 14.3426C48.6244 20.5108 52.1353 23.8391 58.4816 23.8391C64.9153 23.8391 68.4763 20.424 68.5826 14.0838L68.5828 0.125977H65.3723V14.0559L65.3663 14.2943C65.2208 18.6229 63.1096 20.5684 58.4816 20.5684C53.7798 20.5684 51.7276 18.568 51.7276 14.0559ZM79.0158 0.125977V20.5684H86.2395V23.8391H75.8053V0.125977H79.0158ZM45.1775 23.8387L33.9375 0.125977H31.1411L21.0994 23.8387H24.5956L27.8479 16.1569H37.9699L41.6114 23.8387H45.1775ZM3.49787 0.125977L11.1429 18.1087L18.8715 0.125977H22.3766L12.1846 23.839H10.0809L0 0.125977H3.49787ZM29.2331 12.8877L32.625 4.88086L36.4191 12.8877H29.2331Z" fill="black"/>
<path d="M19.96 44.112C19.1813 44.112 18.4773 43.9787 17.848 43.712C17.2293 43.4453 16.7387 43.0613 16.376 42.56C16.0133 42.0587 15.8267 41.4667 15.816 40.784H18.216C18.248 41.2427 18.408 41.6053 18.696 41.872C18.9947 42.1387 19.4 42.272 19.912 42.272C20.4347 42.272 20.8453 42.1493 21.144 41.904C21.4427 41.648 21.592 41.3173 21.592 40.912C21.592 40.5813 21.4907 40.3093 21.288 40.096C21.0853 39.8827 20.8293 39.7173 20.52 39.6C20.2213 39.472 19.8053 39.3333 19.272 39.184C18.5467 38.9707 17.9547 38.7627 17.496 38.56C17.048 38.3467 16.6587 38.032 16.328 37.616C16.008 37.1893 15.848 36.624 15.848 35.92C15.848 35.2587 16.0133 34.6827 16.344 34.192C16.6747 33.7013 17.1387 33.328 17.736 33.072C18.3333 32.8053 19.016 32.672 19.784 32.672C20.936 32.672 21.8693 32.9547 22.584 33.52C23.3093 34.0747 23.7093 34.8533 23.784 35.856H21.32C21.2987 35.472 21.1333 35.1573 20.824 34.912C20.5253 34.656 20.1253 34.528 19.624 34.528C19.1867 34.528 18.8347 34.64 18.568 34.864C18.312 35.088 18.184 35.4133 18.184 35.84C18.184 36.1387 18.28 36.3893 18.472 36.592C18.6747 36.784 18.92 36.944 19.208 37.072C19.5067 37.1893 19.9227 37.328 20.456 37.488C21.1813 37.7013 21.7733 37.9147 22.232 38.128C22.6907 38.3413 23.0853 38.6613 23.416 39.088C23.7467 39.5147 23.912 40.0747 23.912 40.768C23.912 41.3653 23.7573 41.92 23.448 42.432C23.1387 42.944 22.6853 43.3547 22.088 43.664C21.4907 43.9627 20.7813 44.112 19.96 44.112ZM33.454 32.832V34.64H30.478V44H28.238V34.64H25.262V32.832H33.454ZM40.2724 44.112C39.227 44.112 38.267 43.8667 37.3924 43.376C36.5177 42.8853 35.8244 42.208 35.3124 41.344C34.8004 40.4693 34.5444 39.4827 34.5444 38.384C34.5444 37.296 34.8004 36.32 35.3124 35.456C35.8244 34.5813 36.5177 33.8987 37.3924 33.408C38.267 32.9173 39.227 32.672 40.2724 32.672C41.3284 32.672 42.2884 32.9173 43.1524 33.408C44.027 33.8987 44.715 34.5813 45.2164 35.456C45.7284 36.32 45.9844 37.296 45.9844 38.384C45.9844 39.4827 45.7284 40.4693 45.2164 41.344C44.715 42.208 44.027 42.8853 43.1524 43.376C42.2777 43.8667 41.3177 44.112 40.2724 44.112ZM40.2724 42.112C40.9444 42.112 41.5364 41.9627 42.0484 41.664C42.5604 41.3547 42.9604 40.9173 43.2484 40.352C43.5364 39.7867 43.6804 39.1307 43.6804 38.384C43.6804 37.6373 43.5364 36.9867 43.2484 36.432C42.9604 35.8667 42.5604 35.4347 42.0484 35.136C41.5364 34.8373 40.9444 34.688 40.2724 34.688C39.6004 34.688 39.003 34.8373 38.4804 35.136C37.9684 35.4347 37.5684 35.8667 37.2804 36.432C36.9924 36.9867 36.8484 37.6373 36.8484 38.384C36.8484 39.1307 36.9924 39.7867 37.2804 40.352C37.5684 40.9173 37.9684 41.3547 38.4804 41.664C39.003 41.9627 39.6004 42.112 40.2724 42.112ZM53.4109 44L50.9469 39.648H49.8909V44H47.6509V32.832H51.8429C52.7069 32.832 53.4429 32.9867 54.0509 33.296C54.6589 33.5947 55.1122 34.0053 55.4109 34.528C55.7202 35.04 55.8749 35.616 55.8749 36.256C55.8749 36.992 55.6615 37.6587 55.2349 38.256C54.8082 38.8427 54.1735 39.248 53.3309 39.472L56.0029 44H53.4109ZM49.8909 37.968H51.7629C52.3709 37.968 52.8242 37.824 53.1229 37.536C53.4215 37.2373 53.5709 36.8267 53.5709 36.304C53.5709 35.792 53.4215 35.3973 53.1229 35.12C52.8242 34.832 52.3709 34.688 51.7629 34.688H49.8909V37.968ZM64.7489 41.872H60.3009L59.5649 44H57.2129L61.2289 32.816H63.8369L67.8529 44H65.4849L64.7489 41.872ZM64.1409 40.08L62.5249 35.408L60.9089 40.08H64.1409ZM77.13 36.192C76.874 35.7227 76.522 35.3653 76.074 35.12C75.626 34.8747 75.1033 34.752 74.506 34.752C73.8447 34.752 73.258 34.9013 72.746 35.2C72.234 35.4987 71.834 35.9253 71.546 36.48C71.258 37.0347 71.114 37.6747 71.114 38.4C71.114 39.1467 71.258 39.7973 71.546 40.352C71.8447 40.9067 72.2553 41.3333 72.778 41.632C73.3007 41.9307 73.9087 42.08 74.602 42.08C75.4553 42.08 76.154 41.856 76.698 41.408C77.242 40.9493 77.5993 40.3147 77.77 39.504H73.93V37.792H79.978V39.744C79.8287 40.5227 79.5087 41.2427 79.018 41.904C78.5273 42.5653 77.8927 43.0987 77.114 43.504C76.346 43.8987 75.482 44.096 74.522 44.096C73.4447 44.096 72.4687 43.856 71.594 43.376C70.73 42.8853 70.0473 42.208 69.546 41.344C69.0553 40.48 68.81 39.4987 68.81 38.4C68.81 37.3013 69.0553 36.32 69.546 35.456C70.0473 34.5813 70.73 33.904 71.594 33.424C72.4687 32.9333 73.4393 32.688 74.506 32.688C75.7647 32.688 76.858 32.9973 77.786 33.616C78.714 34.224 79.354 35.0827 79.706 36.192H77.13ZM83.8753 34.64V37.44H87.6353V39.216H83.8753V42.176H88.1153V44H81.6353V32.816H88.1153V34.64H83.8753Z" fill="black"/>
</svg>
