<svg width="135" height="36" viewBox="0 0 135 36" fill="none" xmlns="http://www.w3.org/2000/svg">
<rect width="135" height="36" rx="2" fill="black"/>
<path d="M47.4185 8.24334C47.4185 9.0811 47.1704 9.74826 46.6735 10.2459C46.1091 10.8377 45.3735 11.1338 44.4692 11.1338C43.6031 11.1338 42.8668 10.8338 42.2613 10.233C41.6547 9.63267 41.3521 8.88821 41.3521 7.99996C41.3521 7.1113 41.6547 6.36724 42.2613 5.76647C42.8668 5.16611 43.6031 4.86572 44.4692 4.86572C44.8989 4.86572 45.3103 4.94972 45.7009 5.11731C46.0915 5.2853 46.4048 5.50829 46.6392 5.78757L46.1118 6.31525C45.7146 5.84067 45.1677 5.60358 44.4692 5.60358C43.8375 5.60358 43.2915 5.82547 42.8305 6.26955C42.3695 6.71412 42.1391 7.29059 42.1391 7.99996C42.1391 8.70932 42.3695 9.28579 42.8305 9.73036C43.2915 10.1744 43.8375 10.3963 44.4692 10.3963C45.1392 10.3963 45.6978 10.1732 46.145 9.72646C46.4353 9.43538 46.6032 9.0308 46.6481 8.51123H44.4692V7.79057H47.3767C47.4048 7.94726 47.4185 8.09765 47.4185 8.24334Z" fill="white"/>
<path d="M47.4184 8.24335H47.3184C47.3176 9.06203 47.0785 9.69792 46.6027 10.1753L46.6016 10.1761L46.6012 10.1769C46.0547 10.7483 45.3523 11.0327 44.4691 11.0339C43.6262 11.0327 42.9207 10.7452 42.3316 10.1624C41.7438 9.57842 41.4531 8.86554 41.452 7.99996C41.4531 7.13397 41.7438 6.42149 42.3316 5.8379C42.9207 5.25471 43.6262 4.96682 44.4691 4.96562C44.8859 4.96562 45.2828 5.04692 45.6613 5.20902C46.0402 5.37231 46.3395 5.58631 46.5625 5.852L46.6391 5.7875L46.5684 5.7168L46.041 6.24489L46.1117 6.31519L46.1887 6.25119C45.773 5.7531 45.1895 5.50201 44.4691 5.50351C43.8141 5.50271 43.2379 5.7367 42.7613 6.19769C42.2801 6.66018 42.0383 7.26907 42.0391 7.99996C42.0383 8.73084 42.2801 9.33973 42.7613 9.80222C43.2379 10.2632 43.8141 10.4972 44.4691 10.4964C45.1613 10.4976 45.7512 10.2628 46.2156 9.79722C46.5258 9.48622 46.7016 9.05543 46.7477 8.51984L46.757 8.41125H44.5691V7.89056H47.3766V7.79056L47.2781 7.80816C47.3055 7.95976 47.3184 8.10385 47.3184 8.24335H47.4184H47.5184C47.5184 8.09135 47.5043 7.93516 47.475 7.77266L47.4602 7.69056H44.3691V8.51125V8.61124H46.648V8.51125L46.5484 8.50265C46.5043 9.00583 46.3441 9.38472 46.0742 9.65582C45.6445 10.0839 45.1172 10.2952 44.4691 10.2964C43.8609 10.2956 43.3449 10.0862 42.9 9.65852C42.4594 9.23233 42.2402 8.68824 42.2391 7.99996C42.2402 7.31167 42.4594 6.76758 42.9 6.34139C43.3449 5.9137 43.8609 5.70431 44.4691 5.70351C45.1453 5.70511 45.6559 5.9285 46.0352 6.37969L46.1055 6.46329L46.7098 5.8582L46.7746 5.7934L46.7156 5.72341C46.4699 5.43051 46.1426 5.19802 45.7402 5.02542C45.3371 4.85232 44.9117 4.76563 44.4691 4.76563C43.5801 4.76483 42.8129 5.07732 42.1906 5.69571C41.566 6.31289 41.2512 7.08868 41.252 7.99996C41.2512 8.91084 41.566 9.68702 42.191 10.3046C42.8129 10.9226 43.5801 11.2347 44.4691 11.2339C45.3949 11.2347 46.1629 10.9272 46.7457 10.3151L46.6734 10.246L46.7441 10.3167C47.2621 9.79912 47.5191 9.09993 47.5184 8.24335H47.4184Z" fill="white"/>
<path d="M52.0276 5.7371H49.2952V7.6395H51.7593V8.3605H49.2952V10.2629H52.0276V11H48.5249V5H52.0276V5.7371Z" fill="white"/>
<path d="M52.0275 5.73703V5.63703H49.1951V7.73949H51.6592V8.26021L49.1951 8.26051V10.363H51.9275V10.9001H48.6248V5.09991H51.9275V5.73703H52.0275V5.63703V5.73703H52.1275V4.99991V4.8999H48.4248V11.1001H52.1275V10.263V10.163H49.3951V8.46052H51.8592V7.63949V7.53948H49.3951V5.83703H52.1275V5.73703H52.0275Z" fill="white"/>
<path d="M55.2788 11H54.5073V5.7371H52.8315V5H56.9546V5.7371H55.2788V11Z" fill="white"/>
<path d="M55.2788 11.0001V10.9001H54.6073V5.63703H52.9314V5.09991H56.8546V5.63703H55.1788V11.0001H55.2788V10.9001V11.0001H55.3788V5.83703H57.0546V4.99991V4.8999H52.7314V5.73703V5.83703H54.4073V11.1001H55.2788H55.3788V11.0001H55.2788Z" fill="white"/>
<path d="M59.938 11V5H60.7087V11H59.938Z" fill="white"/>
<path d="M59.9379 11.0001H60.0379V5.09991H60.6086V10.9001H59.9379V11.0001H60.0379H59.9379V11.1001H60.7086H60.8086V4.8999H59.9379H59.8379V11.1001H59.9379V11.0001Z" fill="white"/>
<path d="M64.1283 11H63.3568V5.7371H61.6812V5H65.8041V5.7371H64.1283V11Z" fill="white"/>
<path d="M64.1287 11.0001V10.9001H63.4572V5.63703H61.7815V5.09991H65.7045V5.63703H64.0287V11.0001H64.1287V10.9001V11.0001H64.2287V5.83703H65.9045V4.99991V4.8999H61.5815V5.73703V5.83703H63.2572V11.1001H64.1287H64.2287V11.0001H64.1287Z" fill="white"/>
<path d="M69.7793 9.72216C70.2234 10.1717 70.7668 10.3963 71.4094 10.3963C72.052 10.3963 72.5957 10.1717 73.0391 9.72216C73.4835 9.27259 73.7062 8.69792 73.7062 7.99996C73.7062 7.30199 73.4835 6.72732 73.0391 6.27775C72.5957 5.82817 72.052 5.60358 71.4094 5.60358C70.7668 5.60358 70.2234 5.82817 69.7793 6.27775C69.3359 6.72732 69.1133 7.30199 69.1133 7.99996C69.1133 8.69792 69.3359 9.27259 69.7793 9.72216ZM73.6093 10.2244C73.0195 10.831 72.2859 11.1338 71.4094 11.1338C70.532 11.1338 69.7988 10.831 69.2102 10.2244C68.6199 9.61857 68.3262 8.87691 68.3262 7.99996C68.3262 7.123 68.6199 6.38124 69.2102 5.77547C69.7988 5.16881 70.532 4.86572 71.4094 4.86572C72.2813 4.86572 73.0129 5.17041 73.6054 5.77937C74.1972 6.38834 74.4933 7.1285 74.4933 7.99996C74.4933 8.87691 74.1979 9.61857 73.6093 10.2244Z" fill="white"/>
<path d="M69.7792 9.72222L69.7081 9.79252C70.1687 10.2601 70.7433 10.4976 71.4093 10.4964C72.0749 10.4976 72.6503 10.2601 73.1101 9.79252C73.5737 9.32453 73.8069 8.71904 73.8062 7.99996C73.8069 7.28087 73.5737 6.67539 73.1101 6.2074C72.6503 5.73981 72.0749 5.50231 71.4093 5.50351C70.7433 5.50231 70.1687 5.73981 69.7081 6.2074C69.2456 6.67539 69.012 7.28087 69.0132 7.99996C69.012 8.71904 69.2456 9.32453 69.7081 9.79252L69.7792 9.72222L69.8503 9.65192C69.4261 9.22023 69.214 8.67724 69.2132 7.99996C69.214 7.32267 69.4261 6.77968 69.8503 6.34799C70.2784 5.9164 70.7897 5.70471 71.4093 5.70351C72.0284 5.70471 72.5409 5.9164 72.9679 6.34799C73.3929 6.77968 73.605 7.32267 73.6058 7.99996C73.605 8.67724 73.3929 9.22023 72.9679 9.65192C72.5409 10.0835 72.0284 10.2952 71.4093 10.2964C70.7897 10.2952 70.2784 10.0835 69.8503 9.65192L69.7792 9.72222ZM73.6093 10.2245L73.5378 10.155C72.9644 10.7425 72.2632 11.0327 71.4093 11.0339C70.555 11.0327 69.8538 10.7425 69.2815 10.155L69.2788 10.1519L69.2815 10.155C68.7093 9.56552 68.4269 8.85464 68.4261 7.99996C68.4269 7.14528 68.7093 6.43439 69.2815 5.8449C69.8538 5.25742 70.555 4.96682 71.4093 4.96562C72.2577 4.96682 72.9573 5.25862 73.5339 5.8492C74.1081 6.44139 74.3921 7.15117 74.3933 7.99996C74.3921 8.85464 74.1089 9.56552 73.5378 10.155L73.6093 10.2245L73.6812 10.294C74.2874 9.67142 74.594 8.89914 74.5933 7.99996C74.594 7.10588 74.2862 6.33519 73.6772 5.70981C73.0679 5.08202 72.3046 4.76453 71.4093 4.76563C70.5093 4.76453 69.7437 5.08052 69.1382 5.70591V5.70551C68.5308 6.32849 68.2253 7.10078 68.2261 7.99996C68.2253 8.89914 68.5308 9.67142 69.1382 10.2944L69.1409 10.2972L69.1382 10.294C69.7437 10.9194 70.5093 11.2347 71.4093 11.2339C72.3089 11.2347 73.0745 10.9194 73.6812 10.294L73.6093 10.2245Z" fill="white"/>
<path d="M75.5752 11V5H76.5135L79.4295 9.6676H79.4627L79.4295 8.5113V5H80.201V11H79.3963L76.3455 6.1062H76.3123L76.3455 7.2629V11H75.5752Z" fill="white"/>
<path d="M75.5756 11.0001H75.6756V5.09991H76.4584L79.3744 9.76766H79.4631H79.5658L79.5299 8.50982V5.09991H80.1014V10.9001H79.4522L76.4014 6.00614H76.3127H76.21L76.2459 7.26448V10.9001H75.5756V11.0001H75.6756H75.5756V11.1001H76.3459H76.4459V7.26128L76.4127 6.10344L76.3127 6.10614V6.20614H76.3459V6.10614L76.2611 6.15934L79.3412 11.1001H80.2014H80.3014V4.8999H79.4299H79.3299V8.51252L79.3631 9.67035L79.4631 9.66765V9.56765H79.4299V9.66765L79.5147 9.61455L76.5693 4.8999H75.5756H75.4756V11.1001H75.5756V11.0001Z" fill="white"/>
<path d="M106.936 28H108.802V15.4988H106.936V28ZM123.743 20.002L121.604 25.4219H121.54L119.32 20.002H117.31L120.639 27.5773L118.741 31.791H120.688L125.818 20.002H123.743ZM113.161 26.5801C112.549 26.5801 111.697 26.2746 111.697 25.5184C111.697 24.5535 112.759 24.1836 113.675 24.1836C114.496 24.1836 114.881 24.3605 115.38 24.602C115.235 25.7598 114.238 26.5801 113.161 26.5801ZM113.386 19.7285C112.035 19.7285 110.636 20.3238 110.057 21.6426L111.713 22.334C112.067 21.6426 112.726 21.4172 113.418 21.4172C114.383 21.4172 115.364 21.9965 115.38 23.0258V23.1543C115.042 22.9613 114.319 22.6719 113.434 22.6719C111.649 22.6719 109.831 23.6527 109.831 25.4863C109.831 27.159 111.295 28.2367 112.935 28.2367C114.19 28.2367 114.881 27.6738 115.316 27.0145H115.38V27.9793H117.181V23.1863C117.181 20.9672 115.525 19.7285 113.386 19.7285ZM101.854 21.5238H99.2002V17.2387H101.854C103.249 17.2387 104.041 18.3937 104.041 19.3812C104.041 20.35 103.249 21.5238 101.854 21.5238ZM101.806 15.4988H97.3352V28H99.2002V23.2637H101.806C103.874 23.2637 105.907 21.7664 105.907 19.3812C105.907 16.9961 103.874 15.4988 101.806 15.4988ZM77.4252 26.5824C76.1361 26.5824 75.0568 25.5031 75.0568 24.0207C75.0568 22.5227 76.1361 21.427 77.4252 21.427C78.6979 21.427 79.6967 22.5227 79.6967 24.0207C79.6967 25.5031 78.6979 26.5824 77.4252 26.5824ZM79.5678 20.702H79.5033C79.0846 20.2027 78.2787 19.7516 77.2639 19.7516C75.1373 19.7516 73.1881 21.6203 73.1881 24.0207C73.1881 26.4051 75.1373 28.2578 77.2639 28.2578C78.2787 28.2578 79.0846 27.8066 79.5033 27.2914H79.5678V27.9035C79.5678 29.5309 78.6979 30.4008 77.2963 30.4008C76.1525 30.4008 75.4436 29.5789 75.1533 28.8863L73.5264 29.5629C73.9936 30.6906 75.2342 32.0762 77.2963 32.0762C79.4873 32.0762 81.34 30.7871 81.34 27.6457V20.0094H79.5678V20.702ZM82.6287 28H84.4975V15.4984H82.6287V28ZM87.2525 23.8758C87.2041 22.2324 88.5252 21.3949 89.4756 21.3949C90.2172 21.3949 90.8452 21.7652 91.0542 22.2973L87.2525 23.8758ZM93.0522 22.4582C92.6982 21.5074 91.6182 19.7516 89.4111 19.7516C87.2201 19.7516 85.3998 21.4754 85.3998 24.0047C85.3998 26.3891 87.2041 28.2578 89.6205 28.2578C91.5702 28.2578 92.6982 27.0656 93.1652 26.373L91.7152 25.4062C91.2322 26.1152 90.5712 26.5824 89.6205 26.5824C88.6701 26.5824 87.9936 26.1473 87.5584 25.2937L93.2452 22.9414L93.0522 22.4582ZM47.744 21.0566V22.8609H52.0615C51.9326 23.8758 51.5943 24.6168 51.0787 25.1324C50.4506 25.7609 49.4678 26.4535 47.744 26.4535C45.0857 26.4535 43.0076 24.3109 43.0076 21.6527C43.0076 18.9945 45.0857 16.8516 47.744 16.8516C49.1779 16.8516 50.2248 17.4156 50.9982 18.1406L52.2709 16.868C51.1916 15.8367 49.7576 15.0473 47.744 15.0473C44.1029 15.0473 41.042 18.0117 41.042 21.6527C41.042 25.2937 44.1029 28.2578 47.744 28.2578C49.7096 28.2578 51.1916 27.6137 52.3514 26.4051C53.5436 25.2129 53.9143 23.5375 53.9143 22.1844C53.9143 21.7652 53.8822 21.3789 53.8174 21.0566H47.744ZM58.8229 26.5824C57.5338 26.5824 56.4221 25.5191 56.4221 24.0047C56.4221 22.4742 57.5338 21.427 58.8229 21.427C60.1115 21.427 61.2232 22.4742 61.2232 24.0047C61.2232 25.5191 60.1115 26.5824 58.8229 26.5824ZM58.8229 19.7516C56.4705 19.7516 54.5533 21.5398 54.5533 24.0047C54.5533 26.4535 56.4705 28.2578 58.8229 28.2578C61.1748 28.2578 63.092 26.4535 63.092 24.0047C63.092 21.5398 61.1748 19.7516 58.8229 19.7516ZM68.1361 26.5824C66.8475 26.5824 65.7357 25.5191 65.7357 24.0047C65.7357 22.4742 66.8475 21.427 68.1361 21.427C69.4248 21.427 70.5365 22.4742 70.5365 24.0047C70.5365 25.5191 69.4248 26.5824 68.1361 26.5824ZM68.1361 19.7516C65.7838 19.7516 63.867 21.5398 63.867 24.0047C63.867 26.4535 65.7838 28.2578 68.1361 28.2578C70.4881 28.2578 72.4053 26.4535 72.4053 24.0047C72.4053 21.5398 70.4881 19.7516 68.1361 19.7516Z" fill="white"/>
<path d="M10.5098 30.3896L10.4355 30.3185C10.1445 30.0106 9.97266 29.5325 9.97266 28.9134V29.0591V6.94315C9.97266 6.94115 9.97266 6.93965 9.97266 6.93805C9.97266 6.93995 9.97266 6.94155 9.97266 6.94355V7.08965C9.97266 6.41925 10.173 5.91425 10.5086 5.61145L22.8984 18.0009L10.5098 30.3896ZM9.97266 6.93685C9.97266 6.88175 9.97416 6.82825 9.97696 6.77555C9.97416 6.82785 9.97266 6.88175 9.97266 6.93685ZM9.97696 6.77315C9.97696 6.77245 9.97696 6.77165 9.97726 6.77085C9.97696 6.77165 9.97696 6.77245 9.97696 6.77315ZM9.97726 6.76615C9.97726 6.76575 9.97726 6.76535 9.97726 6.76495C9.97726 6.76535 9.97726 6.76575 9.97726 6.76615Z" fill="url(#paint0_linear)"/>
<path d="M27.0277 22.2783L27.1219 22.2248L32.0148 19.4447C32.4813 19.1795 32.7922 18.858 32.9473 18.5178C32.7926 18.858 32.4816 19.1799 32.0148 19.4451L27.1219 22.2252L27.0277 22.2783ZM27.0289 22.1318L22.8984 18.0006L27.0285 13.8701L32.0148 16.7029C32.648 17.0627 33.0035 17.5264 33.0629 18.0002C33.0629 18.0006 33.0629 18.0014 33.0629 18.0021C33.0035 18.4748 32.648 18.9389 32.0148 19.2986L27.0289 22.1318Z" fill="url(#paint1_linear)"/>
<path d="M11.3931 30.8613C11.047 30.8613 10.745 30.7488 10.5095 30.5363L10.5099 30.5359C10.7454 30.7484 11.0478 30.8613 11.3939 30.8613C11.4239 30.8613 11.4544 30.8605 11.4853 30.859C11.454 30.8605 11.4231 30.8613 11.3931 30.8613ZM11.3935 30.7148C11.0474 30.7152 10.7454 30.6023 10.5099 30.3898V30.3895L22.8985 18.0005L27.029 22.1318L12.5138 30.3793C12.1122 30.607 11.7317 30.7148 11.3935 30.7148ZM10.5064 30.5336C10.4845 30.5137 10.463 30.4926 10.4419 30.4707L10.5064 30.5336Z" fill="url(#paint2_linear)"/>
<path d="M22.8986 18.0005L10.5088 5.61131C10.7443 5.39922 11.0459 5.28672 11.3916 5.28672C11.7307 5.28672 12.1115 5.39492 12.5139 5.62301L27.0287 13.8701L22.8986 18.0005ZM27.1221 13.7768L12.5139 5.47701C12.1115 5.24882 11.7307 5.14062 11.3916 5.14062C11.39 5.14062 11.3889 5.14062 11.3873 5.14062C11.3893 5.14062 11.3908 5.14062 11.3932 5.14062C11.7315 5.14062 12.1119 5.24842 12.5139 5.47661L27.1221 13.7768Z" fill="url(#paint3_linear)"/>
<path d="M11.4852 30.8589C11.7996 30.8409 12.1477 30.7327 12.5137 30.5253L27.0278 22.2783L12.5137 30.5253C12.148 30.7331 11.7996 30.8409 11.4852 30.8589ZM10.5094 30.5362L10.5063 30.5335C10.5074 30.5343 10.5086 30.5354 10.5094 30.5362ZM10.4418 30.4706L10.4355 30.4644V30.464C10.4379 30.4663 10.4398 30.4686 10.4418 30.4706Z" fill="black"/>
<path d="M27.0278 22.2783L27.122 22.2251L27.0278 22.2783Z" fill="url(#paint4_linear)"/>
<path d="M11.3938 30.8613C11.0477 30.8613 10.7453 30.7484 10.5098 30.5359L10.5094 30.5363C10.5086 30.5355 10.5074 30.5344 10.5063 30.5336L10.4418 30.4707C10.4398 30.4687 10.4379 30.4664 10.4355 30.4641L10.5098 30.3898C10.7453 30.6023 11.0473 30.7152 11.3934 30.7148C11.7316 30.7148 12.1121 30.607 12.5137 30.3793L27.0289 22.1318L27.1219 22.2248L27.0277 22.2783L12.5137 30.5254C12.1477 30.7328 11.7996 30.841 11.4852 30.859C11.4543 30.8605 11.4238 30.8613 11.3938 30.8613Z" fill="url(#paint5_linear)"/>
<path d="M10.4355 30.4644C10.1445 30.1565 9.97266 29.6785 9.97266 29.0595V29.0591C9.97266 29.6785 10.1445 30.1561 10.4355 30.464V30.4644Z" fill="black"/>
<path d="M10.4355 30.4639C10.1445 30.156 9.97266 29.6783 9.97266 29.0588V28.9131C9.97266 29.5322 10.1445 30.0103 10.4355 30.3182L10.5098 30.3893L10.4355 30.4639Z" fill="url(#paint6_linear)"/>
<path d="M10.4355 30.4639L10.5098 30.3896V30.3899L10.4355 30.4639Z" fill="url(#paint7_linear)"/>
<path d="M32.9473 18.5181C33.0242 18.3492 33.0629 18.1757 33.0629 18.0022C33.0629 18.0019 33.0629 18.0015 33.0629 18.0015C33.0629 18.1753 33.0242 18.3488 32.9473 18.5181Z" fill="black"/>
<path d="M27.1218 22.2251L27.0288 22.1321L32.0148 19.2986C32.648 18.9389 33.0035 18.4747 33.0629 18.002C33.0629 18.1755 33.0242 18.3489 32.9473 18.5177C32.7922 18.8579 32.4813 19.1795 32.0148 19.4447L27.1218 22.2251Z" fill="url(#paint8_linear)"/>
<path d="M33.063 18.0005V18.0001C33.0626 17.477 32.713 16.954 32.0149 16.5571L27.122 13.7772H27.1216L27.122 13.7769L32.0149 16.5567C32.7138 16.9536 33.0638 17.4774 33.063 18.0005Z" fill="#404040"/>
<path d="M33.0627 18.0005C33.0033 17.5267 32.6478 17.063 32.0146 16.7032L27.0283 13.8704L27.1213 13.7774H27.1217L32.0146 16.5575C32.7127 16.9544 33.0623 17.4774 33.0627 18.0005Z" fill="url(#paint9_linear)"/>
<path d="M9.97266 6.93799C9.97266 6.93759 9.97266 6.93719 9.97266 6.93679C9.97266 6.93719 9.97266 6.93759 9.97266 6.93799ZM9.97696 6.77549C9.97696 6.77469 9.97696 6.77389 9.97696 6.77309C9.97696 6.77389 9.97696 6.77469 9.97696 6.77549ZM9.97726 6.77079C9.97726 6.76919 9.97726 6.76769 9.97726 6.76609C9.97726 6.76769 9.97726 6.76919 9.97726 6.77079ZM9.97726 6.76489C10.0352 5.73759 10.5938 5.14419 11.384 5.14069C11.0414 5.14269 10.743 5.25519 10.5094 5.46569V5.46529L10.5066 5.46809C10.482 5.49029 10.4586 5.51379 10.4355 5.53799C10.173 5.81569 10.0074 6.23169 9.97726 6.76489Z" fill="#404040"/>
<path d="M9.97266 7.08936V6.94324C9.97266 6.94124 9.97266 6.93964 9.97266 6.93774C9.97266 6.93734 9.97266 6.93694 9.97266 6.93654C9.97266 6.88143 9.97416 6.82752 9.97696 6.77522C9.97696 6.77441 9.97696 6.77362 9.97696 6.77282C9.97696 6.77212 9.97696 6.77131 9.97726 6.77051C9.97726 6.76891 9.97726 6.76741 9.97726 6.76581C9.97726 6.76541 9.97726 6.76501 9.97726 6.76461C10.0074 6.23134 10.1729 5.81529 10.4354 5.53755L10.5085 5.61096C10.1729 5.9138 9.97266 6.41887 9.97266 7.08936ZM10.5065 5.46764L10.5093 5.46484C10.5085 5.46604 10.5073 5.46684 10.5065 5.46764Z" fill="url(#paint10_linear)"/>
<path d="M27.0285 13.8701L12.5137 5.62301C12.1113 5.39492 11.7305 5.28672 11.3914 5.28672C11.0457 5.28672 10.7441 5.39922 10.5086 5.61131L10.4355 5.53792C10.4586 5.51372 10.482 5.49022 10.5066 5.46802C10.5074 5.46722 10.5086 5.46642 10.5094 5.46562C10.743 5.25512 11.0414 5.14263 11.384 5.14063C11.3848 5.14063 11.3859 5.14063 11.3871 5.14063C11.3887 5.14063 11.3898 5.14063 11.3914 5.14063C11.7305 5.14063 12.1113 5.24882 12.5137 5.47702L27.1219 13.7768L27.1215 13.7771L27.0285 13.8701Z" fill="url(#paint11_linear)"/>
<defs>
<linearGradient id="paint0_linear" x1="21.7998" y1="6.70985" x2="5.01726" y2="23.4924" gradientUnits="userSpaceOnUse">
<stop stop-color="#00A0FF"/>
<stop offset="0.00657445" stop-color="#00A1FF"/>
<stop offset="0.2601" stop-color="#00BEFF"/>
<stop offset="0.5122" stop-color="#00D2FF"/>
<stop offset="0.7604" stop-color="#00DFFF"/>
<stop offset="1" stop-color="#00E3FF"/>
</linearGradient>
<linearGradient id="paint1_linear" x1="33.8344" y1="18.0012" x2="9.63745" y2="18.0012" gradientUnits="userSpaceOnUse">
<stop stop-color="#FFE000"/>
<stop offset="0.4087" stop-color="#FFBD00"/>
<stop offset="0.7754" stop-color="#FFA500"/>
<stop offset="1" stop-color="#FF9C00"/>
</linearGradient>
<linearGradient id="paint2_linear" x1="24.8271" y1="20.2958" x2="2.06819" y2="43.0541" gradientUnits="userSpaceOnUse">
<stop stop-color="#FF3A44"/>
<stop offset="1" stop-color="#C31162"/>
</linearGradient>
<linearGradient id="paint3_linear" x1="7.29749" y1="-1.82359" x2="17.4597" y2="8.33889" gradientUnits="userSpaceOnUse">
<stop stop-color="#32A071"/>
<stop offset="0.0685" stop-color="#2DA771"/>
<stop offset="0.4762" stop-color="#15CF74"/>
<stop offset="0.8009" stop-color="#06E775"/>
<stop offset="1" stop-color="#00F076"/>
</linearGradient>
<linearGradient id="paint4_linear" x1="33.8329" y1="18.0234" x2="9.64173" y2="18.0234" gradientUnits="userSpaceOnUse">
<stop stop-color="#CCB300"/>
<stop offset="0.4087" stop-color="#CC9700"/>
<stop offset="0.7754" stop-color="#CC8400"/>
<stop offset="1" stop-color="#CC7D00"/>
</linearGradient>
<linearGradient id="paint5_linear" x1="24.827" y1="20.2959" x2="2.06825" y2="43.0542" gradientUnits="userSpaceOnUse">
<stop stop-color="#CC2E36"/>
<stop offset="1" stop-color="#9C0E4E"/>
</linearGradient>
<linearGradient id="paint6_linear" x1="21.7998" y1="6.70946" x2="5.01725" y2="23.492" gradientUnits="userSpaceOnUse">
<stop stop-color="#008DE0"/>
<stop offset="0.00657445" stop-color="#008DE0"/>
<stop offset="0.2601" stop-color="#00A7E0"/>
<stop offset="0.5122" stop-color="#00B8E0"/>
<stop offset="0.7604" stop-color="#00C4E0"/>
<stop offset="1" stop-color="#00C7E0"/>
</linearGradient>
<linearGradient id="paint7_linear" x1="24.8231" y1="20.3478" x2="2.18141" y2="43.0997" gradientUnits="userSpaceOnUse">
<stop stop-color="#E0333C"/>
<stop offset="1" stop-color="#AB0F56"/>
</linearGradient>
<linearGradient id="paint8_linear" x1="33.8344" y1="18.0011" x2="9.63714" y2="18.0011" gradientUnits="userSpaceOnUse">
<stop stop-color="#E0C500"/>
<stop offset="0.4087" stop-color="#E0A600"/>
<stop offset="0.7754" stop-color="#E09100"/>
<stop offset="1" stop-color="#E08900"/>
</linearGradient>
<linearGradient id="paint9_linear" x1="33.8342" y1="18.0015" x2="9.63723" y2="18.0015" gradientUnits="userSpaceOnUse">
<stop stop-color="#FFE840"/>
<stop offset="0.4087" stop-color="#FFCE40"/>
<stop offset="0.7754" stop-color="#FFBC40"/>
<stop offset="1" stop-color="#FFB540"/>
</linearGradient>
<linearGradient id="paint10_linear" x1="21.7994" y1="6.70951" x2="5.01468" y2="23.4914" gradientUnits="userSpaceOnUse">
<stop stop-color="#40B8FF"/>
<stop offset="0.00657445" stop-color="#40B9FF"/>
<stop offset="0.2601" stop-color="#40CEFF"/>
<stop offset="0.5122" stop-color="#40DDFF"/>
<stop offset="0.7604" stop-color="#40E7FF"/>
<stop offset="1" stop-color="#40EAFF"/>
</linearGradient>
<linearGradient id="paint11_linear" x1="7.29735" y1="-1.82361" x2="17.4596" y2="8.33889" gradientUnits="userSpaceOnUse">
<stop stop-color="#65B895"/>
<stop offset="0.0685" stop-color="#62BD95"/>
<stop offset="0.4762" stop-color="#50DB97"/>
<stop offset="0.8009" stop-color="#44ED98"/>
<stop offset="1" stop-color="#40F498"/>
</linearGradient>
</defs>
</svg>
