<svg width="160" height="36" viewBox="0 0 160 36" fill="none" xmlns="http://www.w3.org/2000/svg">
<rect width="160" height="36" rx="2" fill="black"/>
<path d="M60.4185 8.24334C60.4185 9.0811 60.1704 9.74826 59.6735 10.2459C59.1091 10.8377 58.3735 11.1338 57.4692 11.1338C56.6031 11.1338 55.8668 10.8338 55.2613 10.233C54.6547 9.63267 54.3521 8.88821 54.3521 7.99996C54.3521 7.1113 54.6547 6.36724 55.2613 5.76647C55.8668 5.16611 56.6031 4.86572 57.4692 4.86572C57.8989 4.86572 58.3103 4.94972 58.7009 5.11731C59.0915 5.2853 59.4048 5.50829 59.6392 5.78757L59.1118 6.31525C58.7146 5.84067 58.1677 5.60358 57.4692 5.60358C56.8375 5.60358 56.2915 5.82547 55.8305 6.26955C55.3695 6.71412 55.1391 7.29059 55.1391 7.99996C55.1391 8.70932 55.3695 9.28579 55.8305 9.73036C56.2915 10.1744 56.8375 10.3963 57.4692 10.3963C58.1392 10.3963 58.6978 10.1732 59.145 9.72646C59.4353 9.43538 59.6032 9.0308 59.6481 8.51123H57.4692V7.79057H60.3767C60.4048 7.94726 60.4185 8.09765 60.4185 8.24334Z" fill="white"/>
<path d="M60.4184 8.24335H60.3184C60.3176 9.06203 60.0785 9.69792 59.6027 10.1753L59.6016 10.1761L59.6012 10.1769C59.0547 10.7483 58.3523 11.0327 57.4691 11.0339C56.6262 11.0327 55.9207 10.7452 55.3316 10.1624C54.7438 9.57842 54.4531 8.86554 54.452 7.99996C54.4531 7.13397 54.7438 6.42149 55.3316 5.8379C55.9207 5.25471 56.6262 4.96682 57.4691 4.96562C57.8859 4.96562 58.2828 5.04692 58.6613 5.20902C59.0402 5.37231 59.3395 5.58631 59.5625 5.852L59.6391 5.7875L59.5684 5.7168L59.041 6.24489L59.1117 6.31519L59.1887 6.25119C58.773 5.7531 58.1895 5.50201 57.4691 5.50351C56.8141 5.50271 56.2379 5.7367 55.7613 6.19769C55.2801 6.66018 55.0383 7.26907 55.0391 7.99996C55.0383 8.73084 55.2801 9.33973 55.7613 9.80222C56.2379 10.2632 56.8141 10.4972 57.4691 10.4964C58.1613 10.4976 58.7512 10.2628 59.2156 9.79722C59.5258 9.48622 59.7016 9.05543 59.7477 8.51984L59.757 8.41125H57.5691V7.89056H60.3766V7.79056L60.2781 7.80816C60.3055 7.95976 60.3184 8.10385 60.3184 8.24335H60.4184H60.5184C60.5184 8.09135 60.5043 7.93516 60.475 7.77266L60.4602 7.69056H57.3691V8.51125V8.61124H59.648V8.51125L59.5484 8.50265C59.5043 9.00583 59.3441 9.38472 59.0742 9.65582C58.6445 10.0839 58.1172 10.2952 57.4691 10.2964C56.8609 10.2956 56.3449 10.0862 55.9 9.65852C55.4594 9.23233 55.2402 8.68824 55.2391 7.99996C55.2402 7.31167 55.4594 6.76758 55.9 6.34139C56.3449 5.9137 56.8609 5.70431 57.4691 5.70351C58.1453 5.70511 58.6559 5.9285 59.0352 6.37969L59.1055 6.46329L59.7098 5.8582L59.7746 5.7934L59.7156 5.72341C59.4699 5.43051 59.1426 5.19802 58.7402 5.02542C58.3371 4.85232 57.9117 4.76563 57.4691 4.76563C56.5801 4.76483 55.8129 5.07732 55.1906 5.69571C54.566 6.31289 54.2512 7.08868 54.252 7.99996C54.2512 8.91084 54.566 9.68702 55.191 10.3046C55.8129 10.9226 56.5801 11.2347 57.4691 11.2339C58.3949 11.2347 59.1629 10.9272 59.7457 10.3151L59.6734 10.246L59.7441 10.3167C60.2621 9.79912 60.5191 9.09993 60.5184 8.24335H60.4184Z" fill="white"/>
<path d="M65.0276 5.7371H62.2952V7.6395H64.7593V8.3605H62.2952V10.2629H65.0276V11H61.5249V5H65.0276V5.7371Z" fill="white"/>
<path d="M65.0275 5.73703V5.63703H62.1951V7.73949H64.6592V8.26021L62.1951 8.26051V10.363H64.9275V10.9001H61.6248V5.09991H64.9275V5.73703H65.0275V5.63703V5.73703H65.1275V4.99991V4.8999H61.4248V11.1001H65.1275V10.263V10.163H62.3951V8.46052H64.8592V7.63949V7.53948H62.3951V5.83703H65.1275V5.73703H65.0275Z" fill="white"/>
<path d="M68.2788 11H67.5073V5.7371H65.8315V5H69.9546V5.7371H68.2788V11Z" fill="white"/>
<path d="M68.2788 11.0001V10.9001H67.6073V5.63703H65.9314V5.09991H69.8546V5.63703H68.1788V11.0001H68.2788V10.9001V11.0001H68.3788V5.83703H70.0546V4.99991V4.8999H65.7314V5.73703V5.83703H67.4073V11.1001H68.2788H68.3788V11.0001H68.2788Z" fill="white"/>
<path d="M72.938 11V5H73.7087V11H72.938Z" fill="white"/>
<path d="M72.9379 11.0001H73.0379V5.09991H73.6086V10.9001H72.9379V11.0001H73.0379H72.9379V11.1001H73.7086H73.8086V4.8999H72.9379H72.8379V11.1001H72.9379V11.0001Z" fill="white"/>
<path d="M77.1283 11H76.3568V5.7371H74.6812V5H78.8041V5.7371H77.1283V11Z" fill="white"/>
<path d="M77.1287 11.0001V10.9001H76.4572V5.63703H74.7815V5.09991H78.7045V5.63703H77.0287V11.0001H77.1287V10.9001V11.0001H77.2287V5.83703H78.9045V4.99991V4.8999H74.5815V5.73703V5.83703H76.2572V11.1001H77.1287H77.2287V11.0001H77.1287Z" fill="white"/>
<path d="M82.7793 9.72216C83.2234 10.1717 83.7668 10.3963 84.4094 10.3963C85.052 10.3963 85.5957 10.1717 86.0391 9.72216C86.4835 9.27259 86.7062 8.69792 86.7062 7.99996C86.7062 7.30199 86.4835 6.72732 86.0391 6.27775C85.5957 5.82817 85.052 5.60358 84.4094 5.60358C83.7668 5.60358 83.2234 5.82817 82.7793 6.27775C82.3359 6.72732 82.1133 7.30199 82.1133 7.99996C82.1133 8.69792 82.3359 9.27259 82.7793 9.72216ZM86.6093 10.2244C86.0195 10.831 85.2859 11.1338 84.4094 11.1338C83.532 11.1338 82.7988 10.831 82.2102 10.2244C81.6199 9.61857 81.3262 8.87691 81.3262 7.99996C81.3262 7.123 81.6199 6.38124 82.2102 5.77547C82.7988 5.16881 83.532 4.86572 84.4094 4.86572C85.2813 4.86572 86.0129 5.17041 86.6054 5.77937C87.1972 6.38834 87.4933 7.1285 87.4933 7.99996C87.4933 8.87691 87.1979 9.61857 86.6093 10.2244Z" fill="white"/>
<path d="M82.7792 9.72222L82.7081 9.79252C83.1687 10.2601 83.7433 10.4976 84.4093 10.4964C85.0749 10.4976 85.6503 10.2601 86.1101 9.79252C86.5737 9.32453 86.8069 8.71904 86.8062 7.99996C86.8069 7.28087 86.5737 6.67539 86.1101 6.2074C85.6503 5.73981 85.0749 5.50231 84.4093 5.50351C83.7433 5.50231 83.1687 5.73981 82.7081 6.2074C82.2456 6.67539 82.012 7.28087 82.0132 7.99996C82.012 8.71904 82.2456 9.32453 82.7081 9.79252L82.7792 9.72222L82.8503 9.65192C82.4261 9.22023 82.214 8.67724 82.2132 7.99996C82.214 7.32267 82.4261 6.77968 82.8503 6.34799C83.2784 5.9164 83.7897 5.70471 84.4093 5.70351C85.0284 5.70471 85.5409 5.9164 85.9679 6.34799C86.3929 6.77968 86.605 7.32267 86.6058 7.99996C86.605 8.67724 86.3929 9.22023 85.9679 9.65192C85.5409 10.0835 85.0284 10.2952 84.4093 10.2964C83.7897 10.2952 83.2784 10.0835 82.8503 9.65192L82.7792 9.72222ZM86.6093 10.2245L86.5378 10.155C85.9644 10.7425 85.2632 11.0327 84.4093 11.0339C83.555 11.0327 82.8538 10.7425 82.2815 10.155L82.2788 10.1519L82.2815 10.155C81.7093 9.56552 81.4269 8.85464 81.4261 7.99996C81.4269 7.14528 81.7093 6.43439 82.2815 5.8449C82.8538 5.25742 83.555 4.96682 84.4093 4.96562C85.2577 4.96682 85.9573 5.25862 86.5339 5.8492C87.1081 6.44139 87.3921 7.15117 87.3933 7.99996C87.3921 8.85464 87.1089 9.56552 86.5378 10.155L86.6093 10.2245L86.6812 10.294C87.2874 9.67142 87.594 8.89914 87.5933 7.99996C87.594 7.10588 87.2862 6.33519 86.6772 5.70981C86.0679 5.08202 85.3046 4.76453 84.4093 4.76563C83.5093 4.76453 82.7437 5.08052 82.1382 5.70591V5.70551C81.5308 6.32849 81.2253 7.10078 81.2261 7.99996C81.2253 8.89914 81.5308 9.67142 82.1382 10.2944L82.1409 10.2972L82.1382 10.294C82.7437 10.9194 83.5093 11.2347 84.4093 11.2339C85.3089 11.2347 86.0745 10.9194 86.6812 10.294L86.6093 10.2245Z" fill="white"/>
<path d="M88.5752 11V5H89.5135L92.4295 9.6676H92.4627L92.4295 8.5113V5H93.201V11H92.3963L89.3455 6.1062H89.3123L89.3455 7.2629V11H88.5752Z" fill="white"/>
<path d="M88.5756 11.0001H88.6756V5.09991H89.4584L92.3744 9.76766H92.4631H92.5658L92.5299 8.50982V5.09991H93.1014V10.9001H92.4522L89.4014 6.00614H89.3127H89.21L89.2459 7.26448V10.9001H88.5756V11.0001H88.6756H88.5756V11.1001H89.3459H89.4459V7.26128L89.4127 6.10344L89.3127 6.10614V6.20614H89.3459V6.10614L89.2611 6.15934L92.3412 11.1001H93.2014H93.3014V4.8999H92.4299H92.3299V8.51252L92.3631 9.67035L92.4631 9.66765V9.56765H92.4299V9.66765L92.5147 9.61455L89.5693 4.8999H88.5756H88.4756V11.1001H88.5756V11.0001Z" fill="white"/>
<path d="M119.936 27.9997H121.802V15.4985H119.936V27.9997ZM136.743 20.0017L134.604 25.4216H134.54L132.32 20.0017H130.31L133.639 27.577L131.741 31.7907H133.688L138.818 20.0017H136.743ZM126.161 26.5798C125.549 26.5798 124.697 26.2743 124.697 25.5181C124.697 24.5532 125.759 24.1833 126.675 24.1833C127.496 24.1833 127.881 24.3602 128.38 24.6017C128.235 25.7595 127.238 26.5798 126.161 26.5798ZM126.386 19.7282C125.035 19.7282 123.636 20.3235 123.057 21.6423L124.713 22.3337C125.067 21.6423 125.726 21.4169 126.418 21.4169C127.383 21.4169 128.364 21.9962 128.38 23.0255V23.154C128.042 22.961 127.319 22.6716 126.434 22.6716C124.649 22.6716 122.831 23.6524 122.831 25.486C122.831 27.1587 124.295 28.2364 125.935 28.2364C127.19 28.2364 127.881 27.6735 128.316 27.0142H128.38V27.979H130.181V23.186C130.181 20.9669 128.525 19.7282 126.386 19.7282ZM114.854 21.5235H112.2V17.2384H114.854C116.249 17.2384 117.041 18.3934 117.041 19.3809C117.041 20.3497 116.249 21.5235 114.854 21.5235ZM114.806 15.4985H110.335V27.9997H112.2V23.2634H114.806C116.874 23.2634 118.907 21.7661 118.907 19.3809C118.907 16.9958 116.874 15.4985 114.806 15.4985ZM90.4252 26.5821C89.1361 26.5821 88.0568 25.5028 88.0568 24.0204C88.0568 22.5224 89.1361 21.4267 90.4252 21.4267C91.6979 21.4267 92.6967 22.5224 92.6967 24.0204C92.6967 25.5028 91.6979 26.5821 90.4252 26.5821ZM92.5678 20.7017H92.5033C92.0846 20.2024 91.2787 19.7513 90.2639 19.7513C88.1373 19.7513 86.1881 21.62 86.1881 24.0204C86.1881 26.4048 88.1373 28.2575 90.2639 28.2575C91.2787 28.2575 92.0846 27.8063 92.5033 27.2911H92.5678V27.9032C92.5678 29.5306 91.6979 30.4005 90.2963 30.4005C89.1525 30.4005 88.4436 29.5786 88.1533 28.886L86.5264 29.5626C86.9936 30.6903 88.2342 32.0759 90.2963 32.0759C92.4873 32.0759 94.34 30.7868 94.34 27.6454V20.0091H92.5678V20.7017ZM95.6287 27.9997H97.4975V15.4981H95.6287V27.9997ZM100.252 23.8755C100.204 22.2321 101.525 21.3946 102.476 21.3946C103.217 21.3946 103.845 21.7649 104.054 22.297L100.252 23.8755ZM106.052 22.4579C105.698 21.5071 104.618 19.7513 102.411 19.7513C100.22 19.7513 98.3998 21.4751 98.3998 24.0044C98.3998 26.3888 100.204 28.2575 102.62 28.2575C104.57 28.2575 105.698 27.0653 106.165 26.3727L104.715 25.4059C104.232 26.1149 103.571 26.5821 102.62 26.5821C101.67 26.5821 100.994 26.147 100.558 25.2934L106.245 22.9411L106.052 22.4579ZM60.744 21.0563V22.8606H65.0615C64.9326 23.8755 64.5943 24.6165 64.0787 25.1321C63.4506 25.7606 62.4678 26.4532 60.744 26.4532C58.0857 26.4532 56.0076 24.3106 56.0076 21.6524C56.0076 18.9942 58.0857 16.8513 60.744 16.8513C62.1779 16.8513 63.2248 17.4153 63.9982 18.1403L65.2709 16.8677C64.1916 15.8364 62.7576 15.047 60.744 15.047C57.1029 15.047 54.042 18.0114 54.042 21.6524C54.042 25.2934 57.1029 28.2575 60.744 28.2575C62.7096 28.2575 64.1916 27.6134 65.3514 26.4048C66.5436 25.2126 66.9143 23.5372 66.9143 22.1841C66.9143 21.7649 66.8822 21.3786 66.8174 21.0563H60.744ZM71.8229 26.5821C70.5338 26.5821 69.4221 25.5188 69.4221 24.0044C69.4221 22.4739 70.5338 21.4267 71.8229 21.4267C73.1115 21.4267 74.2232 22.4739 74.2232 24.0044C74.2232 25.5188 73.1115 26.5821 71.8229 26.5821ZM71.8229 19.7513C69.4705 19.7513 67.5533 21.5395 67.5533 24.0044C67.5533 26.4532 69.4705 28.2575 71.8229 28.2575C74.1748 28.2575 76.092 26.4532 76.092 24.0044C76.092 21.5395 74.1748 19.7513 71.8229 19.7513ZM81.1361 26.5821C79.8475 26.5821 78.7357 25.5188 78.7357 24.0044C78.7357 22.4739 79.8475 21.4267 81.1361 21.4267C82.4248 21.4267 83.5365 22.4739 83.5365 24.0044C83.5365 25.5188 82.4248 26.5821 81.1361 26.5821ZM81.1361 19.7513C78.7838 19.7513 76.867 21.5395 76.867 24.0044C76.867 26.4532 78.7838 28.2575 81.1361 28.2575C83.4881 28.2575 85.4053 26.4532 85.4053 24.0044C85.4053 21.5395 83.4881 19.7513 81.1361 19.7513Z" fill="white"/>
<path d="M23.5098 30.3896L23.4355 30.3185C23.1445 30.0106 22.9727 29.5325 22.9727 28.9134V29.0591V6.94315C22.9727 6.94115 22.9727 6.93965 22.9727 6.93805C22.9727 6.93995 22.9727 6.94155 22.9727 6.94355V7.08965C22.9727 6.41925 23.173 5.91425 23.5086 5.61145L35.8984 18.0009L23.5098 30.3896ZM22.9727 6.93685C22.9727 6.88175 22.9742 6.82825 22.977 6.77555C22.9742 6.82785 22.9727 6.88175 22.9727 6.93685ZM22.977 6.77315C22.977 6.77245 22.977 6.77165 22.9773 6.77085C22.977 6.77165 22.977 6.77245 22.977 6.77315ZM22.9773 6.76615C22.9773 6.76575 22.9773 6.76535 22.9773 6.76495C22.9773 6.76535 22.9773 6.76575 22.9773 6.76615Z" fill="url(#paint0_linear)"/>
<path d="M40.0277 22.2781L40.1219 22.2246L45.0148 19.4445C45.4813 19.1793 45.7922 18.8578 45.9473 18.5176C45.7926 18.8578 45.4816 19.1797 45.0148 19.4449L40.1219 22.225L40.0277 22.2781ZM40.0289 22.1316L35.8984 18.0004L40.0285 13.8699L45.0148 16.7027C45.648 17.0625 46.0035 17.5262 46.0629 18C46.0629 18.0004 46.0629 18.0012 46.0629 18.0019C46.0035 18.4746 45.648 18.9387 45.0148 19.2984L40.0289 22.1316Z" fill="url(#paint1_linear)"/>
<path d="M24.3931 30.8611C24.047 30.8611 23.745 30.7486 23.5095 30.5361L23.5099 30.5357C23.7454 30.7482 24.0478 30.8611 24.3939 30.8611C24.4239 30.8611 24.4544 30.8603 24.4853 30.8588C24.454 30.8603 24.4231 30.8611 24.3931 30.8611ZM24.3935 30.7146C24.0474 30.715 23.7454 30.6021 23.5099 30.3896V30.3893L35.8985 18.0007L40.029 22.1319L25.5138 30.3791C25.1122 30.6068 24.7317 30.7146 24.3935 30.7146ZM23.5064 30.5334C23.4845 30.5135 23.463 30.4924 23.4419 30.4705L23.5064 30.5334Z" fill="url(#paint2_linear)"/>
<path d="M35.8986 18.0005L23.5088 5.61131C23.7443 5.39922 24.0459 5.28672 24.3916 5.28672C24.7307 5.28672 25.1115 5.39492 25.5139 5.62301L40.0287 13.8701L35.8986 18.0005ZM40.1221 13.7768L25.5139 5.47701C25.1115 5.24882 24.7307 5.14062 24.3916 5.14062C24.39 5.14062 24.3889 5.14062 24.3873 5.14062C24.3893 5.14062 24.3908 5.14062 24.3932 5.14062C24.7315 5.14062 25.1119 5.24842 25.5139 5.47661L40.1221 13.7768Z" fill="url(#paint3_linear)"/>
<path d="M24.4852 30.8589C24.7996 30.8409 25.1477 30.7327 25.5137 30.5253L40.0278 22.2783L25.5137 30.5253C25.148 30.7331 24.7996 30.8409 24.4852 30.8589ZM23.5094 30.5362L23.5063 30.5335C23.5074 30.5343 23.5086 30.5354 23.5094 30.5362ZM23.4418 30.4706L23.4355 30.4644V30.464C23.4379 30.4663 23.4398 30.4686 23.4418 30.4706Z" fill="black"/>
<path d="M40.0278 22.2781L40.122 22.2249L40.0278 22.2781Z" fill="url(#paint4_linear)"/>
<path d="M24.3938 30.8611C24.0477 30.8611 23.7453 30.7482 23.5098 30.5357L23.5094 30.5361C23.5086 30.5353 23.5074 30.5342 23.5063 30.5334L23.4418 30.4705C23.4398 30.4685 23.4379 30.4662 23.4355 30.4639L23.5098 30.3896C23.7453 30.6021 24.0473 30.715 24.3934 30.7146C24.7316 30.7146 25.1121 30.6068 25.5137 30.3791L40.0289 22.1316L40.1219 22.2246L40.0277 22.2781L25.5137 30.5252C25.1477 30.7326 24.7996 30.8408 24.4852 30.8588C24.4543 30.8603 24.4238 30.8611 24.3938 30.8611Z" fill="url(#paint5_linear)"/>
<path d="M23.4355 30.4644C23.1445 30.1565 22.9727 29.6785 22.9727 29.0595V29.0591C22.9727 29.6785 23.1445 30.1561 23.4355 30.464V30.4644Z" fill="black"/>
<path d="M23.4355 30.4639C23.1445 30.156 22.9727 29.6783 22.9727 29.0588V28.9131C22.9727 29.5322 23.1445 30.0103 23.4355 30.3182L23.5098 30.3893L23.4355 30.4639Z" fill="url(#paint6_linear)"/>
<path d="M23.4355 30.4639L23.5099 30.3896V30.3899L23.4355 30.4639Z" fill="url(#paint7_linear)"/>
<path d="M45.9473 18.5181C46.0242 18.3492 46.0629 18.1757 46.0629 18.0022C46.0629 18.0019 46.0629 18.0015 46.0629 18.0015C46.0629 18.1753 46.0242 18.3488 45.9473 18.5181Z" fill="black"/>
<path d="M40.1218 22.2256L40.0288 22.1326L45.0148 19.2991C45.648 18.9393 46.0035 18.4752 46.0629 18.0024C46.0629 18.176 46.0242 18.3494 45.9473 18.5182C45.7922 18.8584 45.4813 19.18 45.0148 19.4452L40.1218 22.2256Z" fill="url(#paint8_linear)"/>
<path d="M46.063 18.0005V18.0001C46.0626 17.477 45.713 16.954 45.0149 16.5571L40.122 13.7772H40.1216L40.122 13.7769L45.0149 16.5567C45.7138 16.9536 46.0638 17.4774 46.063 18.0005Z" fill="#404040"/>
<path d="M46.0627 18.0005C46.0033 17.5267 45.6478 17.063 45.0146 16.7032L40.0283 13.8704L40.1213 13.7774H40.1217L45.0146 16.5575C45.7127 16.9544 46.0623 17.4774 46.0627 18.0005Z" fill="url(#paint9_linear)"/>
<path d="M22.9727 6.93799C22.9727 6.93759 22.9727 6.93719 22.9727 6.93679C22.9727 6.93719 22.9727 6.93759 22.9727 6.93799ZM22.977 6.77549C22.977 6.77469 22.977 6.77389 22.977 6.77309C22.977 6.77389 22.977 6.77469 22.977 6.77549ZM22.9773 6.77079C22.9773 6.76919 22.9773 6.76769 22.9773 6.76609C22.9773 6.76769 22.9773 6.76919 22.9773 6.77079ZM22.9773 6.76489C23.0352 5.73759 23.5938 5.14419 24.384 5.14069C24.0414 5.14269 23.743 5.25519 23.5094 5.46569V5.46529L23.5066 5.46809C23.482 5.49029 23.4586 5.51379 23.4355 5.53799C23.173 5.81569 23.0074 6.23169 22.9773 6.76489Z" fill="#404040"/>
<path d="M22.9727 7.08887V6.94275C22.9727 6.94075 22.9727 6.93915 22.9727 6.93725C22.9727 6.93685 22.9727 6.93645 22.9727 6.93605C22.9727 6.88094 22.9742 6.82703 22.977 6.77473C22.977 6.77393 22.977 6.77313 22.977 6.77233C22.977 6.77163 22.977 6.77083 22.9773 6.77003C22.9773 6.76843 22.9773 6.76693 22.9773 6.76533C22.9773 6.76493 22.9773 6.76453 22.9773 6.76413C23.0074 6.23086 23.1729 5.8148 23.4354 5.53706L23.5085 5.61047C23.1729 5.91331 22.9727 6.41838 22.9727 7.08887ZM23.5065 5.46715L23.5093 5.46436C23.5085 5.46556 23.5073 5.46635 23.5065 5.46715Z" fill="url(#paint10_linear)"/>
<path d="M40.0285 13.8699L25.5137 5.62277C25.1113 5.39468 24.7305 5.28648 24.3914 5.28648C24.0457 5.28648 23.7441 5.39898 23.5086 5.61107L23.4355 5.53767C23.4586 5.51347 23.482 5.48997 23.5066 5.46777C23.5074 5.46697 23.5086 5.46617 23.5094 5.46537C23.743 5.25488 24.0414 5.14238 24.384 5.14038C24.3848 5.14038 24.3859 5.14038 24.3871 5.14038C24.3887 5.14038 24.3898 5.14038 24.3914 5.14038C24.7305 5.14038 25.1113 5.24858 25.5137 5.47677L40.1219 13.7766L40.1215 13.7769L40.0285 13.8699Z" fill="url(#paint11_linear)"/>
<defs>
<linearGradient id="paint0_linear" x1="34.7998" y1="6.70985" x2="18.0173" y2="23.4924" gradientUnits="userSpaceOnUse">
<stop stop-color="#00A0FF"/>
<stop offset="0.00657445" stop-color="#00A1FF"/>
<stop offset="0.2601" stop-color="#00BEFF"/>
<stop offset="0.5122" stop-color="#00D2FF"/>
<stop offset="0.7604" stop-color="#00DFFF"/>
<stop offset="1" stop-color="#00E3FF"/>
</linearGradient>
<linearGradient id="paint1_linear" x1="46.8344" y1="18.001" x2="22.6375" y2="18.001" gradientUnits="userSpaceOnUse">
<stop stop-color="#FFE000"/>
<stop offset="0.4087" stop-color="#FFBD00"/>
<stop offset="0.7754" stop-color="#FFA500"/>
<stop offset="1" stop-color="#FF9C00"/>
</linearGradient>
<linearGradient id="paint2_linear" x1="37.8271" y1="20.296" x2="15.0691" y2="43.0543" gradientUnits="userSpaceOnUse">
<stop stop-color="#FF3A44"/>
<stop offset="1" stop-color="#C31162"/>
</linearGradient>
<linearGradient id="paint3_linear" x1="20.2975" y1="-1.82359" x2="30.4597" y2="8.33891" gradientUnits="userSpaceOnUse">
<stop stop-color="#32A071"/>
<stop offset="0.0685" stop-color="#2DA771"/>
<stop offset="0.4762" stop-color="#15CF74"/>
<stop offset="0.8009" stop-color="#06E775"/>
<stop offset="1" stop-color="#00F076"/>
</linearGradient>
<linearGradient id="paint4_linear" x1="46.8351" y1="18.0231" x2="22.6361" y2="18.0231" gradientUnits="userSpaceOnUse">
<stop stop-color="#CCB300"/>
<stop offset="0.4087" stop-color="#CC9700"/>
<stop offset="0.7754" stop-color="#CC8400"/>
<stop offset="1" stop-color="#CC7D00"/>
</linearGradient>
<linearGradient id="paint5_linear" x1="37.827" y1="20.2957" x2="15.0682" y2="43.054" gradientUnits="userSpaceOnUse">
<stop stop-color="#CC2E36"/>
<stop offset="1" stop-color="#9C0E4E"/>
</linearGradient>
<linearGradient id="paint6_linear" x1="34.7998" y1="6.70946" x2="18.0172" y2="23.492" gradientUnits="userSpaceOnUse">
<stop stop-color="#008DE0"/>
<stop offset="0.00657445" stop-color="#008DE0"/>
<stop offset="0.2601" stop-color="#00A7E0"/>
<stop offset="0.5122" stop-color="#00B8E0"/>
<stop offset="0.7604" stop-color="#00C4E0"/>
<stop offset="1" stop-color="#00C7E0"/>
</linearGradient>
<linearGradient id="paint7_linear" x1="37.829" y1="20.3478" x2="15.1874" y2="43.109" gradientUnits="userSpaceOnUse">
<stop stop-color="#E0333C"/>
<stop offset="1" stop-color="#AB0F56"/>
</linearGradient>
<linearGradient id="paint8_linear" x1="46.8344" y1="18.0015" x2="22.6371" y2="18.0015" gradientUnits="userSpaceOnUse">
<stop stop-color="#E0C500"/>
<stop offset="0.4087" stop-color="#E0A600"/>
<stop offset="0.7754" stop-color="#E09100"/>
<stop offset="1" stop-color="#E08900"/>
</linearGradient>
<linearGradient id="paint9_linear" x1="46.8342" y1="18.0015" x2="22.6372" y2="18.0015" gradientUnits="userSpaceOnUse">
<stop stop-color="#FFE840"/>
<stop offset="0.4087" stop-color="#FFCE40"/>
<stop offset="0.7754" stop-color="#FFBC40"/>
<stop offset="1" stop-color="#FFB540"/>
</linearGradient>
<linearGradient id="paint10_linear" x1="34.7994" y1="6.70902" x2="18.0147" y2="23.491" gradientUnits="userSpaceOnUse">
<stop stop-color="#40B8FF"/>
<stop offset="0.00657445" stop-color="#40B9FF"/>
<stop offset="0.2601" stop-color="#40CEFF"/>
<stop offset="0.5122" stop-color="#40DDFF"/>
<stop offset="0.7604" stop-color="#40E7FF"/>
<stop offset="1" stop-color="#40EAFF"/>
</linearGradient>
<linearGradient id="paint11_linear" x1="20.2973" y1="-1.82385" x2="30.4596" y2="8.33865" gradientUnits="userSpaceOnUse">
<stop stop-color="#65B895"/>
<stop offset="0.0685" stop-color="#62BD95"/>
<stop offset="0.4762" stop-color="#50DB97"/>
<stop offset="0.8009" stop-color="#44ED98"/>
<stop offset="1" stop-color="#40F498"/>
</linearGradient>
</defs>
</svg>
