<svg width="100" height="48" viewBox="0 0 100 48" fill="none" xmlns="http://www.w3.org/2000/svg">
<path d="M2.53857 37.5403H3.86989V41.9299H9.43852V37.5403H10.7698V47.8261H9.43852V43.1902H3.86989V47.8261H2.53857V37.5403Z" fill="black"/>
<path d="M19.2019 46.725C19.7554 46.725 20.2708 46.6236 20.748 46.4208C21.2347 46.2083 21.6498 45.9186 21.9934 45.5516C22.3465 45.1846 22.6233 44.7596 22.8237 44.2767C23.0241 43.7842 23.1243 43.253 23.1243 42.6832C23.1243 42.123 23.0241 41.5967 22.8237 41.1041C22.6233 40.6115 22.3465 40.1818 21.9934 39.8148C21.6498 39.4478 21.2347 39.1628 20.748 38.96C20.2708 38.7475 19.7554 38.6413 19.2019 38.6413C18.6484 38.6413 18.1331 38.7475 17.6559 38.96C17.1787 39.1628 16.7636 39.4478 16.4104 39.8148C16.0669 40.1818 15.7949 40.6115 15.5945 41.1041C15.3941 41.5967 15.2939 42.123 15.2939 42.6832C15.2939 43.253 15.3941 43.7842 15.5945 44.2767C15.7949 44.7596 16.0669 45.1846 16.4104 45.5516C16.7636 45.9186 17.1787 46.2083 17.6559 46.4208C18.1331 46.6236 18.6484 46.725 19.2019 46.725ZM19.2019 47.9999C18.4671 47.9999 17.7799 47.8647 17.1405 47.5943C16.5107 47.3142 15.9571 46.9375 15.48 46.4643C15.0028 45.9814 14.6258 45.4164 14.3491 44.7693C14.0818 44.1222 13.9482 43.4268 13.9482 42.6832C13.9482 41.9395 14.0818 41.2441 14.3491 40.5971C14.6258 39.95 15.0028 39.3898 15.48 38.9166C15.9571 38.4337 16.5107 38.057 17.1405 37.7866C17.7799 37.5065 18.4671 37.3665 19.2019 37.3665C19.9368 37.3665 20.6239 37.5065 21.2633 37.7866C21.9027 38.057 22.4563 38.4337 22.9239 38.9166C23.4011 39.3898 23.7733 39.95 24.0405 40.5971C24.3172 41.2441 24.4556 41.9395 24.4556 42.6832C24.4556 43.4268 24.3172 44.1222 24.0405 44.7693C23.7733 45.4164 23.4011 45.9814 22.9239 46.4643C22.4563 46.9375 21.9027 47.3142 21.2633 47.5943C20.6239 47.8647 19.9368 47.9999 19.2019 47.9999Z" fill="black"/>
<path d="M31.5063 47.9999C30.9146 47.9999 30.3754 47.9033 29.8887 47.7102C29.4019 47.517 28.982 47.2417 28.6289 46.8844C28.2854 46.5174 28.0134 46.078 27.8129 45.5661C27.6221 45.0446 27.5266 44.4651 27.5266 43.8276V37.5403H28.858V43.8566C28.858 44.7838 29.0965 45.4936 29.5737 45.9862C30.0604 46.4788 30.7046 46.725 31.5063 46.725C32.3079 46.725 32.9473 46.4788 33.4245 45.9862C33.9112 45.4936 34.1546 44.7838 34.1546 43.8566V37.5403H35.4859V43.8276C35.4859 44.4651 35.3857 45.0446 35.1853 45.5661C34.9944 46.078 34.7224 46.5174 34.3693 46.8844C34.0258 47.2417 33.6058 47.517 33.1096 47.7102C32.6229 47.9033 32.0884 47.9999 31.5063 47.9999Z" fill="black"/>
<path d="M41.9696 47.9999C41.5497 47.9999 41.1536 47.9516 40.7814 47.855C40.4092 47.7681 40.0656 47.6426 39.7507 47.4784C39.4453 47.3045 39.1781 47.1065 38.949 46.8844C38.72 46.6526 38.5387 46.4063 38.4051 46.1456L39.4787 45.3343C39.7555 45.7689 40.099 46.1118 40.5094 46.3629C40.9293 46.614 41.4256 46.7395 41.9982 46.7395C42.5231 46.7395 42.9669 46.6043 43.3295 46.3339C43.6922 46.0635 43.8735 45.6868 43.8735 45.2039C43.8735 44.7886 43.7494 44.4409 43.5013 44.1608C43.2532 43.8808 42.8905 43.649 42.4133 43.4655L41.0677 42.9439C40.2661 42.6445 39.6791 42.2727 39.3069 41.8284C38.9443 41.3842 38.763 40.8095 38.763 40.1045C38.763 39.6892 38.8441 39.3125 39.0063 38.9745C39.1685 38.6365 39.388 38.3467 39.6648 38.1053C39.9511 37.8638 40.2851 37.6803 40.6669 37.5548C41.0582 37.4292 41.4828 37.3665 41.9409 37.3665C42.5803 37.3665 43.153 37.4968 43.6588 37.7576C44.1741 38.0184 44.5893 38.3564 44.9042 38.7717L43.9308 39.6409C43.6731 39.3319 43.382 39.0856 43.0575 38.9021C42.733 38.7186 42.3513 38.6268 41.9123 38.6268C41.6642 38.6268 41.4256 38.6606 41.1965 38.7282C40.977 38.7958 40.7814 38.8924 40.6096 39.018C40.4474 39.1435 40.3185 39.2932 40.2231 39.4671C40.1277 39.6409 40.0799 39.8341 40.0799 40.0465C40.0799 40.4812 40.204 40.8192 40.4521 41.0606C40.7098 41.2924 41.0963 41.5049 41.6117 41.6981L42.8428 42.1761C43.5967 42.4659 44.1789 42.8425 44.5893 43.3061C44.9996 43.7697 45.2048 44.383 45.2048 45.146C45.2048 45.5806 45.1237 45.9765 44.9615 46.3339C44.7992 46.6816 44.5749 46.981 44.2886 47.2321C44.0023 47.4735 43.6588 47.6619 43.2579 47.7971C42.8667 47.9323 42.4372 47.9999 41.9696 47.9999Z" fill="black"/>
<path d="M48.3548 37.5403H54.2813V38.8152H49.6861V41.9299H53.4224V43.2047H49.6861V46.5512H54.2813V47.8261H48.3548V37.5403Z" fill="black"/>
<path d="M57.5162 37.5403H58.8475V41.9299H64.4161V37.5403H65.7474V47.8261H64.4161V43.1902H58.8475V47.8261H57.5162V37.5403Z" fill="black"/>
<path d="M74.1795 46.725C74.733 46.725 75.2484 46.6236 75.7256 46.4208C76.2123 46.2083 76.6274 45.9186 76.971 45.5516C77.3241 45.1846 77.6009 44.7596 77.8013 44.2767C78.0017 43.7842 78.1019 43.253 78.1019 42.6832C78.1019 42.123 78.0017 41.5967 77.8013 41.1041C77.6009 40.6115 77.3241 40.1818 76.971 39.8148C76.6274 39.4478 76.2123 39.1628 75.7256 38.96C75.2484 38.7475 74.733 38.6413 74.1795 38.6413C73.626 38.6413 73.1106 38.7475 72.6335 38.96C72.1563 39.1628 71.7412 39.4478 71.3881 39.8148C71.0445 40.1818 70.7725 40.6115 70.5721 41.1041C70.3717 41.5967 70.2715 42.123 70.2715 42.6832C70.2715 43.253 70.3717 43.7842 70.5721 44.2767C70.7725 44.7596 71.0445 45.1846 71.3881 45.5516C71.7412 45.9186 72.1563 46.2083 72.6335 46.4208C73.1106 46.6236 73.626 46.725 74.1795 46.725ZM74.1795 47.9999C73.4447 47.9999 72.7575 47.8647 72.1181 47.5943C71.4883 47.3142 70.9347 46.9375 70.4576 46.4643C69.9804 45.9814 69.6034 45.4164 69.3267 44.7693C69.0594 44.1222 68.9258 43.4268 68.9258 42.6832C68.9258 41.9395 69.0594 41.2441 69.3267 40.5971C69.6034 39.95 69.9804 39.3898 70.4576 38.9166C70.9347 38.4337 71.4883 38.057 72.1181 37.7866C72.7575 37.5065 73.4447 37.3665 74.1795 37.3665C74.9144 37.3665 75.6015 37.5065 76.2409 37.7866C76.8803 38.057 77.4339 38.4337 77.9015 38.9166C78.3787 39.3898 78.7509 39.95 79.0181 40.5971C79.2948 41.2441 79.4332 41.9395 79.4332 42.6832C79.4332 43.4268 79.2948 44.1222 79.0181 44.7693C78.7509 45.4164 78.3787 45.9814 77.9015 46.4643C77.4339 46.9375 76.8803 47.3142 76.2409 47.5943C75.6015 47.8647 74.9144 47.9999 74.1795 47.9999Z" fill="black"/>
<path d="M82.6331 37.5403H83.9644V46.5512H88.8745V47.8261H82.6331V37.5403Z" fill="black"/>
<path d="M91.6686 37.5403H94.589C95.3715 37.5403 96.0921 37.6707 96.7506 37.9314C97.4091 38.1922 97.9769 38.5544 98.4541 39.018C98.9408 39.4719 99.3177 40.0127 99.585 40.6405C99.8617 41.2683 100 41.9492 100 42.6832C100 43.4172 99.8617 44.0981 99.585 44.7258C99.3177 45.3536 98.9408 45.8993 98.4541 46.3629C97.9769 46.8168 97.4091 47.1741 96.7506 47.4349C96.0921 47.6957 95.3715 47.8261 94.589 47.8261H91.6686V37.5403ZM94.589 46.5657C95.1997 46.5657 95.7533 46.4691 96.2495 46.2759C96.7553 46.0828 97.1848 45.8124 97.5379 45.4647C97.891 45.117 98.163 44.7065 98.3539 44.2333C98.5543 43.76 98.6545 43.2433 98.6545 42.6832C98.6545 42.123 98.5543 41.6063 98.3539 41.1331C98.163 40.6598 97.891 40.2494 97.5379 39.9017C97.1848 39.554 96.7553 39.2836 96.2495 39.0904C95.7533 38.8972 95.1997 38.8007 94.589 38.8007H93V46.5657H94.589Z" fill="black"/>
<path fill-rule="evenodd" clip-rule="evenodd" d="M99.0158 3.3046V0H82.9414V3.3046H89.4496L89.4503 24.2482H92.5069L92.5062 3.3046H99.0158ZM49.2475 14.1963V0.122299H46.1909V14.1963L46.1932 14.4859C46.2931 20.7179 49.6357 24.0807 55.6777 24.0807C61.8029 24.0807 65.1932 20.6303 65.2944 14.2245L65.2946 0.122299H62.2381V14.1963L62.2323 14.4372C62.0938 18.8106 60.0838 20.7761 55.6777 20.7761C51.2014 20.7761 49.2475 18.7551 49.2475 14.1963ZM75.2285 0.122299V20.7761H82.1058V24.0807H72.1719V0.122299H75.2285ZM43.0106 24.0802L32.3095 0.122299H29.6472L20.0869 24.0802H23.4155L26.5119 16.319H36.1486L39.6155 24.0802H43.0106ZM3.33016 0.122299L10.6087 18.291L17.9667 0.122299H21.3037L11.6004 24.0806H9.59752L0 0.122299H3.33016ZM27.8325 13.0214L31.0618 4.93176L34.674 13.0214H27.8325Z" fill="black"/>
</svg>
