<svg width="96" height="43" viewBox="0 0 96 43" fill="none" xmlns="http://www.w3.org/2000/svg">
<path d="M22.3399 42.9651C21.6585 42.9651 21.0425 42.8484 20.4919 42.6151C19.9505 42.3817 19.5212 42.0457 19.2039 41.6071C18.8865 41.1684 18.7232 40.6504 18.7139 40.0531H20.8139C20.8419 40.4544 20.9819 40.7717 21.2339 41.0051C21.4952 41.2384 21.8499 41.3551 22.2979 41.3551C22.7552 41.3551 23.1145 41.2477 23.3759 41.0331C23.6372 40.8091 23.7679 40.5197 23.7679 40.1651C23.7679 39.8757 23.6792 39.6377 23.5019 39.4511C23.3245 39.2644 23.1005 39.1197 22.8299 39.0171C22.5685 38.9051 22.2045 38.7837 21.7379 38.6531C21.1032 38.4664 20.5852 38.2844 20.1839 38.1071C19.7919 37.9204 19.4512 37.6451 19.1619 37.2811C18.8819 36.9077 18.7419 36.4131 18.7419 35.7971C18.7419 35.2184 18.8865 34.7144 19.1759 34.2851C19.4652 33.8557 19.8712 33.5291 20.3939 33.3051C20.9165 33.0717 21.5139 32.9551 22.1859 32.9551C23.1939 32.9551 24.0105 33.2024 24.6359 33.6971C25.2705 34.1824 25.6205 34.8637 25.6859 35.7411H23.5299C23.5112 35.4051 23.3665 35.1297 23.0959 34.9151C22.8345 34.6911 22.4845 34.5791 22.0459 34.5791C21.6632 34.5791 21.3552 34.6771 21.1219 34.8731C20.8979 35.0691 20.7859 35.3537 20.7859 35.7271C20.7859 35.9884 20.8699 36.2077 21.0379 36.3851C21.2152 36.5531 21.4299 36.6931 21.6819 36.8051C21.9432 36.9077 22.3072 37.0291 22.7739 37.1691C23.4085 37.3557 23.9265 37.5424 24.3279 37.7291C24.7292 37.9157 25.0745 38.1957 25.3639 38.5691C25.6532 38.9424 25.7979 39.4324 25.7979 40.0391C25.7979 40.5617 25.6625 41.0471 25.3919 41.4951C25.1212 41.9431 24.7245 42.3024 24.2019 42.5731C23.6792 42.8344 23.0585 42.9651 22.3399 42.9651Z" fill="black"/>
<path d="M34.1471 33.0951V34.6771H31.5431V42.8671H29.5831V34.6771H26.9791V33.0951H34.1471Z" fill="black"/>
<path d="M40.1132 42.9651C39.1985 42.9651 38.3585 42.7504 37.5932 42.3211C36.8279 41.8917 36.2212 41.2991 35.7732 40.5431C35.3252 39.7777 35.1012 38.9144 35.1012 37.9531C35.1012 37.0011 35.3252 36.1471 35.7732 35.3911C36.2212 34.6257 36.8279 34.0284 37.5932 33.5991C38.3585 33.1697 39.1985 32.9551 40.1132 32.9551C41.0372 32.9551 41.8772 33.1697 42.6332 33.5991C43.3985 34.0284 44.0005 34.6257 44.4392 35.3911C44.8872 36.1471 45.1112 37.0011 45.1112 37.9531C45.1112 38.9144 44.8872 39.7777 44.4392 40.5431C44.0005 41.2991 43.3985 41.8917 42.6332 42.3211C41.8679 42.7504 41.0279 42.9651 40.1132 42.9651ZM40.1132 41.2151C40.7012 41.2151 41.2192 41.0844 41.6672 40.8231C42.1152 40.5524 42.4652 40.1697 42.7172 39.6751C42.9692 39.1804 43.0952 38.6064 43.0952 37.9531C43.0952 37.2997 42.9692 36.7304 42.7172 36.2451C42.4652 35.7504 42.1152 35.3724 41.6672 35.1111C41.2192 34.8497 40.7012 34.7191 40.1132 34.7191C39.5252 34.7191 39.0025 34.8497 38.5452 35.1111C38.0972 35.3724 37.7472 35.7504 37.4952 36.2451C37.2432 36.7304 37.1172 37.2997 37.1172 37.9531C37.1172 38.6064 37.2432 39.1804 37.4952 39.6751C37.7472 40.1697 38.0972 40.5524 38.5452 40.8231C39.0025 41.0844 39.5252 41.2151 40.1132 41.2151Z" fill="black"/>
<path d="M51.6094 42.8671L49.4534 39.0591H48.5294V42.8671H46.5694V33.0951H50.2374C50.9934 33.0951 51.6374 33.2304 52.1694 33.5011C52.7014 33.7624 53.098 34.1217 53.3594 34.5791C53.6301 35.0271 53.7654 35.5311 53.7654 36.0911C53.7654 36.7351 53.5787 37.3184 53.2054 37.8411C52.8321 38.3544 52.2767 38.7091 51.5394 38.9051L53.8774 42.8671H51.6094ZM48.5294 37.5891H50.1674C50.6994 37.5891 51.0961 37.4631 51.3574 37.2111C51.6187 36.9497 51.7494 36.5904 51.7494 36.1331C51.7494 35.6851 51.6187 35.3397 51.3574 35.0971C51.0961 34.8451 50.6994 34.7191 50.1674 34.7191H48.5294V37.5891Z" fill="black"/>
<path d="M61.5301 41.0051H57.6381L56.9941 42.8671H54.9361L58.4501 33.0811H60.7321L64.2461 42.8671H62.1741L61.5301 41.0051ZM60.9981 39.4371L59.5841 35.3491L58.1701 39.4371H60.9981Z" fill="black"/>
<path d="M72.3636 36.0351C72.1396 35.6244 71.8316 35.3117 71.4396 35.0971C71.0476 34.8824 70.5903 34.7751 70.0676 34.7751C69.4889 34.7751 68.9756 34.9057 68.5276 35.1671C68.0796 35.4284 67.7296 35.8017 67.4776 36.2871C67.2256 36.7724 67.0996 37.3324 67.0996 37.9671C67.0996 38.6204 67.2256 39.1897 67.4776 39.6751C67.7389 40.1604 68.0983 40.5337 68.5556 40.7951C69.013 41.0564 69.5449 41.1871 70.1516 41.1871C70.8983 41.1871 71.5096 40.9911 71.9856 40.5991C72.4616 40.1977 72.7743 39.6424 72.9236 38.9331H69.5636V37.4351H74.8556V39.1431C74.725 39.8244 74.445 40.4544 74.0156 41.0331C73.5863 41.6117 73.0309 42.0784 72.3496 42.4331C71.6776 42.7784 70.9216 42.9511 70.0816 42.9511C69.139 42.9511 68.285 42.7411 67.5196 42.3211C66.7636 41.8917 66.1663 41.2991 65.7276 40.5431C65.2983 39.7871 65.0836 38.9284 65.0836 37.9671C65.0836 37.0057 65.2983 36.1471 65.7276 35.3911C66.1663 34.6257 66.7636 34.0331 67.5196 33.6131C68.285 33.1837 69.1343 32.9691 70.0676 32.9691C71.1689 32.9691 72.1256 33.2397 72.9376 33.7811C73.7496 34.3131 74.3096 35.0644 74.6176 36.0351H72.3636Z" fill="black"/>
<path d="M78.2657 34.6771V37.1271H81.5557V38.6811H78.2657V41.2711H81.9757V42.8671H76.3057V33.0811H81.9757V34.6771H78.2657Z" fill="black"/>
<path fill-rule="evenodd" clip-rule="evenodd" d="M95.84 3.39467V0.233887H80.2808V3.39467H86.5805L86.5811 23.4268H89.5397L89.5391 3.39467H95.84ZM47.6704 13.8116V0.350122H44.7117V13.8116L44.714 14.0886C44.8107 20.0494 48.0461 23.2658 53.8945 23.2658C59.8235 23.2658 63.1051 19.9656 63.203 13.8386L63.2033 0.350122H60.2446V13.8116L60.2391 14.042C60.1049 18.225 58.1594 20.1051 53.8945 20.1051C49.5616 20.1051 47.6704 18.172 47.6704 13.8116ZM72.8166 0.350122V20.1051H79.4736V23.2658H69.858V0.350122H72.8166ZM41.6343 23.2654L31.2761 0.350122H28.6991L19.4452 23.2654H22.6672L25.6643 15.8419H34.9922L38.348 23.2654H41.6343ZM3.22344 0.350122L10.2687 17.7282L17.3909 0.350122H20.621L11.2286 23.2657H9.28996L0 0.350122H3.22344ZM26.9417 12.6872L30.0675 4.94965L33.5639 12.6872H26.9417Z" fill="black"/>
</svg>
