<svg width="96" height="48" viewBox="0 0 96 48" fill="none" xmlns="http://www.w3.org/2000/svg">
<path d="M22.34 42.9652C21.6587 42.9652 21.0427 42.8485 20.492 42.6152C19.9507 42.3819 19.5213 42.0459 19.204 41.6072C18.8867 41.1685 18.7233 40.6505 18.714 40.0532H20.814C20.842 40.4545 20.982 40.7719 21.234 41.0052C21.4953 41.2385 21.85 41.3552 22.298 41.3552C22.7553 41.3552 23.1147 41.2479 23.376 41.0332C23.6373 40.8092 23.768 40.5199 23.768 40.1652C23.768 39.8759 23.6793 39.6379 23.502 39.4512C23.3247 39.2645 23.1007 39.1199 22.83 39.0172C22.5687 38.9052 22.2047 38.7839 21.738 38.6532C21.1033 38.4665 20.5853 38.2845 20.184 38.1072C19.792 37.9205 19.4513 37.6452 19.162 37.2812C18.882 36.9079 18.742 36.4132 18.742 35.7972C18.742 35.2185 18.8867 34.7145 19.176 34.2852C19.4653 33.8559 19.8713 33.5292 20.394 33.3052C20.9167 33.0719 21.514 32.9552 22.186 32.9552C23.194 32.9552 24.0107 33.2025 24.636 33.6972C25.2707 34.1825 25.6207 34.8639 25.686 35.7412H23.53C23.5113 35.4052 23.3667 35.1299 23.096 34.9152C22.8347 34.6912 22.4847 34.5792 22.046 34.5792C21.6633 34.5792 21.3553 34.6772 21.122 34.8732C20.898 35.0692 20.786 35.3539 20.786 35.7272C20.786 35.9885 20.87 36.2079 21.038 36.3852C21.2153 36.5532 21.43 36.6932 21.682 36.8052C21.9433 36.9079 22.3073 37.0292 22.774 37.1692C23.4087 37.3559 23.9267 37.5425 24.328 37.7292C24.7293 37.9159 25.0747 38.1959 25.364 38.5692C25.6533 38.9425 25.798 39.4325 25.798 40.0392C25.798 40.5619 25.6627 41.0472 25.392 41.4952C25.1213 41.9432 24.7247 42.3025 24.202 42.5732C23.6793 42.8345 23.0587 42.9652 22.34 42.9652ZM34.1473 33.0952V34.6772H31.5433V42.8672H29.5833V34.6772H26.9793V33.0952H34.1473ZM40.1133 42.9652C39.1987 42.9652 38.3587 42.7505 37.5933 42.3212C36.828 41.8919 36.2213 41.2992 35.7733 40.5432C35.3253 39.7779 35.1013 38.9145 35.1013 37.9532C35.1013 37.0012 35.3253 36.1472 35.7733 35.3912C36.2213 34.6259 36.828 34.0285 37.5933 33.5992C38.3587 33.1699 39.1987 32.9552 40.1133 32.9552C41.0373 32.9552 41.8773 33.1699 42.6333 33.5992C43.3987 34.0285 44.0007 34.6259 44.4393 35.3912C44.8873 36.1472 45.1113 37.0012 45.1113 37.9532C45.1113 38.9145 44.8873 39.7779 44.4393 40.5432C44.0007 41.2992 43.3987 41.8919 42.6333 42.3212C41.868 42.7505 41.028 42.9652 40.1133 42.9652ZM40.1133 41.2152C40.7013 41.2152 41.2193 41.0845 41.6673 40.8232C42.1153 40.5525 42.4653 40.1699 42.7173 39.6752C42.9693 39.1805 43.0953 38.6065 43.0953 37.9532C43.0953 37.2999 42.9693 36.7305 42.7173 36.2452C42.4653 35.7505 42.1153 35.3725 41.6673 35.1112C41.2193 34.8499 40.7013 34.7192 40.1133 34.7192C39.5253 34.7192 39.0027 34.8499 38.5453 35.1112C38.0973 35.3725 37.7473 35.7505 37.4953 36.2452C37.2433 36.7305 37.1173 37.2999 37.1173 37.9532C37.1173 38.6065 37.2433 39.1805 37.4953 39.6752C37.7473 40.1699 38.0973 40.5525 38.5453 40.8232C39.0027 41.0845 39.5253 41.2152 40.1133 41.2152ZM51.6095 42.8672L49.4535 39.0592H48.5295V42.8672H46.5695V33.0952H50.2375C50.9935 33.0952 51.6375 33.2305 52.1695 33.5012C52.7015 33.7625 53.0982 34.1219 53.3595 34.5792C53.6302 35.0272 53.7655 35.5312 53.7655 36.0912C53.7655 36.7352 53.5788 37.3185 53.2055 37.8412C52.8322 38.3545 52.2768 38.7092 51.5395 38.9052L53.8775 42.8672H51.6095ZM48.5295 37.5892H50.1675C50.6995 37.5892 51.0962 37.4632 51.3575 37.2112C51.6188 36.9499 51.7495 36.5905 51.7495 36.1332C51.7495 35.6852 51.6188 35.3399 51.3575 35.0972C51.0962 34.8452 50.6995 34.7192 50.1675 34.7192H48.5295V37.5892ZM61.5303 41.0052H57.6383L56.9943 42.8672H54.9363L58.4503 33.0812H60.7323L64.2463 42.8672H62.1743L61.5303 41.0052ZM60.9983 39.4372L59.5843 35.3492L58.1703 39.4372H60.9983ZM72.3638 36.0352C72.1398 35.6245 71.8318 35.3119 71.4398 35.0972C71.0478 34.8825 70.5904 34.7752 70.0678 34.7752C69.4891 34.7752 68.9758 34.9059 68.5278 35.1672C68.0798 35.4285 67.7298 35.8019 67.4778 36.2872C67.2258 36.7725 67.0998 37.3325 67.0998 37.9672C67.0998 38.6205 67.2258 39.1899 67.4778 39.6752C67.7391 40.1605 68.0984 40.5339 68.5558 40.7952C69.0131 41.0565 69.5451 41.1872 70.1518 41.1872C70.8984 41.1872 71.5098 40.9912 71.9857 40.5992C72.4618 40.1979 72.7744 39.6425 72.9238 38.9332H69.5638V37.4352H74.8558V39.1432C74.7251 39.8245 74.4451 40.4545 74.0158 41.0332C73.5864 41.6119 73.0311 42.0785 72.3498 42.4332C71.6778 42.7785 70.9218 42.9512 70.0818 42.9512C69.1391 42.9512 68.2851 42.7412 67.5198 42.3212C66.7638 41.8919 66.1664 41.2992 65.7278 40.5432C65.2984 39.7872 65.0838 38.9285 65.0838 37.9672C65.0838 37.0059 65.2984 36.1472 65.7278 35.3912C66.1664 34.6259 66.7638 34.0332 67.5198 33.6132C68.2851 33.1839 69.1344 32.9692 70.0678 32.9692C71.1691 32.9692 72.1258 33.2399 72.9378 33.7812C73.7498 34.3132 74.3098 35.0645 74.6178 36.0352H72.3638ZM78.2658 34.6772V37.1272H81.5558V38.6812H78.2658V41.2712H81.9758V42.8672H76.3058V33.0812H81.9758V34.6772H78.2658Z" fill="white"/>
<path fill-rule="evenodd" clip-rule="evenodd" d="M95.84 3.39467V0.233887H80.2808V3.39467H86.5805L86.5811 23.4268H89.5397L89.5391 3.39467H95.84ZM47.6704 13.8116V0.350122H44.7117V13.8116L44.714 14.0886C44.8107 20.0494 48.0461 23.2658 53.8945 23.2658C59.8235 23.2658 63.1051 19.9656 63.203 13.8386L63.2033 0.350122H60.2446V13.8116L60.2391 14.042C60.1049 18.225 58.1594 20.1051 53.8945 20.1051C49.5616 20.1051 47.6704 18.172 47.6704 13.8116ZM72.8166 0.350122V20.1051H79.4736V23.2658H69.858V0.350122H72.8166ZM41.6343 23.2654L31.2761 0.350122H28.6991L19.4452 23.2654H22.6672L25.6643 15.8419H34.9922L38.348 23.2654H41.6343ZM3.22344 0.350122L10.2687 17.7282L17.3909 0.350122H20.621L11.2286 23.2657H9.28996L0 0.350122H3.22344ZM26.9417 12.6872L30.0675 4.94965L33.5639 12.6872H26.9417Z" fill="white"/>
</svg>
