<svg width="167" height="63" viewBox="0 0 167 63" fill="none" xmlns="http://www.w3.org/2000/svg">
<path fill-rule="evenodd" clip-rule="evenodd" d="M53.7624 0L34.1688 39.2967H37.516L43.7216 26.7703H63.5237L69.7285 39.2967H73.0757L53.7624 0ZM30.2616 1.0872L17.0129 33.5617L3.34721 1.0872H0L17.0129 40.7646L33.6088 1.0872H30.2616ZM62.4055 25.2105L53.6892 6.09144L44.8337 25.2105H62.4055ZM82.0008 1.0872V24.9553C82.0008 28.5618 82.2102 30.9083 83.9534 33.1975C86.6726 36.804 91.763 37.6052 94.7607 37.6052C97.7593 37.6052 102.85 36.804 105.569 33.1975C107.312 30.9083 107.521 28.5618 107.521 24.9553V1.0872H110.589V24.9553C110.589 29.1341 110.311 31.8812 107.939 34.7428C104.453 38.9215 98.9445 39.8945 94.7607 39.8945C90.5778 39.8945 85.0695 38.9215 81.583 34.7428C79.2116 31.8812 78.9331 29.1341 78.9331 24.9553V1.0872H82.0008ZM126.207 37.0051V1.0872H123.139V39.2963H139.176V37.0051H126.207ZM154.864 3.38009V39.298H151.795V3.38009H139.733V1.08894H166.926V3.38009H154.864ZM94.7491 51.7314C96.238 51.7314 97.6568 52.3939 98.6431 53.5605V52.5498C98.2979 52.2189 96.9647 51.0349 94.7673 51.0349C91.4443 51.0349 88.7788 53.6824 88.7788 57.0256C88.7788 60.2659 91.3405 62.9996 94.8019 62.9996C96.0477 62.9996 97.4665 62.5992 98.6431 61.5544V60.5437C97.4665 61.833 95.9257 62.3032 94.7673 62.3032C92.4297 62.3032 89.5747 60.5088 89.5747 57.0612C89.5747 54.1177 91.7895 51.7314 94.7491 51.7314ZM107.171 63C103.779 63 101.183 60.3699 101.183 57.0259C101.183 53.6819 103.796 51.0353 107.171 51.0353C110.545 51.0353 113.159 53.6819 113.159 57.0259C113.159 60.3699 110.545 63 107.171 63ZM101.979 57.026C101.979 54.0063 104.195 51.6567 107.172 51.6567C110.148 51.6567 112.363 54.0063 112.363 57.026C112.363 60.0289 110.148 62.3784 107.172 62.3784C104.195 62.3784 101.979 60.0289 101.979 57.026ZM117.447 51.1748V58.4478C117.447 59.5463 117.499 60.2612 117.932 60.9587C118.607 62.0573 119.871 62.3022 120.615 62.3022C121.359 62.3022 122.622 62.0573 123.297 60.9587C123.73 60.2612 123.781 59.5463 123.781 58.4478V51.1748H124.543V58.4478C124.543 59.7207 124.474 60.5577 123.885 61.4295C123.02 62.7033 121.653 62.9997 120.615 62.9997C119.576 62.9997 118.209 62.7033 117.344 61.4295C116.755 60.5577 116.686 59.7207 116.686 58.4478V51.1748H117.447ZM131.137 62.8284V51.8739H134.131V51.1752H127.381V51.8739H130.376V62.8284H131.137ZM137.728 51.1748V58.4478C137.728 59.5463 137.78 60.2612 138.212 60.9587C138.887 62.0573 140.151 62.3022 140.895 62.3022C141.639 62.3022 142.902 62.0573 143.578 60.9587C144.01 60.2612 144.061 59.5463 144.061 58.4478V51.1748H144.824V58.4478C144.824 59.7207 144.754 60.5577 144.165 61.4295C143.3 62.7033 141.933 62.9997 140.895 62.9997C139.856 62.9997 138.489 62.7033 137.624 61.4295C137.036 60.5577 136.967 59.7207 136.967 58.4478V51.1748H137.728ZM150.082 57.3248L153.821 62.829H154.686L150.913 57.3248C151.172 57.3248 151.727 57.3073 152.333 57.0977C153.769 56.6086 154.27 55.4207 154.27 54.267C154.27 53.3586 153.976 52.3979 153.076 51.769C152.314 51.245 151.519 51.1751 150.636 51.1751H148.975V62.829H149.736V57.3248H150.082ZM149.736 56.6675H150.843C152.488 56.6675 153.474 55.7723 153.474 54.2316C153.474 53.032 152.903 52.4053 152.453 52.1546C151.968 51.8681 151.138 51.7965 150.689 51.7965H149.736V56.6675ZM158.873 51.8739H163.649V51.1752H158.112V62.8284H163.649V62.1297H158.873V56.8009H163.546V56.1022H158.873V51.8739Z" fill="white"/>
</svg>
