<svg width="120" height="100" viewBox="0 0 120 100" fill="none" xmlns="http://www.w3.org/2000/svg">
<path d="M68.234 39L65.504 29.76H66.666L68.948 37.978L71.118 29.76H72.392L74.562 38.006L76.844 29.76H77.95L75.234 39H73.848L72.21 33.008L71.734 30.922H71.72L71.244 33.008L69.62 39H68.234ZM80.5251 31.86C80.7958 31.86 81.0151 31.944 81.1831 32.112C81.3511 32.28 81.4351 32.4993 81.4351 32.77C81.4351 33.0407 81.3511 33.26 81.1831 33.428C81.0151 33.596 80.7958 33.68 80.5251 33.68C80.2545 33.68 80.0351 33.596 79.8671 33.428C79.6991 33.26 79.6151 33.0407 79.6151 32.77C79.6151 32.4993 79.6991 32.28 79.8671 32.112C80.0351 31.944 80.2545 31.86 80.5251 31.86ZM80.5251 37.32C80.7958 37.32 81.0151 37.404 81.1831 37.572C81.3511 37.74 81.4351 37.9593 81.4351 38.23C81.4351 38.5007 81.3511 38.72 81.1831 38.888C81.0151 39.056 80.7958 39.14 80.5251 39.14C80.2545 39.14 80.0351 39.056 79.8671 38.888C79.6991 38.72 79.6151 38.5007 79.6151 38.23C79.6151 37.9593 79.6991 37.74 79.8671 37.572C80.0351 37.404 80.2545 37.32 80.5251 37.32ZM88.2772 39V37.684C89.1172 37.124 89.8265 36.6153 90.4052 36.158C90.9932 35.6913 91.4645 35.262 91.8192 34.87C92.1832 34.4687 92.4445 34.0907 92.6032 33.736C92.7712 33.3813 92.8552 33.0267 92.8552 32.672C92.8552 32.2427 92.7245 31.8927 92.4632 31.622C92.2019 31.342 91.8332 31.202 91.3572 31.202C90.8345 31.202 90.4239 31.3793 90.1252 31.734C89.8359 32.0887 89.6772 32.5927 89.6492 33.246L87.9832 32.616C88.0299 31.9813 88.1979 31.4447 88.4872 31.006C88.7859 30.558 89.1872 30.2173 89.6912 29.984C90.2045 29.7413 90.7972 29.62 91.4692 29.62C92.0292 29.62 92.5145 29.6993 92.9252 29.858C93.3452 30.0167 93.6952 30.236 93.9752 30.516C94.2552 30.7867 94.4605 31.0993 94.5912 31.454C94.7312 31.8087 94.8012 32.1773 94.8012 32.56C94.8012 33.1573 94.6519 33.722 94.3532 34.254C94.0639 34.786 93.6159 35.3133 93.0092 35.836C92.4025 36.3587 91.6325 36.9093 90.6992 37.488V37.502C90.8392 37.4927 91.0072 37.4833 91.2032 37.474C91.4085 37.4647 91.6185 37.46 91.8332 37.46C92.0479 37.4507 92.2345 37.446 92.3932 37.446H94.9412V39H88.2772ZM100.091 39.14C98.9053 39.14 97.9907 38.7387 97.3467 37.936C96.712 37.1333 96.3947 35.948 96.3947 34.38C96.3947 32.812 96.712 31.6267 97.3467 30.824C97.9907 30.0213 98.9053 29.62 100.091 29.62C101.276 29.62 102.186 30.0213 102.821 30.824C103.465 31.6267 103.787 32.812 103.787 34.38C103.787 35.948 103.465 37.1333 102.821 37.936C102.186 38.7387 101.276 39.14 100.091 39.14ZM100.091 37.586C100.492 37.586 100.819 37.474 101.071 37.25C101.332 37.0167 101.528 36.6667 101.659 36.2C101.789 35.724 101.855 35.1173 101.855 34.38C101.855 33.6427 101.789 33.0407 101.659 32.574C101.528 32.098 101.332 31.748 101.071 31.524C100.819 31.2907 100.492 31.174 100.091 31.174C99.6893 31.174 99.358 31.2907 99.0967 31.524C98.8353 31.748 98.6393 32.098 98.5087 32.574C98.3873 33.0407 98.3267 33.6427 98.3267 34.38C98.3267 35.1173 98.3873 35.724 98.5087 36.2C98.6393 36.6667 98.8353 37.0167 99.0967 37.25C99.358 37.474 99.6893 37.586 100.091 37.586ZM112.784 28.794C113.111 28.794 113.405 28.8313 113.666 28.906C113.937 28.9713 114.138 29.0553 114.268 29.158L114.002 30.432C113.9 30.3667 113.783 30.3153 113.652 30.278C113.522 30.2407 113.368 30.222 113.19 30.222C112.826 30.222 112.537 30.306 112.322 30.474C112.108 30.6327 112 30.908 112 31.3V32.266L112.084 32.644V39H110.166V31.16C110.166 30.768 110.232 30.4227 110.362 30.124C110.493 29.8253 110.675 29.578 110.908 29.382C111.142 29.186 111.417 29.0413 111.734 28.948C112.061 28.8453 112.411 28.794 112.784 28.794ZM114.212 32V33.428H108.948V32H114.212ZM117.281 29.858V36.718C117.281 37.054 117.365 37.3013 117.533 37.46C117.71 37.6093 117.948 37.684 118.247 37.684C118.49 37.684 118.695 37.6513 118.863 37.586C119.04 37.5113 119.199 37.4133 119.339 37.292L119.647 38.566C119.423 38.7433 119.143 38.8833 118.807 38.986C118.471 39.0887 118.116 39.14 117.743 39.14C117.276 39.14 116.861 39.07 116.497 38.93C116.142 38.79 115.862 38.566 115.657 38.258C115.461 37.95 115.363 37.5393 115.363 37.026V30.39L117.281 29.858ZM119.521 32V33.428H114.075V32H119.521Z" fill="#979797"/>
<path d="M37.494 87.76C38.9407 87.76 40.0747 88.1613 40.896 88.964C41.7267 89.7573 42.142 90.896 42.142 92.38C42.142 93.864 41.7267 95.0073 40.896 95.81C40.0747 96.6033 38.9407 97 37.494 97H34.512V87.76H37.494ZM37.606 95.95C38.6607 95.95 39.482 95.6373 40.07 95.012C40.6673 94.3773 40.966 93.5 40.966 92.38C40.966 91.26 40.6673 90.3873 40.07 89.762C39.482 89.1273 38.6607 88.81 37.606 88.81H35.632V95.95H37.606ZM45.1618 89.86C45.4325 89.86 45.6518 89.944 45.8198 90.112C45.9878 90.28 46.0718 90.4993 46.0718 90.77C46.0718 91.0407 45.9878 91.26 45.8198 91.428C45.6518 91.596 45.4325 91.68 45.1618 91.68C44.8912 91.68 44.6718 91.596 44.5038 91.428C44.3358 91.26 44.2518 91.0407 44.2518 90.77C44.2518 90.4993 44.3358 90.28 44.5038 90.112C44.6718 89.944 44.8912 89.86 45.1618 89.86ZM45.1618 95.32C45.4325 95.32 45.6518 95.404 45.8198 95.572C45.9878 95.74 46.0718 95.9593 46.0718 96.23C46.0718 96.5007 45.9878 96.72 45.8198 96.888C45.6518 97.056 45.4325 97.14 45.1618 97.14C44.8912 97.14 44.6718 97.056 44.5038 96.888C44.3358 96.72 44.2518 96.5007 44.2518 96.23C44.2518 95.9593 44.3358 95.74 44.5038 95.572C44.6718 95.404 44.8912 95.32 45.1618 95.32ZM52.9139 97V95.684C53.7539 95.124 54.4632 94.6153 55.0419 94.158C55.6299 93.6913 56.1012 93.262 56.4559 92.87C56.8199 92.4687 57.0812 92.0907 57.2399 91.736C57.4079 91.3813 57.4919 91.0267 57.4919 90.672C57.4919 90.2427 57.3612 89.8927 57.0999 89.622C56.8386 89.342 56.4699 89.202 55.9939 89.202C55.4712 89.202 55.0606 89.3793 54.7619 89.734C54.4726 90.0887 54.3139 90.5927 54.2859 91.246L52.6199 90.616C52.6666 89.9813 52.8346 89.4447 53.1239 89.006C53.4226 88.558 53.8239 88.2173 54.3279 87.984C54.8412 87.7413 55.4339 87.62 56.1059 87.62C56.6659 87.62 57.1512 87.6993 57.5619 87.858C57.9819 88.0167 58.3319 88.236 58.6119 88.516C58.8919 88.7867 59.0972 89.0993 59.2279 89.454C59.3679 89.8087 59.4379 90.1773 59.4379 90.56C59.4379 91.1573 59.2886 91.722 58.9899 92.254C58.7006 92.786 58.2526 93.3133 57.6459 93.836C57.0392 94.3587 56.2692 94.9093 55.3359 95.488V95.502C55.4759 95.4927 55.6439 95.4833 55.8399 95.474C56.0452 95.4647 56.2552 95.46 56.4699 95.46C56.6846 95.4507 56.8712 95.446 57.0299 95.446H59.5779V97H52.9139ZM64.7274 97.14C63.5421 97.14 62.6274 96.7387 61.9834 95.936C61.3487 95.1333 61.0314 93.948 61.0314 92.38C61.0314 90.812 61.3487 89.6267 61.9834 88.824C62.6274 88.0213 63.5421 87.62 64.7274 87.62C65.9127 87.62 66.8227 88.0213 67.4574 88.824C68.1014 89.6267 68.4234 90.812 68.4234 92.38C68.4234 93.948 68.1014 95.1333 67.4574 95.936C66.8227 96.7387 65.9127 97.14 64.7274 97.14ZM64.7274 95.586C65.1287 95.586 65.4554 95.474 65.7074 95.25C65.9687 95.0167 66.1647 94.6667 66.2954 94.2C66.4261 93.724 66.4914 93.1173 66.4914 92.38C66.4914 91.6427 66.4261 91.0407 66.2954 90.574C66.1647 90.098 65.9687 89.748 65.7074 89.524C65.4554 89.2907 65.1287 89.174 64.7274 89.174C64.3261 89.174 63.9947 89.2907 63.7334 89.524C63.4721 89.748 63.2761 90.098 63.1454 90.574C63.0241 91.0407 62.9634 91.6427 62.9634 92.38C62.9634 93.1173 63.0241 93.724 63.1454 94.2C63.2761 94.6667 63.4721 95.0167 63.7334 95.25C63.9947 95.474 64.3261 95.586 64.7274 95.586ZM77.421 86.794C77.7477 86.794 78.0417 86.8313 78.303 86.906C78.5737 86.9713 78.7743 87.0553 78.905 87.158L78.639 88.432C78.5363 88.3667 78.4197 88.3153 78.289 88.278C78.1583 88.2407 78.0043 88.222 77.827 88.222C77.463 88.222 77.1737 88.306 76.959 88.474C76.7443 88.6327 76.637 88.908 76.637 89.3V90.266L76.721 90.644V97H74.803V89.16C74.803 88.768 74.8683 88.4227 74.999 88.124C75.1297 87.8253 75.3117 87.578 75.545 87.382C75.7783 87.186 76.0537 87.0413 76.371 86.948C76.6977 86.8453 77.0477 86.794 77.421 86.794ZM78.849 90V91.428H73.585V90H78.849ZM81.9176 87.858V94.718C81.9176 95.054 82.0016 95.3013 82.1696 95.46C82.347 95.6093 82.585 95.684 82.8836 95.684C83.1263 95.684 83.3316 95.6513 83.4996 95.586C83.677 95.5113 83.8356 95.4133 83.9756 95.292L84.2836 96.566C84.0596 96.7433 83.7796 96.8833 83.4436 96.986C83.1076 97.0887 82.753 97.14 82.3796 97.14C81.913 97.14 81.4976 97.07 81.1336 96.93C80.779 96.79 80.499 96.566 80.2936 96.258C80.0976 95.95 79.9996 95.5393 79.9996 95.026V88.39L81.9176 87.858ZM84.1576 90V91.428H78.7116V90H84.1576Z" fill="#979797"/>
<path d="M21 17V62L59 83" stroke="#DDDDDD"/>
<path d="M61 41L21 62" stroke="#DDDDDD"/>
<path d="M8.764 3.76V13H7.644V3.76H8.764ZM2.632 3.76V13H1.512V3.76H2.632ZM8.162 7.792V8.842H2.1V7.792H8.162ZM12.3533 5.86C12.6239 5.86 12.8433 5.944 13.0113 6.112C13.1793 6.28 13.2633 6.49933 13.2633 6.77C13.2633 7.04067 13.1793 7.26 13.0113 7.428C12.8433 7.596 12.6239 7.68 12.3533 7.68C12.0826 7.68 11.8633 7.596 11.6953 7.428C11.5273 7.26 11.4433 7.04067 11.4433 6.77C11.4433 6.49933 11.5273 6.28 11.6953 6.112C11.8633 5.944 12.0826 5.86 12.3533 5.86ZM12.3533 11.32C12.6239 11.32 12.8433 11.404 13.0113 11.572C13.1793 11.74 13.2633 11.9593 13.2633 12.23C13.2633 12.5007 13.1793 12.72 13.0113 12.888C12.8433 13.056 12.6239 13.14 12.3533 13.14C12.0826 13.14 11.8633 13.056 11.6953 12.888C11.5273 12.72 11.4433 12.5007 11.4433 12.23C11.4433 11.9593 11.5273 11.74 11.6953 11.572C11.8633 11.404 12.0826 11.32 12.3533 11.32ZM19.6853 3.76H27.0073V5.23C26.2326 6.00467 25.6166 6.80267 25.1593 7.624C24.702 8.44533 24.3706 9.29933 24.1653 10.186C23.9693 11.0727 23.8713 12.0107 23.8713 13H21.9533C21.9533 11.9733 22.0793 10.9887 22.3313 10.046C22.5926 9.094 22.9893 8.18867 23.5213 7.33C24.0626 6.462 24.7486 5.63133 25.5793 4.838L25.9713 5.342H19.6853V3.76ZM35.3429 2.794C35.6696 2.794 35.9636 2.83133 36.2249 2.906C36.4956 2.97133 36.6962 3.05533 36.8269 3.158L36.5609 4.432C36.4582 4.36667 36.3416 4.31533 36.2109 4.278C36.0802 4.24067 35.9262 4.222 35.7489 4.222C35.3849 4.222 35.0956 4.306 34.8809 4.474C34.6662 4.63267 34.5589 4.908 34.5589 5.3V6.266L34.6429 6.644V13H32.7249V5.16C32.7249 4.768 32.7902 4.42267 32.9209 4.124C33.0516 3.82533 33.2336 3.578 33.4669 3.382C33.7002 3.186 33.9756 3.04133 34.2929 2.948C34.6196 2.84533 34.9696 2.794 35.3429 2.794ZM36.7709 6V7.428H31.5069V6H36.7709ZM39.8395 3.858V10.718C39.8395 11.054 39.9235 11.3013 40.0915 11.46C40.2688 11.6093 40.5068 11.684 40.8055 11.684C41.0482 11.684 41.2535 11.6513 41.4215 11.586C41.5988 11.5113 41.7575 11.4133 41.8975 11.292L42.2055 12.566C41.9815 12.7433 41.7015 12.8833 41.3655 12.986C41.0295 13.0887 40.6748 13.14 40.3015 13.14C39.8348 13.14 39.4195 13.07 39.0555 12.93C38.7008 12.79 38.4208 12.566 38.2155 12.258C38.0195 11.95 37.9215 11.5393 37.9215 11.026V4.39L39.8395 3.858ZM42.0795 6V7.428H36.6335V6H42.0795Z" fill="#979797"/>
</svg>
