<svg width="192" height="80" viewBox="0 0 192 80" fill="none" xmlns="http://www.w3.org/2000/svg">
<path d="M109.82 40.98L104.3 32.8H106.52L110.74 39.12L114.98 32.8H117.2L111.66 41V47H109.82V40.98ZM121.251 47.2C120.491 47.2 119.791 47.0667 119.151 46.8C118.511 46.52 117.958 46.1467 117.491 45.68C117.025 45.2133 116.658 44.6667 116.391 44.04C116.138 43.4 116.011 42.72 116.011 42C116.011 41.28 116.138 40.6067 116.391 39.98C116.658 39.34 117.025 38.7867 117.491 38.32C117.958 37.8533 118.511 37.4867 119.151 37.22C119.791 36.94 120.491 36.8 121.251 36.8C121.998 36.8 122.691 36.94 123.331 37.22C123.971 37.4867 124.525 37.8533 124.991 38.32C125.458 38.7867 125.818 39.34 126.071 39.98C126.338 40.6067 126.471 41.28 126.471 42C126.471 42.72 126.338 43.4 126.071 44.04C125.818 44.6667 125.458 45.2133 124.991 45.68C124.525 46.1467 123.971 46.52 123.331 46.8C122.691 47.0667 121.998 47.2 121.251 47.2ZM121.251 45.6C121.771 45.6 122.245 45.5067 122.671 45.32C123.098 45.1333 123.458 44.88 123.751 44.56C124.058 44.2267 124.291 43.8467 124.451 43.42C124.625 42.98 124.711 42.5067 124.711 42C124.711 41.5067 124.625 41.04 124.451 40.6C124.291 40.16 124.058 39.78 123.751 39.46C123.458 39.1267 123.098 38.8667 122.671 38.68C122.245 38.4933 121.771 38.4 121.251 38.4C120.731 38.4 120.258 38.4933 119.831 38.68C119.405 38.8667 119.038 39.1267 118.731 39.46C118.425 39.78 118.185 40.16 118.011 40.6C117.851 41.04 117.771 41.5067 117.771 42C117.771 42.5067 117.851 42.98 118.011 43.42C118.185 43.8467 118.425 44.2267 118.731 44.56C119.038 44.88 119.405 45.1333 119.831 45.32C120.258 45.5067 120.731 45.6 121.251 45.6ZM132.48 47.2C131.934 47.2 131.434 47.1067 130.98 46.92C130.527 46.72 130.14 46.4467 129.82 46.1C129.5 45.7533 129.247 45.3333 129.06 44.84C128.887 44.3333 128.8 43.7667 128.8 43.14V37H130.52V42.88C130.52 43.72 130.72 44.3867 131.12 44.88C131.534 45.3733 132.087 45.62 132.78 45.62C133.167 45.62 133.527 45.54 133.86 45.38C134.207 45.2067 134.5 44.9667 134.74 44.66C134.994 44.34 135.194 43.9533 135.34 43.5C135.487 43.0467 135.56 42.5333 135.56 41.96V37H137.28V47H135.56V45.46C135.227 46.0467 134.787 46.4867 134.24 46.78C133.707 47.06 133.12 47.2 132.48 47.2ZM145.607 32.8H150.267C150.92 32.8 151.507 32.9067 152.027 33.12C152.56 33.32 153.007 33.5933 153.367 33.94C153.74 34.2733 154.02 34.6733 154.207 35.14C154.407 35.5933 154.507 36.0667 154.507 36.56C154.507 37.2667 154.367 37.86 154.087 38.34C153.807 38.8067 153.44 39.18 152.987 39.46C153.68 39.7133 154.26 40.1067 154.727 40.64C155.207 41.1733 155.447 41.9133 155.447 42.86C155.447 43.4467 155.333 43.9933 155.107 44.5C154.88 45.0067 154.56 45.4467 154.147 45.82C153.733 46.1933 153.233 46.4867 152.647 46.7C152.06 46.9 151.407 47 150.687 47H145.607V32.8ZM150.767 45.32C151.727 45.32 152.44 45.1 152.907 44.66C153.387 44.2067 153.627 43.6267 153.627 42.92C153.627 42.2267 153.387 41.6533 152.907 41.2C152.44 40.7333 151.733 40.5 150.787 40.5H147.467V45.32H150.767ZM150.267 38.9C151.027 38.9 151.62 38.6933 152.047 38.28C152.473 37.8667 152.687 37.34 152.687 36.7C152.687 36.1 152.473 35.58 152.047 35.14C151.62 34.7 151.027 34.48 150.267 34.48H147.467V38.9H150.267ZM162.365 47.2C161.605 47.2 160.905 47.0667 160.265 46.8C159.625 46.52 159.071 46.1467 158.605 45.68C158.138 45.2133 157.771 44.6667 157.505 44.04C157.251 43.4 157.125 42.72 157.125 42C157.125 41.28 157.251 40.6067 157.505 39.98C157.771 39.34 158.138 38.7867 158.605 38.32C159.071 37.8533 159.625 37.4867 160.265 37.22C160.905 36.94 161.605 36.8 162.365 36.8C163.111 36.8 163.805 36.94 164.445 37.22C165.085 37.4867 165.638 37.8533 166.105 38.32C166.571 38.7867 166.931 39.34 167.185 39.98C167.451 40.6067 167.585 41.28 167.585 42C167.585 42.72 167.451 43.4 167.185 44.04C166.931 44.6667 166.571 45.2133 166.105 45.68C165.638 46.1467 165.085 46.52 164.445 46.8C163.805 47.0667 163.111 47.2 162.365 47.2ZM162.365 45.6C162.885 45.6 163.358 45.5067 163.785 45.32C164.211 45.1333 164.571 44.88 164.865 44.56C165.171 44.2267 165.405 43.8467 165.565 43.42C165.738 42.98 165.825 42.5067 165.825 42C165.825 41.5067 165.738 41.04 165.565 40.6C165.405 40.16 165.171 39.78 164.865 39.46C164.571 39.1267 164.211 38.8667 163.785 38.68C163.358 38.4933 162.885 38.4 162.365 38.4C161.845 38.4 161.371 38.4933 160.945 38.68C160.518 38.8667 160.151 39.1267 159.845 39.46C159.538 39.78 159.298 40.16 159.125 40.6C158.965 41.04 158.885 41.5067 158.885 42C158.885 42.5067 158.965 42.98 159.125 43.42C159.298 43.8467 159.538 44.2267 159.845 44.56C160.151 44.88 160.518 45.1333 160.945 45.32C161.371 45.5067 161.845 45.6 162.365 45.6ZM174.494 47.2C173.734 47.2 173.034 47.0667 172.394 46.8C171.754 46.52 171.2 46.1467 170.734 45.68C170.267 45.2133 169.9 44.6667 169.634 44.04C169.38 43.4 169.254 42.72 169.254 42C169.254 41.28 169.38 40.6067 169.634 39.98C169.9 39.34 170.267 38.7867 170.734 38.32C171.2 37.8533 171.754 37.4867 172.394 37.22C173.034 36.94 173.734 36.8 174.494 36.8C175.24 36.8 175.934 36.94 176.574 37.22C177.214 37.4867 177.767 37.8533 178.234 38.32C178.7 38.7867 179.06 39.34 179.314 39.98C179.58 40.6067 179.714 41.28 179.714 42C179.714 42.72 179.58 43.4 179.314 44.04C179.06 44.6667 178.7 45.2133 178.234 45.68C177.767 46.1467 177.214 46.52 176.574 46.8C175.934 47.0667 175.24 47.2 174.494 47.2ZM174.494 45.6C175.014 45.6 175.487 45.5067 175.914 45.32C176.34 45.1333 176.7 44.88 176.994 44.56C177.3 44.2267 177.534 43.8467 177.694 43.42C177.867 42.98 177.954 42.5067 177.954 42C177.954 41.5067 177.867 41.04 177.694 40.6C177.534 40.16 177.3 39.78 176.994 39.46C176.7 39.1267 176.34 38.8667 175.914 38.68C175.487 38.4933 175.014 38.4 174.494 38.4C173.974 38.4 173.5 38.4933 173.074 38.68C172.647 38.8667 172.28 39.1267 171.974 39.46C171.667 39.78 171.427 40.16 171.254 40.6C171.094 41.04 171.014 41.5067 171.014 42C171.014 42.5067 171.094 42.98 171.254 43.42C171.427 43.8467 171.667 44.2267 171.974 44.56C172.28 44.88 172.647 45.1333 173.074 45.32C173.5 45.5067 173.974 45.6 174.494 45.6ZM183.903 42V47H182.183V32H183.903V40.9L188.263 37H190.543L185.623 41.42L191.643 47H189.323L183.903 42Z" fill="black"/>
<rect x="5" y="8" width="40" height="70" rx="2" fill="#EBEBDB"/>
<rect x="8" y="11" width="34" height="64" rx="1" fill="white"/>
<rect x="12" y="64" width="26" height="7" rx="1" fill="#F49200"/>
<rect x="18" y="10" width="14" height="4" rx="1" fill="#EBEBDB"/>
<rect x="24" y="11" width="5" height="1" rx="0.5" fill="#CCCCB0"/>
<rect x="21" y="11" width="1" height="1" rx="0.5" fill="#CCCCB0"/>
<circle cx="14" cy="22" r="2" fill="#313131"/>
<circle cx="14" cy="22" r="1" fill="white"/>
<path d="M19 22H34" stroke="#656565" stroke-width="1.2" stroke-linecap="round"/>
<path d="M19 29H34" stroke="#656565" stroke-width="1.2" stroke-linecap="round"/>
<path d="M19 36H34" stroke="#656565" stroke-width="1.2" stroke-linecap="round"/>
<circle cx="14" cy="29" r="2" fill="#EBEBDB"/>
<circle cx="14" cy="36" r="2" fill="#EBEBDB"/>
<rect x="12" y="45" width="26" height="16" rx="1" fill="#EBEBDB"/>
<circle cx="54.5" cy="22.5" r="20.5" fill="#F49200"/>
<path fill-rule="evenodd" clip-rule="evenodd" d="M66 16.4952L52.9829 32.3163C52.6301 32.7451 52.1133 32.9947 51.5671 32.9999C51.021 33.0051 50.4997 32.7655 50.1392 32.3436L43 23.9874L45.8209 21.4377L51.5228 28.1116L63.1334 14L66 16.4952Z" fill="#FFDA97"/>
</svg>
