<svg width="249" height="80" viewBox="0 0 249 80" fill="none" xmlns="http://www.w3.org/2000/svg">
<path d="M113.46 23.36L110 33H108.34L104.46 18.8H106.4L109.36 29.88L113.46 18.56L117.56 29.88L120.54 18.8H122.48L118.6 33H116.94L113.46 23.36ZM128.36 33.2C127.587 33.2 126.88 33.0667 126.24 32.8C125.6 32.5333 125.053 32.1667 124.6 31.7C124.147 31.2333 123.793 30.6867 123.54 30.06C123.3 29.42 123.18 28.7333 123.18 28C123.18 27.2667 123.307 26.5867 123.56 25.96C123.813 25.32 124.167 24.7667 124.62 24.3C125.087 23.8333 125.64 23.4667 126.28 23.2C126.92 22.9333 127.62 22.8 128.38 22.8C129.033 22.8 129.647 22.9133 130.22 23.14C130.793 23.3533 131.293 23.68 131.72 24.12C132.16 24.5467 132.507 25.0733 132.76 25.7C133.013 26.3133 133.14 27.02 133.14 27.82C133.14 27.9133 133.14 28 133.14 28.08C133.14 28.1467 133.133 28.2333 133.12 28.34H124.92C124.933 28.8067 125.027 29.24 125.2 29.64C125.387 30.04 125.627 30.3867 125.92 30.68C126.227 30.9733 126.587 31.2067 127 31.38C127.427 31.54 127.887 31.62 128.38 31.62C129.153 31.62 129.787 31.4667 130.28 31.16C130.787 30.84 131.193 30.4133 131.5 29.88L132.86 30.82C132.407 31.5533 131.8 32.1333 131.04 32.56C130.293 32.9867 129.4 33.2 128.36 33.2ZM131.38 26.94C131.313 26.5267 131.187 26.16 131 25.84C130.827 25.52 130.6 25.2467 130.32 25.02C130.053 24.7933 129.747 24.62 129.4 24.5C129.053 24.38 128.693 24.32 128.32 24.32C127.947 24.32 127.58 24.38 127.22 24.5C126.86 24.62 126.533 24.7933 126.24 25.02C125.947 25.2333 125.693 25.5067 125.48 25.84C125.267 26.16 125.12 26.5267 125.04 26.94H131.38ZM143.425 33.2C142.532 33.2 141.732 33.0133 141.025 32.64C140.318 32.2533 139.812 31.6667 139.505 30.88L140.905 30.1C141.092 30.6067 141.418 31 141.885 31.28C142.365 31.5467 142.885 31.68 143.445 31.68C143.925 31.68 144.332 31.5667 144.665 31.34C145.012 31.1 145.185 30.7667 145.185 30.34C145.185 29.98 145.058 29.68 144.805 29.44C144.552 29.2 144.098 28.98 143.445 28.78L142.445 28.46C141.618 28.22 140.992 27.8533 140.565 27.36C140.152 26.8533 139.945 26.2467 139.945 25.54C139.945 25.1133 140.032 24.7333 140.205 24.4C140.392 24.0533 140.638 23.7667 140.945 23.54C141.265 23.3 141.632 23.12 142.045 23C142.458 22.8667 142.905 22.8 143.385 22.8C144.132 22.8 144.785 22.9533 145.345 23.26C145.905 23.5533 146.352 23.98 146.685 24.54L145.405 25.42C145.178 25.1 144.892 24.8333 144.545 24.62C144.212 24.3933 143.805 24.28 143.325 24.28C142.898 24.28 142.512 24.3867 142.165 24.6C141.832 24.8133 141.665 25.1067 141.665 25.48C141.665 25.7867 141.758 26.06 141.945 26.3C142.145 26.54 142.525 26.7467 143.085 26.92L144.185 27.26C145.052 27.5267 145.718 27.8933 146.185 28.36C146.665 28.8267 146.905 29.44 146.905 30.2C146.905 30.68 146.818 31.1067 146.645 31.48C146.472 31.8533 146.225 32.1667 145.905 32.42C145.598 32.6733 145.232 32.8667 144.805 33C144.378 33.1333 143.918 33.2 143.425 33.2ZM153.191 33.1C152.751 33.1 152.345 33.04 151.971 32.92C151.598 32.7867 151.271 32.6 150.991 32.36C150.725 32.1067 150.511 31.7867 150.351 31.4C150.205 31.0133 150.131 30.56 150.131 30.04V24.58H148.011V23H150.131V20.22H151.851V23H154.731V24.58H151.851V29.82C151.851 30.46 151.991 30.9067 152.271 31.16C152.551 31.4 152.965 31.52 153.511 31.52C153.725 31.52 153.938 31.5067 154.151 31.48C154.378 31.44 154.571 31.3867 154.731 31.32V32.86C154.518 32.9267 154.285 32.98 154.031 33.02C153.778 33.0733 153.498 33.1 153.191 33.1ZM161.232 33.2C160.472 33.2 159.772 33.0667 159.132 32.8C158.492 32.52 157.939 32.1467 157.472 31.68C157.005 31.2133 156.639 30.6667 156.372 30.04C156.119 29.4 155.992 28.72 155.992 28C155.992 27.28 156.119 26.6067 156.372 25.98C156.639 25.34 157.005 24.7867 157.472 24.32C157.939 23.8533 158.492 23.4867 159.132 23.22C159.772 22.94 160.472 22.8 161.232 22.8C161.979 22.8 162.672 22.94 163.312 23.22C163.952 23.4867 164.505 23.8533 164.972 24.32C165.439 24.7867 165.799 25.34 166.052 25.98C166.319 26.6067 166.452 27.28 166.452 28C166.452 28.72 166.319 29.4 166.052 30.04C165.799 30.6667 165.439 31.2133 164.972 31.68C164.505 32.1467 163.952 32.52 163.312 32.8C162.672 33.0667 161.979 33.2 161.232 33.2ZM161.232 31.6C161.752 31.6 162.225 31.5067 162.652 31.32C163.079 31.1333 163.439 30.88 163.732 30.56C164.039 30.2267 164.272 29.8467 164.432 29.42C164.605 28.98 164.692 28.5067 164.692 28C164.692 27.5067 164.605 27.04 164.432 26.6C164.272 26.16 164.039 25.78 163.732 25.46C163.439 25.1267 163.079 24.8667 162.652 24.68C162.225 24.4933 161.752 24.4 161.232 24.4C160.712 24.4 160.239 24.4933 159.812 24.68C159.385 24.8667 159.019 25.1267 158.712 25.46C158.405 25.78 158.165 26.16 157.992 26.6C157.832 27.04 157.752 27.5067 157.752 28C157.752 28.5067 157.832 28.98 157.992 29.42C158.165 29.8467 158.405 30.2267 158.712 30.56C159.019 30.88 159.385 31.1333 159.812 31.32C160.239 31.5067 160.712 31.6 161.232 31.6ZM168.921 23H170.641V24.94C170.734 24.62 170.881 24.3333 171.081 24.08C171.281 23.8267 171.507 23.6133 171.761 23.44C172.014 23.2667 172.281 23.1333 172.561 23.04C172.854 22.9467 173.147 22.9 173.441 22.9C173.707 22.9 173.967 22.9267 174.221 22.98V24.76C174.061 24.6933 173.907 24.6533 173.761 24.64C173.614 24.6133 173.454 24.6 173.281 24.6C172.961 24.6 172.641 24.6733 172.321 24.82C172.014 24.9533 171.734 25.16 171.481 25.44C171.241 25.72 171.041 26.08 170.881 26.52C170.721 26.9467 170.641 27.4533 170.641 28.04V33H168.921V23ZM180.293 33.2C179.52 33.2 178.813 33.0667 178.173 32.8C177.533 32.5333 176.987 32.1667 176.533 31.7C176.08 31.2333 175.727 30.6867 175.473 30.06C175.233 29.42 175.113 28.7333 175.113 28C175.113 27.2667 175.24 26.5867 175.493 25.96C175.747 25.32 176.1 24.7667 176.553 24.3C177.02 23.8333 177.573 23.4667 178.213 23.2C178.853 22.9333 179.553 22.8 180.313 22.8C180.967 22.8 181.58 22.9133 182.153 23.14C182.727 23.3533 183.227 23.68 183.653 24.12C184.093 24.5467 184.44 25.0733 184.693 25.7C184.947 26.3133 185.073 27.02 185.073 27.82C185.073 27.9133 185.073 28 185.073 28.08C185.073 28.1467 185.067 28.2333 185.053 28.34H176.853C176.867 28.8067 176.96 29.24 177.133 29.64C177.32 30.04 177.56 30.3867 177.853 30.68C178.16 30.9733 178.52 31.2067 178.933 31.38C179.36 31.54 179.82 31.62 180.313 31.62C181.087 31.62 181.72 31.4667 182.213 31.16C182.72 30.84 183.127 30.4133 183.433 29.88L184.793 30.82C184.34 31.5533 183.733 32.1333 182.973 32.56C182.227 32.9867 181.333 33.2 180.293 33.2ZM183.313 26.94C183.247 26.5267 183.12 26.16 182.933 25.84C182.76 25.52 182.533 25.2467 182.253 25.02C181.987 24.7933 181.68 24.62 181.333 24.5C180.987 24.38 180.627 24.32 180.253 24.32C179.88 24.32 179.513 24.38 179.153 24.5C178.793 24.62 178.467 24.7933 178.173 25.02C177.88 25.2333 177.627 25.5067 177.413 25.84C177.2 26.16 177.053 26.5267 176.973 26.94H183.313ZM109.74 61.2C109.033 61.2 108.38 61.0667 107.78 60.8C107.193 60.52 106.68 60.1467 106.24 59.68C105.8 59.2 105.453 58.6467 105.2 58.02C104.96 57.3933 104.84 56.72 104.84 56C104.84 55.28 104.96 54.6067 105.2 53.98C105.453 53.3533 105.8 52.8067 106.24 52.34C106.68 51.86 107.193 51.4867 107.78 51.22C108.38 50.94 109.033 50.8 109.74 50.8C110.5 50.8 111.193 50.9733 111.82 51.32C112.447 51.6533 112.927 52.06 113.26 52.54V51H114.98V61H113.26V59.46C112.927 59.94 112.447 60.3533 111.82 60.7C111.193 61.0333 110.5 61.2 109.74 61.2ZM110 59.62C110.507 59.62 110.967 59.5267 111.38 59.34C111.793 59.1533 112.147 58.9 112.44 58.58C112.747 58.2467 112.98 57.86 113.14 57.42C113.313 56.98 113.4 56.5067 113.4 56C113.4 55.4933 113.313 55.02 113.14 54.58C112.98 54.14 112.747 53.76 112.44 53.44C112.147 53.1067 111.793 52.8467 111.38 52.66C110.967 52.4733 110.507 52.38 110 52.38C109.493 52.38 109.027 52.4733 108.6 52.66C108.187 52.8467 107.827 53.1067 107.52 53.44C107.227 53.76 106.993 54.14 106.82 54.58C106.66 55.02 106.58 55.4933 106.58 56C106.58 56.5067 106.66 56.98 106.82 57.42C106.993 57.86 107.227 58.2467 107.52 58.58C107.827 58.9 108.187 59.1533 108.6 59.34C109.027 59.5267 109.493 59.62 110 59.62ZM118.218 51H119.938V52.54C120.284 51.94 120.738 51.5 121.298 51.22C121.858 50.94 122.464 50.8 123.118 50.8C123.678 50.8 124.191 50.8933 124.658 51.08C125.124 51.2667 125.518 51.54 125.838 51.9C126.171 52.2467 126.431 52.6733 126.618 53.18C126.804 53.6733 126.898 54.2267 126.898 54.84V61H125.198V55.1C125.198 54.26 124.978 53.6 124.538 53.12C124.111 52.6267 123.544 52.38 122.838 52.38C122.438 52.38 122.058 52.46 121.698 52.62C121.351 52.78 121.044 53.02 120.778 53.34C120.524 53.6467 120.318 54.0267 120.158 54.48C120.011 54.9333 119.938 55.4533 119.938 56.04V61H118.218V51ZM134.115 61.2C133.408 61.2 132.755 61.0667 132.155 60.8C131.568 60.52 131.055 60.1467 130.615 59.68C130.175 59.2 129.828 58.6467 129.575 58.02C129.335 57.3933 129.215 56.72 129.215 56C129.215 55.28 129.335 54.6067 129.575 53.98C129.828 53.3533 130.175 52.8067 130.615 52.34C131.055 51.86 131.568 51.4867 132.155 51.22C132.755 50.94 133.408 50.8 134.115 50.8C134.875 50.8 135.568 50.9733 136.195 51.32C136.822 51.6533 137.302 52.06 137.635 52.54V46H139.355V61H137.635V59.46C137.302 59.94 136.822 60.3533 136.195 60.7C135.568 61.0333 134.875 61.2 134.115 61.2ZM134.375 59.62C134.882 59.62 135.342 59.5267 135.755 59.34C136.168 59.1533 136.522 58.9 136.815 58.58C137.122 58.2467 137.355 57.86 137.515 57.42C137.688 56.98 137.775 56.5067 137.775 56C137.775 55.4933 137.688 55.02 137.515 54.58C137.355 54.14 137.122 53.76 136.815 53.44C136.522 53.1067 136.168 52.8467 135.755 52.66C135.342 52.4733 134.882 52.38 134.375 52.38C133.868 52.38 133.402 52.4733 132.975 52.66C132.562 52.8467 132.202 53.1067 131.895 53.44C131.602 53.76 131.368 54.14 131.195 54.58C131.035 55.02 130.955 55.4933 130.955 56C130.955 56.5067 131.035 56.98 131.195 57.42C131.368 57.86 131.602 58.2467 131.895 58.58C132.202 58.9 132.562 59.1533 132.975 59.34C133.402 59.5267 133.868 59.62 134.375 59.62ZM148.297 48.32C147.95 48.32 147.657 48.2067 147.417 47.98C147.177 47.74 147.057 47.4467 147.057 47.1C147.057 46.7667 147.177 46.48 147.417 46.24C147.657 46 147.95 45.88 148.297 45.88C148.644 45.88 148.93 46 149.157 46.24C149.384 46.48 149.497 46.7667 149.497 47.1C149.497 47.4467 149.384 47.74 149.157 47.98C148.93 48.2067 148.644 48.32 148.297 48.32ZM147.417 51H149.137V61H147.417V51ZM152.397 51H154.117V52.54C154.464 51.94 154.917 51.5 155.477 51.22C156.037 50.94 156.644 50.8 157.297 50.8C157.857 50.8 158.371 50.8933 158.837 51.08C159.304 51.2667 159.697 51.54 160.017 51.9C160.351 52.2467 160.611 52.6733 160.797 53.18C160.984 53.6733 161.077 54.2267 161.077 54.84V61H159.377V55.1C159.377 54.26 159.157 53.6 158.717 53.12C158.291 52.6267 157.724 52.38 157.017 52.38C156.617 52.38 156.237 52.46 155.877 52.62C155.531 52.78 155.224 53.02 154.957 53.34C154.704 53.6467 154.497 54.0267 154.337 54.48C154.191 54.9333 154.117 55.4533 154.117 56.04V61H152.397V51ZM162.46 51H164.38L167.8 58.58L171.22 51H173.14L168.52 61H167.08L162.46 51ZM179.063 61.2C178.29 61.2 177.583 61.0667 176.943 60.8C176.303 60.5333 175.756 60.1667 175.303 59.7C174.85 59.2333 174.496 58.6867 174.243 58.06C174.003 57.42 173.883 56.7333 173.883 56C173.883 55.2667 174.01 54.5867 174.263 53.96C174.516 53.32 174.87 52.7667 175.323 52.3C175.79 51.8333 176.343 51.4667 176.983 51.2C177.623 50.9333 178.323 50.8 179.083 50.8C179.736 50.8 180.35 50.9133 180.923 51.14C181.496 51.3533 181.996 51.68 182.423 52.12C182.863 52.5467 183.21 53.0733 183.463 53.7C183.716 54.3133 183.843 55.02 183.843 55.82C183.843 55.9133 183.843 56 183.843 56.08C183.843 56.1467 183.836 56.2333 183.823 56.34H175.623C175.636 56.8067 175.73 57.24 175.903 57.64C176.09 58.04 176.33 58.3867 176.623 58.68C176.93 58.9733 177.29 59.2067 177.703 59.38C178.13 59.54 178.59 59.62 179.083 59.62C179.856 59.62 180.49 59.4667 180.983 59.16C181.49 58.84 181.896 58.4133 182.203 57.88L183.563 58.82C183.11 59.5533 182.503 60.1333 181.743 60.56C180.996 60.9867 180.103 61.2 179.063 61.2ZM182.083 54.94C182.016 54.5267 181.89 54.16 181.703 53.84C181.53 53.52 181.303 53.2467 181.023 53.02C180.756 52.7933 180.45 52.62 180.103 52.5C179.756 52.38 179.396 52.32 179.023 52.32C178.65 52.32 178.283 52.38 177.923 52.5C177.563 52.62 177.236 52.7933 176.943 53.02C176.65 53.2333 176.396 53.5067 176.183 53.84C175.97 54.16 175.823 54.5267 175.743 54.94H182.083ZM186.284 51H188.004V52.54C188.351 51.94 188.804 51.5 189.364 51.22C189.924 50.94 190.531 50.8 191.184 50.8C191.744 50.8 192.257 50.8933 192.724 51.08C193.191 51.2667 193.584 51.54 193.904 51.9C194.237 52.2467 194.497 52.6733 194.684 53.18C194.871 53.6733 194.964 54.2267 194.964 54.84V61H193.264V55.1C193.264 54.26 193.044 53.6 192.604 53.12C192.177 52.6267 191.611 52.38 190.904 52.38C190.504 52.38 190.124 52.46 189.764 52.62C189.417 52.78 189.111 53.02 188.844 53.34C188.591 53.6467 188.384 54.0267 188.224 54.48C188.077 54.9333 188.004 55.4533 188.004 56.04V61H186.284V51ZM201.824 61.1C201.384 61.1 200.978 61.04 200.604 60.92C200.231 60.7867 199.904 60.6 199.624 60.36C199.358 60.1067 199.144 59.7867 198.984 59.4C198.838 59.0133 198.764 58.56 198.764 58.04V52.58H196.644V51H198.764V48.22H200.484V51H203.364V52.58H200.484V57.82C200.484 58.46 200.624 58.9067 200.904 59.16C201.184 59.4 201.598 59.52 202.144 59.52C202.358 59.52 202.571 59.5067 202.784 59.48C203.011 59.44 203.204 59.3867 203.364 59.32V60.86C203.151 60.9267 202.918 60.98 202.664 61.02C202.411 61.0733 202.131 61.1 201.824 61.1ZM209.865 61.2C209.105 61.2 208.405 61.0667 207.765 60.8C207.125 60.52 206.571 60.1467 206.105 59.68C205.638 59.2133 205.271 58.6667 205.005 58.04C204.751 57.4 204.625 56.72 204.625 56C204.625 55.28 204.751 54.6067 205.005 53.98C205.271 53.34 205.638 52.7867 206.105 52.32C206.571 51.8533 207.125 51.4867 207.765 51.22C208.405 50.94 209.105 50.8 209.865 50.8C210.611 50.8 211.305 50.94 211.945 51.22C212.585 51.4867 213.138 51.8533 213.605 52.32C214.071 52.7867 214.431 53.34 214.685 53.98C214.951 54.6067 215.085 55.28 215.085 56C215.085 56.72 214.951 57.4 214.685 58.04C214.431 58.6667 214.071 59.2133 213.605 59.68C213.138 60.1467 212.585 60.52 211.945 60.8C211.305 61.0667 210.611 61.2 209.865 61.2ZM209.865 59.6C210.385 59.6 210.858 59.5067 211.285 59.32C211.711 59.1333 212.071 58.88 212.365 58.56C212.671 58.2267 212.905 57.8467 213.065 57.42C213.238 56.98 213.325 56.5067 213.325 56C213.325 55.5067 213.238 55.04 213.065 54.6C212.905 54.16 212.671 53.78 212.365 53.46C212.071 53.1267 211.711 52.8667 211.285 52.68C210.858 52.4933 210.385 52.4 209.865 52.4C209.345 52.4 208.871 52.4933 208.445 52.68C208.018 52.8667 207.651 53.1267 207.345 53.46C207.038 53.78 206.798 54.16 206.625 54.6C206.465 55.04 206.385 55.5067 206.385 56C206.385 56.5067 206.465 56.98 206.625 57.42C206.798 57.8467 207.038 58.2267 207.345 58.56C207.651 58.88 208.018 59.1333 208.445 59.32C208.871 59.5067 209.345 59.6 209.865 59.6ZM217.554 51H219.274V52.94C219.367 52.62 219.514 52.3333 219.714 52.08C219.914 51.8267 220.14 51.6133 220.394 51.44C220.647 51.2667 220.914 51.1333 221.194 51.04C221.487 50.9467 221.78 50.9 222.074 50.9C222.34 50.9 222.6 50.9267 222.854 50.98V52.76C222.694 52.6933 222.54 52.6533 222.394 52.64C222.247 52.6133 222.087 52.6 221.914 52.6C221.594 52.6 221.274 52.6733 220.954 52.82C220.647 52.9533 220.367 53.16 220.114 53.44C219.874 53.72 219.674 54.08 219.514 54.52C219.354 54.9467 219.274 55.4533 219.274 56.04V61H217.554V51ZM225.758 48.32C225.411 48.32 225.118 48.2067 224.878 47.98C224.638 47.74 224.518 47.4467 224.518 47.1C224.518 46.7667 224.638 46.48 224.878 46.24C225.118 46 225.411 45.88 225.758 45.88C226.104 45.88 226.391 46 226.618 46.24C226.844 46.48 226.958 46.7667 226.958 47.1C226.958 47.4467 226.844 47.74 226.618 47.98C226.391 48.2067 226.104 48.32 225.758 48.32ZM224.878 51H226.598V61H224.878V51ZM232.878 61.2C231.985 61.2 231.185 61.0133 230.478 60.64C229.772 60.2533 229.265 59.6667 228.958 58.88L230.358 58.1C230.545 58.6067 230.872 59 231.338 59.28C231.818 59.5467 232.338 59.68 232.898 59.68C233.378 59.68 233.785 59.5667 234.118 59.34C234.465 59.1 234.638 58.7667 234.638 58.34C234.638 57.98 234.512 57.68 234.258 57.44C234.005 57.2 233.552 56.98 232.898 56.78L231.898 56.46C231.072 56.22 230.445 55.8533 230.018 55.36C229.605 54.8533 229.398 54.2467 229.398 53.54C229.398 53.1133 229.485 52.7333 229.658 52.4C229.845 52.0533 230.092 51.7667 230.398 51.54C230.718 51.3 231.085 51.12 231.498 51C231.912 50.8667 232.358 50.8 232.838 50.8C233.585 50.8 234.238 50.9533 234.798 51.26C235.358 51.5533 235.805 51.98 236.138 52.54L234.858 53.42C234.632 53.1 234.345 52.8333 233.998 52.62C233.665 52.3933 233.258 52.28 232.778 52.28C232.352 52.28 231.965 52.3867 231.618 52.6C231.285 52.8133 231.118 53.1067 231.118 53.48C231.118 53.7867 231.212 54.06 231.398 54.3C231.598 54.54 231.978 54.7467 232.538 54.92L233.638 55.26C234.505 55.5267 235.172 55.8933 235.638 56.36C236.118 56.8267 236.358 57.44 236.358 58.2C236.358 58.68 236.272 59.1067 236.098 59.48C235.925 59.8533 235.678 60.1667 235.358 60.42C235.052 60.6733 234.685 60.8667 234.258 61C233.832 61.1333 233.372 61.2 232.878 61.2ZM243.262 61.2C242.489 61.2 241.782 61.0667 241.142 60.8C240.502 60.5333 239.956 60.1667 239.502 59.7C239.049 59.2333 238.696 58.6867 238.442 58.06C238.202 57.42 238.082 56.7333 238.082 56C238.082 55.2667 238.209 54.5867 238.462 53.96C238.716 53.32 239.069 52.7667 239.522 52.3C239.989 51.8333 240.542 51.4667 241.182 51.2C241.822 50.9333 242.522 50.8 243.282 50.8C243.936 50.8 244.549 50.9133 245.122 51.14C245.696 51.3533 246.196 51.68 246.622 52.12C247.062 52.5467 247.409 53.0733 247.662 53.7C247.916 54.3133 248.042 55.02 248.042 55.82C248.042 55.9133 248.042 56 248.042 56.08C248.042 56.1467 248.036 56.2333 248.022 56.34H239.822C239.836 56.8067 239.929 57.24 240.102 57.64C240.289 58.04 240.529 58.3867 240.822 58.68C241.129 58.9733 241.489 59.2067 241.902 59.38C242.329 59.54 242.789 59.62 243.282 59.62C244.056 59.62 244.689 59.4667 245.182 59.16C245.689 58.84 246.096 58.4133 246.402 57.88L247.762 58.82C247.309 59.5533 246.702 60.1333 245.942 60.56C245.196 60.9867 244.302 61.2 243.262 61.2ZM246.282 54.94C246.216 54.5267 246.089 54.16 245.902 53.84C245.729 53.52 245.502 53.2467 245.222 53.02C244.956 52.7933 244.649 52.62 244.302 52.5C243.956 52.38 243.596 52.32 243.222 52.32C242.849 52.32 242.482 52.38 242.122 52.5C241.762 52.62 241.436 52.7933 241.142 53.02C240.849 53.2333 240.596 53.5067 240.382 53.84C240.169 54.16 240.022 54.5267 239.942 54.94H246.282Z" fill="black"/>
<rect y="5" width="80" height="60" rx="2" fill="#EBEBDB"/>
<rect x="5" y="10" width="70" height="50" rx="1" fill="white"/>
<path d="M10.5 49H35.5" stroke="#656565" stroke-width="1.2" stroke-linecap="round"/>
<path d="M10.5 54H20.5" stroke="#656565" stroke-width="1.2" stroke-linecap="round"/>
<rect x="47" y="48" width="23" height="7" rx="1" fill="#F49200"/>
<path fill-rule="evenodd" clip-rule="evenodd" d="M25.3721 43.0002C30.5481 43.0002 34.7441 38.8402 34.7441 33.7086C34.7441 28.577 30.5481 24.417 25.3721 24.417C20.196 24.417 16 28.577 16 33.7086C16 38.8402 20.196 43.0002 25.3721 43.0002ZM25.3718 41.7448C29.8484 41.7448 33.4774 38.147 33.4774 33.7088C33.4774 29.2707 29.8484 25.6729 25.3718 25.6729C20.8952 25.6729 17.2662 29.2707 17.2662 33.7088C17.2662 38.147 20.8952 41.7448 25.3718 41.7448Z" fill="#404040"/>
<path fill-rule="evenodd" clip-rule="evenodd" d="M54.6281 43.0002C59.8041 43.0002 64.0001 38.8402 64.0001 33.7086C64.0001 28.577 59.8041 24.417 54.6281 24.417C49.452 24.417 45.256 28.577 45.256 33.7086C45.256 38.8402 49.452 43.0002 54.6281 43.0002ZM54.6285 41.7448C59.105 41.7448 62.734 38.147 62.734 33.7088C62.734 29.2707 59.105 25.6729 54.6285 25.6729C50.1519 25.6729 46.5229 29.2707 46.5229 33.7088C46.5229 38.147 50.1519 41.7448 54.6285 41.7448Z" fill="#404040"/>
<path d="M48.9917 17.762L47.6619 18.2014L48.8018 21.6544L50.1316 21.2777L48.9917 17.762Z" fill="#C4C4C4"/>
<path d="M51.9049 26.112L50.8284 22.9102H49.8152L51.0184 26.3631L51.9049 26.112Z" fill="#C4C4C4"/>
<path d="M51.5251 25.3588L50.4485 25.6727L50.8918 26.2377L53.5515 33.897C53.657 34.1691 53.9694 34.7132 54.3747 34.7132C54.78 34.7132 55.0924 34.5039 55.1979 34.3993C55.3245 34.2528 55.5272 33.9849 55.3245 33.5831C55.1979 33.332 54.9868 33.1227 54.7546 33.1437L54.1214 32.3903L52.1583 26.175V24.9821L51.7784 23.4126H51.2084C51.2718 23.6219 51.4237 24.1534 51.5251 24.6054C51.6264 25.0575 51.5673 25.296 51.5251 25.3588Z" fill="#404040"/>
<path d="M48.9923 22.471L48.739 21.6548L50.1322 21.1526L50.2588 21.6548L50.7654 21.9687L50.9554 22.9732L49.7522 23.2871C49.71 23.1616 49.6129 22.8602 49.5623 22.6593C49.5116 22.4584 49.1612 22.4501 48.9923 22.471Z" fill="#404040"/>
<path d="M29.3615 18.8297C30.324 19.3319 30.9024 19.3738 31.0712 19.3319C31.4765 19.3319 31.8311 19.2063 31.9578 19.1436C32.2955 18.9552 33.2623 18.5911 34.4274 18.6413C35.8839 18.7041 36.2638 18.6413 36.2005 18.3902C36.1499 18.1893 35.3351 18.0972 34.934 18.0763H30.5646L29.1715 17.8879C28.8337 17.9926 28.3989 18.3274 29.3615 18.8297Z" fill="#404040"/>
<path d="M31.324 19.7085L30.4374 19.1435L30.6907 19.0179L31.3873 19.4574L33.5403 19.1435L34.9335 18.3901L35.0601 18.5157L33.6036 19.3319L31.324 19.7085Z" fill="#404040"/>
<path d="M33.7938 24.7933L32.1474 19.5196L32.7806 19.3313L34.2371 24.2282L33.7938 24.7933Z" fill="#404040"/>
<path d="M47.852 18.5784L34.3638 24.0403L34.1105 23.4753L33.3506 23.7264L36.5802 34.0853L37.4034 33.897L34.5538 24.7937C38.4588 23.3497 46.4462 20.1605 47.1554 19.9596C47.8646 19.7587 48.0419 19.8758 48.0419 19.9596L38.1633 33.897L38.6699 35.0898L48.6752 21.278L47.852 18.5784Z" fill="#C4C4C4"/>
<ellipse cx="25.3724" cy="33.7087" rx="1.64644" ry="1.63231" fill="#404040"/>
<ellipse cx="25.4357" cy="36.7851" rx="0.823221" ry="0.816154" fill="#404040"/>
<path d="M47.9157 18.2019L47.3457 16.444L48.1056 16.1929L48.187 16.444L49.5621 15.6907L50.132 16.1929L48.5331 17.5113L48.6756 17.9508L47.9157 18.2019Z" fill="#404040"/>
<path d="M25.3717 32.3271L33.7305 24.4795L33.9838 25.0445L25.7516 32.7666L26.1316 33.52L35.6303 34.65L35.8202 35.7801L24.4218 34.1478L24.2318 33.2688L25.3717 32.3271Z" fill="#C4C4C4"/>
<ellipse cx="37.404" cy="35.3413" rx="2.53299" ry="2.51124" fill="#404040"/>
<path d="M25.4989 35.4042L24.549 33.9602H25.3722L26.2587 35.467L25.3722 36.597L24.739 36.3459L25.4989 35.4042Z" fill="#404040"/>
<ellipse cx="50.0688" cy="15.7534" rx="0.759896" ry="0.753373" fill="#404040"/>
<path d="M40.8909 36.3831L38.631 35.096C38.4293 34.9811 38.1757 35.0147 38.0108 35.1781C37.7504 35.4363 37.8338 35.8758 38.1706 36.0207L40.5595 37.0485C40.7147 37.1152 40.8953 37.0692 40.9995 36.9363C41.1399 36.7574 41.0885 36.4956 40.8909 36.3831Z" fill="#404040"/>
<rect x="39.9364" y="36.5967" width="2.02639" height="0.753373" rx="0.376686" fill="#404040"/>
<rect x="34.2376" y="33.3323" width="2.02639" height="0.753373" rx="0.376686" fill="#404040"/>
<path d="M26.0688 33.0181L37.5939 33.0808" stroke="#404040" stroke-width="0.3"/>
<path d="M25.3719 37.5383L37.5936 37.6639" stroke="#404040" stroke-width="0.3"/>
<path d="M27 65H52V69H27V65Z" fill="#EBEBDB"/>
<rect x="27" y="65" width="25" height="1" fill="#B9B99F"/>
<path d="M27 69H52L60 72H20L27 69Z" fill="#CCCCB0"/>
<rect x="20" y="72" width="40" height="3" fill="#EBEBDB"/>
</svg>
