<svg width="203" height="80" viewBox="0 0 203 80" fill="none" xmlns="http://www.w3.org/2000/svg">
<path d="M113.46 37.36L110 47H108.34L104.46 32.8H106.4L109.36 43.88L113.46 32.56L117.56 43.88L120.54 32.8H122.48L118.6 47H116.94L113.46 37.36ZM128.36 47.2C127.587 47.2 126.88 47.0667 126.24 46.8C125.6 46.5333 125.053 46.1667 124.6 45.7C124.147 45.2333 123.793 44.6867 123.54 44.06C123.3 43.42 123.18 42.7333 123.18 42C123.18 41.2667 123.307 40.5867 123.56 39.96C123.813 39.32 124.167 38.7667 124.62 38.3C125.087 37.8333 125.64 37.4667 126.28 37.2C126.92 36.9333 127.62 36.8 128.38 36.8C129.033 36.8 129.647 36.9133 130.22 37.14C130.793 37.3533 131.293 37.68 131.72 38.12C132.16 38.5467 132.507 39.0733 132.76 39.7C133.013 40.3133 133.14 41.02 133.14 41.82C133.14 41.9133 133.14 42 133.14 42.08C133.14 42.1467 133.133 42.2333 133.12 42.34H124.92C124.933 42.8067 125.027 43.24 125.2 43.64C125.387 44.04 125.627 44.3867 125.92 44.68C126.227 44.9733 126.587 45.2067 127 45.38C127.427 45.54 127.887 45.62 128.38 45.62C129.153 45.62 129.787 45.4667 130.28 45.16C130.787 44.84 131.193 44.4133 131.5 43.88L132.86 44.82C132.407 45.5533 131.8 46.1333 131.04 46.56C130.293 46.9867 129.4 47.2 128.36 47.2ZM131.38 40.94C131.313 40.5267 131.187 40.16 131 39.84C130.827 39.52 130.6 39.2467 130.32 39.02C130.053 38.7933 129.747 38.62 129.4 38.5C129.053 38.38 128.693 38.32 128.32 38.32C127.947 38.32 127.58 38.38 127.22 38.5C126.86 38.62 126.533 38.7933 126.24 39.02C125.947 39.2333 125.693 39.5067 125.48 39.84C125.267 40.16 125.12 40.5267 125.04 40.94H131.38ZM144.865 47.2C144.105 47.2 143.405 47.0667 142.765 46.8C142.125 46.5333 141.572 46.1667 141.105 45.7C140.638 45.22 140.272 44.6667 140.005 44.04C139.752 43.4 139.625 42.72 139.625 42C139.625 41.28 139.752 40.6067 140.005 39.98C140.272 39.34 140.638 38.7867 141.105 38.32C141.572 37.84 142.125 37.4667 142.765 37.2C143.405 36.9333 144.105 36.8 144.865 36.8C145.905 36.8 146.825 37.0467 147.625 37.54C148.425 38.0333 149.045 38.68 149.485 39.48L147.985 40.32C147.705 39.7467 147.292 39.2867 146.745 38.94C146.212 38.58 145.585 38.4 144.865 38.4C144.345 38.4 143.872 38.4933 143.445 38.68C143.018 38.8667 142.645 39.1267 142.325 39.46C142.018 39.78 141.778 40.16 141.605 40.6C141.445 41.04 141.365 41.5067 141.365 42C141.365 42.5067 141.445 42.98 141.605 43.42C141.778 43.8467 142.018 44.2267 142.325 44.56C142.645 44.88 143.018 45.1333 143.445 45.32C143.872 45.5067 144.345 45.6 144.865 45.6C145.585 45.6 146.212 45.4267 146.745 45.08C147.292 44.72 147.705 44.2533 147.985 43.68L149.485 44.52C149.045 45.32 148.425 45.9667 147.625 46.46C146.825 46.9533 145.905 47.2 144.865 47.2ZM156.154 47.2C155.394 47.2 154.694 47.0667 154.054 46.8C153.414 46.52 152.86 46.1467 152.394 45.68C151.927 45.2133 151.56 44.6667 151.294 44.04C151.04 43.4 150.914 42.72 150.914 42C150.914 41.28 151.04 40.6067 151.294 39.98C151.56 39.34 151.927 38.7867 152.394 38.32C152.86 37.8533 153.414 37.4867 154.054 37.22C154.694 36.94 155.394 36.8 156.154 36.8C156.9 36.8 157.594 36.94 158.234 37.22C158.874 37.4867 159.427 37.8533 159.894 38.32C160.36 38.7867 160.72 39.34 160.974 39.98C161.24 40.6067 161.374 41.28 161.374 42C161.374 42.72 161.24 43.4 160.974 44.04C160.72 44.6667 160.36 45.2133 159.894 45.68C159.427 46.1467 158.874 46.52 158.234 46.8C157.594 47.0667 156.9 47.2 156.154 47.2ZM156.154 45.6C156.674 45.6 157.147 45.5067 157.574 45.32C158 45.1333 158.36 44.88 158.654 44.56C158.96 44.2267 159.194 43.8467 159.354 43.42C159.527 42.98 159.614 42.5067 159.614 42C159.614 41.5067 159.527 41.04 159.354 40.6C159.194 40.16 158.96 39.78 158.654 39.46C158.36 39.1267 158 38.8667 157.574 38.68C157.147 38.4933 156.674 38.4 156.154 38.4C155.634 38.4 155.16 38.4933 154.734 38.68C154.307 38.8667 153.94 39.1267 153.634 39.46C153.327 39.78 153.087 40.16 152.914 40.6C152.754 41.04 152.674 41.5067 152.674 42C152.674 42.5067 152.754 42.98 152.914 43.42C153.087 43.8467 153.327 44.2267 153.634 44.56C153.94 44.88 154.307 45.1333 154.734 45.32C155.16 45.5067 155.634 45.6 156.154 45.6ZM163.843 32H165.563V47H163.843V32ZM168.823 32H170.543V47H168.823V32ZM178.204 47.2C177.43 47.2 176.724 47.0667 176.084 46.8C175.444 46.5333 174.897 46.1667 174.444 45.7C173.99 45.2333 173.637 44.6867 173.384 44.06C173.144 43.42 173.024 42.7333 173.024 42C173.024 41.2667 173.15 40.5867 173.404 39.96C173.657 39.32 174.01 38.7667 174.464 38.3C174.93 37.8333 175.484 37.4667 176.124 37.2C176.764 36.9333 177.464 36.8 178.224 36.8C178.877 36.8 179.49 36.9133 180.064 37.14C180.637 37.3533 181.137 37.68 181.564 38.12C182.004 38.5467 182.35 39.0733 182.604 39.7C182.857 40.3133 182.984 41.02 182.984 41.82C182.984 41.9133 182.984 42 182.984 42.08C182.984 42.1467 182.977 42.2333 182.964 42.34H174.764C174.777 42.8067 174.87 43.24 175.044 43.64C175.23 44.04 175.47 44.3867 175.764 44.68C176.07 44.9733 176.43 45.2067 176.844 45.38C177.27 45.54 177.73 45.62 178.224 45.62C178.997 45.62 179.63 45.4667 180.124 45.16C180.63 44.84 181.037 44.4133 181.344 43.88L182.704 44.82C182.25 45.5533 181.644 46.1333 180.884 46.56C180.137 46.9867 179.244 47.2 178.204 47.2ZM181.224 40.94C181.157 40.5267 181.03 40.16 180.844 39.84C180.67 39.52 180.444 39.2467 180.164 39.02C179.897 38.7933 179.59 38.62 179.244 38.5C178.897 38.38 178.537 38.32 178.164 38.32C177.79 38.32 177.424 38.38 177.064 38.5C176.704 38.62 176.377 38.7933 176.084 39.02C175.79 39.2333 175.537 39.5067 175.324 39.84C175.11 40.16 174.964 40.5267 174.884 40.94H181.224ZM189.885 47.2C189.125 47.2 188.425 47.0667 187.785 46.8C187.145 46.5333 186.591 46.1667 186.125 45.7C185.658 45.22 185.291 44.6667 185.025 44.04C184.771 43.4 184.645 42.72 184.645 42C184.645 41.28 184.771 40.6067 185.025 39.98C185.291 39.34 185.658 38.7867 186.125 38.32C186.591 37.84 187.145 37.4667 187.785 37.2C188.425 36.9333 189.125 36.8 189.885 36.8C190.925 36.8 191.845 37.0467 192.645 37.54C193.445 38.0333 194.065 38.68 194.505 39.48L193.005 40.32C192.725 39.7467 192.311 39.2867 191.765 38.94C191.231 38.58 190.605 38.4 189.885 38.4C189.365 38.4 188.891 38.4933 188.465 38.68C188.038 38.8667 187.665 39.1267 187.345 39.46C187.038 39.78 186.798 40.16 186.625 40.6C186.465 41.04 186.385 41.5067 186.385 42C186.385 42.5067 186.465 42.98 186.625 43.42C186.798 43.8467 187.038 44.2267 187.345 44.56C187.665 44.88 188.038 45.1333 188.465 45.32C188.891 45.5067 189.365 45.6 189.885 45.6C190.605 45.6 191.231 45.4267 191.765 45.08C192.311 44.72 192.725 44.2533 193.005 43.68L194.505 44.52C194.065 45.32 193.445 45.9667 192.645 46.46C191.845 46.9533 190.925 47.2 189.885 47.2ZM200.613 47.1C200.173 47.1 199.767 47.04 199.393 46.92C199.02 46.7867 198.693 46.6 198.413 46.36C198.147 46.1067 197.933 45.7867 197.773 45.4C197.627 45.0133 197.553 44.56 197.553 44.04V38.58H195.433V37H197.553V34.22H199.273V37H202.153V38.58H199.273V43.82C199.273 44.46 199.413 44.9067 199.693 45.16C199.973 45.4 200.387 45.52 200.933 45.52C201.147 45.52 201.36 45.5067 201.573 45.48C201.8 45.44 201.993 45.3867 202.153 45.32V46.86C201.94 46.9267 201.707 46.98 201.453 47.02C201.2 47.0733 200.92 47.1 200.613 47.1Z" fill="black"/>
<rect x="4" y="22" width="36" height="49" rx="2" fill="#EBEBDB"/>
<path fill-rule="evenodd" clip-rule="evenodd" d="M40 64.75H4V64.25H40V64.75Z" fill="#CCCCB0"/>
<path fill-rule="evenodd" clip-rule="evenodd" d="M12.75 28V24H13.25V28C13.25 28.2067 13.1901 28.5111 13.0029 28.7711C12.8065 29.0438 12.4815 29.25 12 29.25H4V28.75H12C12.3185 28.75 12.4935 28.6229 12.5971 28.4789C12.7099 28.3222 12.75 28.1267 12.75 28Z" fill="#CCCCB0"/>
<circle cx="22" cy="48" r="13" fill="#CCCCB0"/>
<circle cx="22" cy="48" r="10" fill="#728496"/>
<rect x="31" y="24" width="7" height="5" rx="1" fill="#14CABE"/>
<circle cx="25.5" cy="26.5" r="2.5" fill="#CCCCB0"/>
<circle cx="20" cy="26" r="1" fill="#CCCCB0"/>
<circle cx="17" cy="26" r="1" fill="#CCCCB0"/>
<path d="M7 22.0168V5.33423H28.6423V22.0168H7Z" fill="#F7B583"/>
<path d="M7 5.33461L8.82526 4H27.3386L28.6423 5.33461H7Z" fill="#FFE0C0"/>
<path d="M34.4022 45.7109L27.8371 49.5124L24.8984 48.2861L31.0259 45.7109H34.4022Z" fill="#878787"/>
<path d="M72.1783 49.5734L65.8008 45.772H68.8645L74.9294 48.3471L72.1783 49.5734Z" fill="#878787"/>
<path d="M35.278 38.0464L34.3401 45.7106H31.1514C31.3389 44.1777 31.7391 40.8545 31.8391 39.8245C31.9392 38.7944 32.8395 38.2099 33.2772 38.0464H35.278Z" fill="#AFAFAF"/>
<path d="M68.927 45.7716H65.8007L64.6753 38.1074H66.3635C67.614 38.1074 68.0933 39.2111 68.1767 39.7629L68.927 45.7716Z" fill="#AFAFAF"/>
<path d="M64.7375 38.169L35.2148 38.0464L34.2769 45.6493L27 49L30.2753 63.5528H69.6144L72.5 49L65.8629 45.6493L64.7375 38.169Z" fill="#313131"/>
<path d="M62.237 52.4556H37.7162L32 55L30.4634 56.7242H69.5523L68 55L62.237 52.4556Z" fill="#404040"/>
<path d="M27.5001 75.9999L28.0003 69.6846H31.2516L29.3133 75.9999H27.5001Z" fill="#EFA66F"/>
<path d="M72.3037 76.0001L71.8035 69.6848H68.5522L70.4905 76.0001H72.3037Z" fill="#EFA66F"/>
<path d="M32.9999 71V69.7737H35.0007L34.313 71H32.9999Z" fill="#D4915F"/>
<path d="M66.4884 71.0945L66.676 69.7456H64.5502L65.3005 71.0945H66.4884Z" fill="#D4915F"/>
<rect x="30.1641" y="54.4785" width="39.8884" height="7.84812" rx="3.92406" fill="#656565"/>
<rect x="36.2896" y="34" width="27.5109" height="19.2524" rx="5" fill="#656565"/>
<path d="M29.1505 54.3564L28.3795 50.7919C28.0632 49.3298 26.7699 48.2864 25.274 48.2864C24.9822 48.2864 24.3361 48.4703 24.086 49.2061C23.9378 49.6423 24.0019 50.1862 24.1222 50.6462C24.2596 51.1721 24.4765 51.6751 24.6315 52.1961L24.956 53.2873C25.1673 53.9978 25.2988 54.7271 25.3483 55.4667C25.6565 60.071 26.1658 67.7227 26.2119 68.5811C26.2619 69.5131 27.3165 69.787 27.8375 69.8074H72.1786C73.279 69.8074 73.6791 68.9899 73.7417 68.5811L74.5697 56.022C74.6424 54.9192 74.9101 53.8405 75.2763 52.7978C75.6798 51.6491 76.0581 50.3394 75.9926 49.6966C75.9237 49.0209 75.5147 48.6361 75.1373 48.442C74.85 48.2941 74.5172 48.2864 74.1941 48.2864C73.0153 48.2864 71.9936 49.1025 71.7331 50.252L70.803 54.3564L69.6716 62.5313C69.6351 62.7952 69.5052 63.0372 69.3055 63.2135C69.1021 63.393 68.8401 63.4921 68.5687 63.4921H31.3425C31.0615 63.4921 30.7936 63.3734 30.6048 63.1651C30.472 63.0186 30.3858 62.8358 30.3573 62.64L29.1505 54.3564Z" fill="#656565"/>
<path d="M43.8902 54.4776V42.9902H63.336V54.4776H43.8902Z" fill="#F7B583"/>
<path d="M43.8901 42.9903L45.5301 42.0713H62.1645L63.3359 42.9903H43.8901Z" fill="#FFE0C0"/>
<path d="M45.683 33.5989L46.136 42.8372L61.8072 42.4819V33.5989H45.683Z" fill="#EFA66F"/>
<path d="M61.8075 33.5989L60.7205 32H47.5856L45.6833 33.5989H61.8075Z" fill="#FFD0A0"/>
</svg>
