<svg width="203" height="80" viewBox="0 0 203 80" fill="none" xmlns="http://www.w3.org/2000/svg">
<path d="M113.46 37.36L110 47H108.34L104.46 32.8H106.4L109.36 43.88L113.46 32.56L117.56 43.88L120.54 32.8H122.48L118.6 47H116.94L113.46 37.36ZM128.36 47.2C127.587 47.2 126.88 47.0667 126.24 46.8C125.6 46.5333 125.053 46.1667 124.6 45.7C124.147 45.2333 123.793 44.6867 123.54 44.06C123.3 43.42 123.18 42.7333 123.18 42C123.18 41.2667 123.307 40.5867 123.56 39.96C123.813 39.32 124.167 38.7667 124.62 38.3C125.087 37.8333 125.64 37.4667 126.28 37.2C126.92 36.9333 127.62 36.8 128.38 36.8C129.033 36.8 129.647 36.9133 130.22 37.14C130.793 37.3533 131.293 37.68 131.72 38.12C132.16 38.5467 132.507 39.0733 132.76 39.7C133.013 40.3133 133.14 41.02 133.14 41.82C133.14 41.9133 133.14 42 133.14 42.08C133.14 42.1467 133.133 42.2333 133.12 42.34H124.92C124.933 42.8067 125.027 43.24 125.2 43.64C125.387 44.04 125.627 44.3867 125.92 44.68C126.227 44.9733 126.587 45.2067 127 45.38C127.427 45.54 127.887 45.62 128.38 45.62C129.153 45.62 129.787 45.4667 130.28 45.16C130.787 44.84 131.193 44.4133 131.5 43.88L132.86 44.82C132.407 45.5533 131.8 46.1333 131.04 46.56C130.293 46.9867 129.4 47.2 128.36 47.2ZM131.38 40.94C131.313 40.5267 131.187 40.16 131 39.84C130.827 39.52 130.6 39.2467 130.32 39.02C130.053 38.7933 129.747 38.62 129.4 38.5C129.053 38.38 128.693 38.32 128.32 38.32C127.947 38.32 127.58 38.38 127.22 38.5C126.86 38.62 126.533 38.7933 126.24 39.02C125.947 39.2333 125.693 39.5067 125.48 39.84C125.267 40.16 125.12 40.5267 125.04 40.94H131.38ZM144.525 47.2C143.818 47.2 143.165 47.0667 142.565 46.8C141.978 46.52 141.465 46.1467 141.025 45.68C140.585 45.2 140.238 44.6467 139.985 44.02C139.745 43.3933 139.625 42.72 139.625 42C139.625 41.28 139.745 40.6067 139.985 39.98C140.238 39.3533 140.585 38.8067 141.025 38.34C141.465 37.86 141.978 37.4867 142.565 37.22C143.165 36.94 143.818 36.8 144.525 36.8C145.285 36.8 145.978 36.9733 146.605 37.32C147.232 37.6533 147.712 38.06 148.045 38.54V32H149.765V47H148.045V45.46C147.712 45.94 147.232 46.3533 146.605 46.7C145.978 47.0333 145.285 47.2 144.525 47.2ZM144.785 45.62C145.292 45.62 145.752 45.5267 146.165 45.34C146.578 45.1533 146.932 44.9 147.225 44.58C147.532 44.2467 147.765 43.86 147.925 43.42C148.098 42.98 148.185 42.5067 148.185 42C148.185 41.4933 148.098 41.02 147.925 40.58C147.765 40.14 147.532 39.76 147.225 39.44C146.932 39.1067 146.578 38.8467 146.165 38.66C145.752 38.4733 145.292 38.38 144.785 38.38C144.278 38.38 143.812 38.4733 143.385 38.66C142.972 38.8467 142.612 39.1067 142.305 39.44C142.012 39.76 141.778 40.14 141.605 40.58C141.445 41.02 141.365 41.4933 141.365 42C141.365 42.5067 141.445 42.98 141.605 43.42C141.778 43.86 142.012 44.2467 142.305 44.58C142.612 44.9 142.972 45.1533 143.385 45.34C143.812 45.5267 144.278 45.62 144.785 45.62ZM157.403 47.2C156.629 47.2 155.923 47.0667 155.283 46.8C154.643 46.5333 154.096 46.1667 153.643 45.7C153.189 45.2333 152.836 44.6867 152.583 44.06C152.343 43.42 152.223 42.7333 152.223 42C152.223 41.2667 152.349 40.5867 152.603 39.96C152.856 39.32 153.209 38.7667 153.663 38.3C154.129 37.8333 154.683 37.4667 155.323 37.2C155.963 36.9333 156.663 36.8 157.423 36.8C158.076 36.8 158.689 36.9133 159.263 37.14C159.836 37.3533 160.336 37.68 160.763 38.12C161.203 38.5467 161.549 39.0733 161.803 39.7C162.056 40.3133 162.183 41.02 162.183 41.82C162.183 41.9133 162.183 42 162.183 42.08C162.183 42.1467 162.176 42.2333 162.163 42.34H153.963C153.976 42.8067 154.069 43.24 154.243 43.64C154.429 44.04 154.669 44.3867 154.963 44.68C155.269 44.9733 155.629 45.2067 156.043 45.38C156.469 45.54 156.929 45.62 157.423 45.62C158.196 45.62 158.829 45.4667 159.323 45.16C159.829 44.84 160.236 44.4133 160.543 43.88L161.903 44.82C161.449 45.5533 160.843 46.1333 160.083 46.56C159.336 46.9867 158.443 47.2 157.403 47.2ZM160.423 40.94C160.356 40.5267 160.229 40.16 160.043 39.84C159.869 39.52 159.643 39.2467 159.363 39.02C159.096 38.7933 158.789 38.62 158.443 38.5C158.096 38.38 157.736 38.32 157.363 38.32C156.989 38.32 156.623 38.38 156.263 38.5C155.903 38.62 155.576 38.7933 155.283 39.02C154.989 39.2333 154.736 39.5067 154.523 39.84C154.309 40.16 154.163 40.5267 154.083 40.94H160.423ZM164.624 32H166.344V47H164.624V32ZM170.484 34.32C170.138 34.32 169.844 34.2067 169.604 33.98C169.364 33.74 169.244 33.4467 169.244 33.1C169.244 32.7667 169.364 32.48 169.604 32.24C169.844 32 170.138 31.88 170.484 31.88C170.831 31.88 171.118 32 171.344 32.24C171.571 32.48 171.684 32.7667 171.684 33.1C171.684 33.4467 171.571 33.74 171.344 33.98C171.118 34.2067 170.831 34.32 170.484 34.32ZM169.604 37H171.324V47H169.604V37ZM173.085 37H175.005L178.425 44.58L181.845 37H183.765L179.145 47H177.705L173.085 37ZM189.688 47.2C188.915 47.2 188.208 47.0667 187.568 46.8C186.928 46.5333 186.381 46.1667 185.928 45.7C185.475 45.2333 185.121 44.6867 184.868 44.06C184.628 43.42 184.508 42.7333 184.508 42C184.508 41.2667 184.635 40.5867 184.888 39.96C185.141 39.32 185.495 38.7667 185.948 38.3C186.415 37.8333 186.968 37.4667 187.608 37.2C188.248 36.9333 188.948 36.8 189.708 36.8C190.361 36.8 190.975 36.9133 191.548 37.14C192.121 37.3533 192.621 37.68 193.048 38.12C193.488 38.5467 193.835 39.0733 194.088 39.7C194.341 40.3133 194.468 41.02 194.468 41.82C194.468 41.9133 194.468 42 194.468 42.08C194.468 42.1467 194.461 42.2333 194.448 42.34H186.248C186.261 42.8067 186.355 43.24 186.528 43.64C186.715 44.04 186.955 44.3867 187.248 44.68C187.555 44.9733 187.915 45.2067 188.328 45.38C188.755 45.54 189.215 45.62 189.708 45.62C190.481 45.62 191.115 45.4667 191.608 45.16C192.115 44.84 192.521 44.4133 192.828 43.88L194.188 44.82C193.735 45.5533 193.128 46.1333 192.368 46.56C191.621 46.9867 190.728 47.2 189.688 47.2ZM192.708 40.94C192.641 40.5267 192.515 40.16 192.328 39.84C192.155 39.52 191.928 39.2467 191.648 39.02C191.381 38.7933 191.075 38.62 190.728 38.5C190.381 38.38 190.021 38.32 189.648 38.32C189.275 38.32 188.908 38.38 188.548 38.5C188.188 38.62 187.861 38.7933 187.568 39.02C187.275 39.2333 187.021 39.5067 186.808 39.84C186.595 40.16 186.448 40.5267 186.368 40.94H192.708ZM196.909 37H198.629V38.94C198.722 38.62 198.869 38.3333 199.069 38.08C199.269 37.8267 199.496 37.6133 199.749 37.44C200.002 37.2667 200.269 37.1333 200.549 37.04C200.842 36.9467 201.136 36.9 201.429 36.9C201.696 36.9 201.956 36.9267 202.209 36.98V38.76C202.049 38.6933 201.896 38.6533 201.749 38.64C201.602 38.6133 201.442 38.6 201.269 38.6C200.949 38.6 200.629 38.6733 200.309 38.82C200.002 38.9533 199.722 39.16 199.469 39.44C199.229 39.72 199.029 40.08 198.869 40.52C198.709 40.9467 198.629 41.4533 198.629 42.04V47H196.909V37Z" fill="black"/>
<path d="M0 7H63.0118L79.0148 29.0533H0V7Z" fill="url(#paint0_linear)"/>
<path d="M0 51.1067H63.0118L79.0148 29.0534H0V51.1067Z" fill="url(#paint1_linear)"/>
<path fill-rule="evenodd" clip-rule="evenodd" d="M70.9093 29.0599L55.0103 7H63.0118L79.1633 29.0599L62.6703 51.0997L57.3878 47.1289L70.9093 29.0599Z" fill="#F49200"/>
<path fill-rule="evenodd" clip-rule="evenodd" d="M44.9046 29.0398L28.0054 7H36.6656L53.1586 29.0398L36.6656 51.0797L31.3831 47.1089L44.9046 29.0398Z" fill="#FFEBC5"/>
<path fill-rule="evenodd" clip-rule="evenodd" d="M20.9001 29.0398L5.00098 7H12.6611L29.1541 29.0398L12.6611 51.0797L7.3785 47.1089L20.9001 29.0398Z" fill="#FFF6E5"/>
<path fill-rule="evenodd" clip-rule="evenodd" d="M8.11854 67.3073H1C0.447716 67.3073 0 66.8596 0 66.3073V31.0562C0 30.5039 0.447715 30.0562 1 30.0562H41.3001V67.3073H31.3332H23.8509" fill="#464646"/>
<path fill-rule="evenodd" clip-rule="evenodd" d="M34 39.8677V39H29.7791V39.8677H31.4881L31.4883 45.3672H32.2909L32.2907 39.8677H34ZM20.9316 42.7277V39.0321H20.129V42.7277L20.1296 42.8038C20.1559 44.4402 21.0336 45.3232 22.6201 45.3232C24.2285 45.3232 25.1187 44.4172 25.1453 42.7351L25.1454 39.0321H24.3427V42.7277L24.3412 42.791C24.3049 43.9394 23.7771 44.4555 22.6201 44.4555C21.4447 44.4555 20.9316 43.9248 20.9316 42.7277ZM27.7538 39.0321V44.4555H29.5597V45.3232H26.9512V39.0321H27.7538ZM19.2939 45.3231L16.484 39.0321H15.7849L13.2745 45.3231H14.1486L14.9616 43.2851H17.4921L18.4024 45.3231H19.2939ZM8.87445 39.0321L10.7857 43.8029L12.7178 39.0321H13.594L11.0461 45.3232H10.5202L8 39.0321H8.87445ZM15.3084 42.4192L16.1564 40.295L17.1048 42.4192H15.3084Z" fill="white"/>
<path d="M24.9675 67C24.9898 66.739 25.0012 66.4748 25.0012 66.2079C25.0012 61.19 20.973 57.1187 16.0012 57.1187C11.0295 57.1187 7.00122 61.19 7.00122 66.2079C7.00122 66.4748 7.01261 66.739 7.03494 67H24.9675Z" fill="#333333"/>
<path fill-rule="evenodd" clip-rule="evenodd" d="M41.2611 30.0557H60.8254C61.4361 30.0557 62.0132 30.3346 62.3926 30.8131L79.5673 52.4752C79.8476 52.8288 80.0001 53.2666 80.0001 53.7178V66.3068C80.0001 66.8591 79.5524 67.3068 79.0001 67.3068H41.0078" fill="#464646"/>
<path d="M72.9675 67C72.9898 66.739 73.0012 66.4748 73.0012 66.2079C73.0012 61.19 68.973 57.1187 64.0012 57.1187C59.0295 57.1187 55.0012 61.19 55.0012 66.2079C55.0012 66.4748 55.0126 66.739 55.0349 67H72.9675Z" fill="#333333"/>
<path fill-rule="evenodd" clip-rule="evenodd" d="M23.7338 66.0626C23.7338 70.4455 20.2131 73.9999 15.8676 73.9999C11.5222 73.9999 8.00146 70.4455 8.00146 66.0626C8.00146 61.6797 11.5222 58.1235 15.8676 58.1235C20.2131 58.1235 23.7338 61.6797 23.7338 66.0626Z" fill="#0A0404"/>
<path fill-rule="evenodd" clip-rule="evenodd" d="M21.002 66.1314C21.002 68.8921 18.764 71.1309 16.002 71.1309C13.2399 71.1309 11.002 68.8921 11.002 66.1314C11.002 63.3708 13.2399 61.1309 16.002 61.1309C18.764 61.1309 21.002 63.3708 21.002 66.1314Z" fill="#EBEBDB"/>
<path d="M60.2684 33.063H49.009C48.4567 33.063 48.009 33.5107 48.009 34.063V44.4759C48.009 45.0281 48.4567 45.4759 49.009 45.4759H70.8003L61.0455 33.4335C60.8556 33.1992 60.5701 33.063 60.2684 33.063Z" fill="#C5FFFB"/>
<path fill-rule="evenodd" clip-rule="evenodd" d="M71.7446 66.0626C71.7446 70.4455 68.2221 73.9999 63.8784 73.9999C59.533 73.9999 56.0105 70.4455 56.0105 66.0626C56.0105 61.6797 59.533 58.1235 63.8784 58.1235C68.2221 58.1235 71.7446 61.6797 71.7446 66.0626Z" fill="#0A0404"/>
<path fill-rule="evenodd" clip-rule="evenodd" d="M69.011 66.1314C69.011 68.8921 66.7731 71.1309 64.011 71.1309C61.2489 71.1309 59.011 68.8921 59.011 66.1314C59.011 63.3708 61.2489 61.1309 64.011 61.1309C66.7731 61.1309 69.011 63.3708 69.011 66.1314Z" fill="#EBEBDB"/>
<defs>
<linearGradient id="paint0_linear" x1="79.0148" y1="29.0533" x2="24.0045" y2="29.0533" gradientUnits="userSpaceOnUse">
<stop stop-color="#FFBF4D"/>
<stop offset="1" stop-color="#FFE8BE" stop-opacity="0"/>
</linearGradient>
<linearGradient id="paint1_linear" x1="79.0148" y1="29.0534" x2="24.0045" y2="29.0534" gradientUnits="userSpaceOnUse">
<stop stop-color="#FFBF4D"/>
<stop offset="1" stop-color="#FFE8BE" stop-opacity="0"/>
</linearGradient>
</defs>
</svg>
