<svg width="256" height="256" viewBox="0 0 256 256" fill="none" xmlns="http://www.w3.org/2000/svg">
<circle cx="128" cy="128" r="128" fill="#FFF6E4"/>
<path d="M73 110.956V87.7864L129.039 63L183.461 88.0922L129.039 109.879V130.893L129.578 133.048L129.039 193.005L78.3883 171.451V113.112L73 110.956Z" fill="#FFD0A0"/>
<path d="M129 110L73 88L129 63L184 88L129 110Z" fill="#FFDDBB"/>
<path d="M129 132.5L78.5 113V120.5L129 141V132.5Z" fill="#F0C497"/>
<path d="M129.039 130.356V109.88L184 88.0935V111.263L180.228 112.88V171.991L129.039 192.467V130.356Z" fill="#EFA66F"/>
<path d="M129 132.5L180 112.5V120.5L129 141V132.5Z" fill="#E49B64"/>
<circle cx="176" cy="84" r="32" fill="#F49200"/>
<path d="M176 61.1428L183.063 75.4514L198.857 77.76L187.429 88.8914L190.126 104.617L176 97.1885L161.874 104.617L164.571 88.8914L153.143 77.76L168.937 75.4514L176 61.1428Z" fill="#FFDA97"/>
</svg>
